SplineFontDB: 3.0
FontName: Jost-Light
FullName: Jost* 300 Light
FamilyName: Jost* Light
Weight: Light
Copyright: This typeface is licensed under the SIL open font license.
UComments: "2018-6-8: Created with FontForge (http://fontforge.org)"
Version: 003.400
ItalicAngle: 0
UnderlinePosition: -100
UnderlineWidth: 50
Ascent: 800
Descent: 200
InvalidEm: 0
LayerCount: 2
Layer: 0 0 "Back" 1
Layer: 1 0 "Fore" 0
XUID: [1021 69 1495626776 760146]
FSType: 0
OS2Version: 0
OS2_WeightWidthSlopeOnly: 0
OS2_UseTypoMetrics: 0
CreationTime: 1528480336
ModificationTime: 1562964935
PfmFamily: 17
TTFWeight: 300
TTFWidth: 5
LineGap: 100
VLineGap: 0
OS2TypoAscent: 825
OS2TypoAOffset: 0
OS2TypoDescent: -225
OS2TypoDOffset: 0
OS2TypoLinegap: 100
OS2WinAscent: 900
OS2WinAOffset: 0
OS2WinDescent: 300
OS2WinDOffset: 0
HheadAscent: 1030
HheadAOffset: 0
HheadDescent: -350
HheadDOffset: 0
OS2CapHeight: 700
OS2XHeight: 460
OS2Vendor: 'PfEd'
Lookup: 1 0 0 "alt a" { "alt a"  } ['ss01' ('DFLT' <'dflt' > 'latn' <'dflt' > ) ]
Lookup: 1 0 0 "Tabular Numbers lookup" { "Tabular Numbers lookup"  } ['tnum' ('DFLT' <'dflt' > 'grek' <'dflt' > 'latn' <'dflt' > ) ]
Lookup: 258 0 0 "Lets get our kern on" { "kernin like nobodys business" [150,0,4] } ['kern' ('DFLT' <'dflt' > 'latn' <'dflt' > ) ]
MarkAttachClasses: 1
DEI: 91125
KernClass2: 16 14 "kernin like nobodys business"
 43 slash seven V W Wcircumflex uni040E uni0423
 175 quotedbl quotesingle asterisk grave dieresis ordfeminine macron degree acute ordmasculine circumflex breve dotaccent ring tilde quoteleft quoteright quotedblleft quotedblright
 25 nine question F P uni0420
 131 A L backslash Agrave Aacute Acircumflex Atilde Adieresis Aring Amacron Abreve Aogonek Lacute uni013B Lslash uni0410 uni0414 uni041C
 58 three eight B C germandbls uni0411 uni0412 uni0417 uni0421
 29 K X Z uni0416 uni041A uni0425

StartChar: H
Encoding: 72 72 0
Width: 687
VWidth: 0
Flags: HMW
LayerCount: 2
Fore
SplineSet
113.4 354.8 m 1
 113.4 406.8 l 1
 585.4 406.8 l 1
 585.4 354.8 l 1
 113.4 354.8 l 1
548.4 700 m 1
 603.8 700 l 1
 603.8 0 l 1
 548.4 0 l 1
 548.4 700 l 1
84 700 m 1
 139.4 700 l 1
 139.4 0 l 1
 84 0 l 1
 84 700 l 1
EndSplineSet
EndChar

StartChar: O
Encoding: 79 79 1
Width: 783
VWidth: 0
Flags: HMW
LayerCount: 2
Fore
SplineSet
102.4 350 m 0
 102.4 174.8 223.6 46.2 391.8 46.2 c 0
 560 46.2 681.2 174.8 681.2 350 c 0
 681.2 525.2 560 653.8 391.8 653.8 c 0
 223.6 653.8 102.4 525.2 102.4 350 c 0
44 350 m 0
 44 556 191.8 709.2 391.8 709.2 c 0
 591.8 709.2 739.6 556 739.6 350 c 0
 739.6 144 591.8 -9.2 391.8 -9.2 c 0
 191.8 -9.2 44 144 44 350 c 0
EndSplineSet
EndChar

StartChar: I
Encoding: 73 73 2
Width: 219
VWidth: 0
Flags: HMW
LayerCount: 2
Fore
SplineSet
82 700 m 1
 137 700 l 1
 137 0 l 1
 82 0 l 1
 82 700 l 1
EndSplineSet
EndChar

StartChar: C
Encoding: 67 67 3
Width: 685
VWidth: 0
Flags: HMW
LayerCount: 2
Fore
SplineSet
102.8 350 m 0
 102.8 172.2 228.4 46.6 386 46.6 c 0
 485 46.6 558.4 82.6 611 142.6 c 1
 611 69 l 1
 552 17 488 -9.2 386 -9.2 c 0
 192 -9.2 44 141 44 350 c 0
 44 559 192 709.2 386 709.2 c 0
 488 709.2 552 683 611 631 c 1
 611 557.8 l 1
 559.2 617.4 483 653.4 386 653.4 c 0
 228.8 653.4 102.8 529 102.8 350 c 0
EndSplineSet
EndChar

StartChar: E
Encoding: 69 69 4
Width: 534
VWidth: 0
Flags: HMW
LayerCount: 2
Fore
SplineSet
113 0 m 1
 113 52 l 1
 460 52 l 1
 460 0 l 1
 113 0 l 1
113 648 m 1
 113 700 l 1
 460 700 l 1
 460 648 l 1
 113 648 l 1
113 357.6 m 1
 113 409.6 l 1
 440 409.6 l 1
 440 357.6 l 1
 113 357.6 l 1
84 700 m 1
 139.4 700 l 1
 139.4 0 l 1
 84 0 l 1
 84 700 l 1
EndSplineSet
EndChar

StartChar: F
Encoding: 70 70 6
Width: 480
VWidth: 0
Flags: HMW
LayerCount: 2
Fore
SplineSet
113.4 647.6 m 1
 113.4 700 l 1
 420 700 l 1
 420 647.6 l 1
 113.4 647.6 l 1
113.4 353.2 m 1
 113.4 405.2 l 1
 410 405.2 l 1
 410 353.2 l 1
 113.4 353.2 l 1
84 700 m 1
 139.4 700 l 1
 139.4 0 l 1
 84 0 l 1
 84 700 l 1
EndSplineSet
EndChar

StartChar: G
Encoding: 71 71 7
Width: 771
VWidth: 0
Flags: HMW
LayerCount: 2
Fore
SplineSet
411 297 m 1
 411 349 l 1
 722 349 l 1
 722 159 599 -9.2 393 -9.2 c 0
 193 -9.2 44 141 44 350 c 0
 44 559 193 709.2 393 709.2 c 0
 522 709.2 618.8 652 678.8 559 c 1
 638.8 523.6 l 1
 592.4 601.2 506 653.8 393 653.8 c 0
 227.8 653.8 102.4 529 102.4 350 c 0
 102.4 172.2 227.4 46.2 393 46.2 c 0
 550 46.2 647 161.6 662.4 297 c 1
 411 297 l 1
EndSplineSet
EndChar

StartChar: T
Encoding: 84 84 8
Width: 451
VWidth: 0
Flags: HMW
LayerCount: 2
Fore
SplineSet
14 647.6 m 1
 14 700 l 1
 437.4 700 l 1
 437.4 647.6 l 1
 253.4 647.6 l 1
 253.4 0 l 1
 198 0 l 1
 198 647.6 l 1
 14 647.6 l 1
EndSplineSet
EndChar

StartChar: L
Encoding: 76 76 9
Width: 442
VWidth: 0
Flags: HMW
LayerCount: 2
Fore
SplineSet
84 700 m 1
 139 700 l 1
 139 52 l 1
 428 52 l 1
 428 0 l 1
 84 0 l 1
 84 700 l 1
EndSplineSet
EndChar

StartChar: D
Encoding: 68 68 10
Width: 662
VWidth: 0
Flags: HMW
LayerCount: 2
Fore
SplineSet
84 700 m 1
 139.4 700 l 1
 139.4 0 l 1
 84 0 l 1
 84 700 l 1
274 0 m 2
 114.2 0 l 1
 114.2 55.4 l 1
 274 55.4 l 2
 448.8 55.4 562.6 170.6 562.6 350 c 0
 562.6 529 448.8 644.6 274 644.6 c 2
 114.2 644.6 l 1
 114.2 700 l 1
 274 700 l 2
 478 700 618 559 618 350 c 0
 618 141 478 0 274 0 c 2
EndSplineSet
EndChar

StartChar: Q
Encoding: 81 81 11
Width: 782
VWidth: 0
Flags: HMW
LayerCount: 2
Fore
SplineSet
102.4 350 m 0
 102.4 174.8 223.6 46.2 391.8 46.2 c 0
 560 46.2 681.2 174.8 681.2 350 c 0
 681.2 525.2 560 653.8 391.8 653.8 c 0
 223.6 653.8 102.4 525.2 102.4 350 c 0
44 350 m 0
 44 556 191.8 709.2 391.8 709.2 c 0
 591.8 709.2 739.6 556 739.6 350 c 0
 739.6 144 591.8 -9.2 391.8 -9.2 c 0
 191.8 -9.2 44 144 44 350 c 0
387.4 300 m 1
 459.8 300 l 1
 767.8 0 l 1
 695.4 0 l 1
 387.4 300 l 1
EndSplineSet
EndChar

StartChar: A
Encoding: 65 65 12
Width: 636
VWidth: 0
Flags: HMW
LayerCount: 2
Fore
SplineSet
139.8 234.8 m 1
 157.8 286.8 l 1
 481 286.8 l 1
 499 234.8 l 1
 139.8 234.8 l 1
318 600.4 m 1
 181.6 269.2 l 1
 176.4 256.8 l 1
 70.8 0 l 1
 9 0 l 1
 318 727 l 1
 627 0 l 1
 565.2 0 l 1
 461.2 253.2 l 1
 456 266.4 l 1
 318 600.4 l 1
EndSplineSet
EndChar

StartChar: R
Encoding: 82 82 13
Width: 523
VWidth: 0
Flags: HMW
LayerCount: 2
Fore
SplineSet
202.6 333.8 m 1
 264.4 333.8 l 1
 503.2 0 l 1
 434.6 0 l 1
 202.6 333.8 l 1
84 700 m 1
 139.4 700 l 1
 139.4 0 l 1
 84 0 l 1
 84 700 l 1
113 650.6 m 1
 113 700 l 1
 244 700 l 2
 379 700 481.2 625.8 481.2 496.8 c 0
 481.2 367.8 379 293.6 244 293.6 c 2
 113 293.6 l 1
 113 342.6 l 1
 244 342.6 l 2
 350.8 342.6 425.8 396 425.8 496.8 c 0
 425.8 597.6 350.4 650.6 244 650.6 c 2
 113 650.6 l 1
EndSplineSet
EndChar

StartChar: V
Encoding: 86 86 14
Width: 636
VWidth: 0
Flags: HMW
LayerCount: 2
Fore
SplineSet
318 100.8 m 1
 564.8 700 l 1
 627 700 l 1
 318 -27 l 1
 9 700 l 1
 71.2 700 l 1
 318 100.8 l 1
EndSplineSet
EndChar

StartChar: M
Encoding: 77 77 15
Width: 818
VWidth: 0
Flags: HMW
LayerCount: 2
Fore
SplineSet
163 553.8 m 1
 103.4 0 l 1
 48 0 l 1
 129 727 l 1
 409 189.2 l 1
 689 727 l 1
 770 0 l 1
 714.6 0 l 1
 655 553.8 l 1
 409 81 l 1
 163 553.8 l 1
EndSplineSet
EndChar

StartChar: W
Encoding: 87 87 16
Width: 974
VWidth: 0
Flags: HMW
LayerCount: 2
Fore
SplineSet
698 115.4 m 1
 898.6 700 l 1
 960 700 l 1
 701 -27 l 1
 487 576.2 l 1
 273 -27 l 1
 14 700 l 1
 75.4 700 l 1
 276 115.4 l 1
 487 727 l 1
 698 115.4 l 1
EndSplineSet
EndChar

StartChar: N
Encoding: 78 78 17
Width: 755
VWidth: 0
Flags: HMW
LayerCount: 2
Fore
SplineSet
615.6 700 m 1
 671 700 l 1
 671 -27 l 1
 139.4 583.8 l 1
 139.4 0 l 1
 84 0 l 1
 84 727 l 1
 615.6 114.2 l 1
 615.6 700 l 1
EndSplineSet
EndChar

StartChar: a
Encoding: 97 97 18
Width: 465
VWidth: 0
Flags: HMW
LayerCount: 2
Fore
SplineSet
86.6 135 m 0
 86.6 66.4 141.6 36.6 202 36.6 c 0
 286 36.6 349 86 349 172 c 1
 360.6 142 l 1
 360.6 53 287.8 -10 190 -10 c 0
 107.8 -10 34 35.2 34 133.2 c 0
 34 230.2 115 284 224 284 c 0
 308 284 353.2 246.4 370 229 c 1
 370 196.8 l 1
 333.4 224.8 288.4 243.4 226.4 243.4 c 0
 144.6 243.4 86.6 205.4 86.6 135 c 0
100.2 369.2 m 1
 74 409 l 1
 107.6 436.4 163 470 242 470 c 0
 341 470 401 415 401 326 c 2
 401 0 l 1
 349 0 l 1
 349 326 l 2
 349 388 305.2 424 242 424 c 0
 176 424 128.2 392.8 100.2 369.2 c 1
EndSplineSet
Substitution2: "alt a" a.alt
EndChar

StartChar: X
Encoding: 88 88 19
Width: 533
VWidth: 0
Flags: HMW
LayerCount: 2
Fore
SplineSet
438.4 700 m 1
 504 700 l 1
 297.4 367 l 1
 519 0 l 1
 453.4 0 l 1
 268.8 318.2 l 1
 79.6 0 l 1
 14 0 l 1
 241.2 367 l 1
 39 700 l 1
 104.6 700 l 1
 269.8 415.4 l 1
 438.4 700 l 1
EndSplineSet
EndChar

StartChar: K
Encoding: 75 75 20
Width: 520
VWidth: 0
Flags: HMW
LayerCount: 2
Fore
SplineSet
82 700 m 1
 137.4 700 l 1
 137.4 0 l 1
 82 0 l 1
 82 700 l 1
427.2 700 m 1
 496.6 700 l 1
 188.8 372 l 1
 511.6 0 l 1
 441.8 0 l 1
 121 370.8 l 1
 427.2 700 l 1
EndSplineSet
EndChar

StartChar: Y
Encoding: 89 89 21
Width: 539
VWidth: 0
Flags: HMW
LayerCount: 2
Fore
SplineSet
468.2 700 m 1
 530.4 700 l 1
 295.4 288 l 1
 295.4 0 l 1
 240 0 l 1
 240 287 l 1
 9 700 l 1
 71.2 700 l 1
 267.2 338 l 1
 468.2 700 l 1
EndSplineSet
EndChar

StartChar: B
Encoding: 66 66 22
Width: 532
VWidth: 0
Flags: HMW
LayerCount: 2
Fore
SplineSet
127 376.4 m 1
 127 407.8 l 1
 236 407.8 l 2
 318 407.8 384.6 446 384.6 528 c 0
 384.6 605.2 326 650.6 236 650.6 c 2
 139 650.6 l 1
 139 49.4 l 1
 246 49.4 l 2
 352 49.4 423.4 102 423.4 206 c 0
 423.4 304 340 359.4 246 359.4 c 2
 127 359.4 l 1
 127 390.8 l 1
 250 390.8 l 2
 365 390.8 478.8 332 478.8 203 c 0
 478.8 64 381 0 246 0 c 2
 84 0 l 1
 84 700 l 1
 236 700 l 2
 361 700 440 642 440 531 c 0
 440 428 357 376.4 240 376.4 c 2
 127 376.4 l 1
EndSplineSet
EndChar

StartChar: Z
Encoding: 90 90 23
Width: 541
VWidth: 0
Flags: HMW
LayerCount: 2
Fore
SplineSet
37 647.6 m 1
 37 700 l 1
 523 700 l 1
 111 52.4 l 1
 507 52.4 l 1
 507 0 l 1
 17 0 l 1
 429 647.6 l 1
 37 647.6 l 1
EndSplineSet
EndChar

StartChar: o
Encoding: 111 111 24
Width: 550
VWidth: 0
Flags: HMW
LayerCount: 2
Fore
SplineSet
39 230 m 0
 39 369 141.2 470 275 470 c 0
 408.8 470 511 369 511 230 c 0
 511 91 408.8 -10 275 -10 c 0
 141.2 -10 39 91 39 230 c 0
91.6 230 m 0
 91.6 118.8 171 39 275 39 c 0
 379 39 458.4 118.8 458.4 230 c 0
 458.4 341.2 379 421 275 421 c 0
 171 421 91.6 341.2 91.6 230 c 0
EndSplineSet
EndChar

StartChar: J
Encoding: 74 74 25
Width: 222
VWidth: 0
Flags: HMW
LayerCount: 2
Fore
SplineSet
-91 -125.6 m 1
 -73 -149 -39.6 -167.6 0.4 -167.6 c 0
 54 -167.6 86.4 -136 86.4 -50 c 2
 86.4 700 l 1
 138.8 700 l 1
 138.8 -60 l 2
 138.8 -169 91.8 -220 -2.2 -220 c 0
 -55.2 -220 -105.2 -188 -120.2 -168 c 1
 -91 -125.6 l 1
EndSplineSet
EndChar

StartChar: t
Encoding: 116 116 26
Width: 220
VWidth: 0
Flags: HMW
LayerCount: 2
Fore
SplineSet
9 460 m 1
 211 460 l 1
 211 411 l 1
 9 411 l 1
 9 460 l 1
84 620 m 1
 136 620 l 1
 136 0 l 1
 84 0 l 1
 84 620 l 1
EndSplineSet
EndChar

StartChar: d
Encoding: 100 100 27
Width: 558
VWidth: 0
Flags: HMW
LayerCount: 2
Fore
SplineSet
432.4 780 m 1
 484.4 780 l 1
 484.4 0 l 1
 432.4 0 l 1
 432.4 780 l 1
39 230 m 0
 39 378.2 138 470 261 470 c 0
 379.2 470 456 367 456 230 c 0
 456 93 379.2 -10 261 -10 c 0
 138 -10 39 81.8 39 230 c 0
91.6 230 m 0
 91.6 110 170.8 39 268.2 39 c 0
 353.8 39 432.4 120 432.4 230 c 0
 432.4 340 353.8 421 268.2 421 c 0
 170.8 421 91.6 350 91.6 230 c 0
EndSplineSet
EndChar

StartChar: l
Encoding: 108 108 28
Width: 210
VWidth: 0
Flags: HMW
LayerCount: 2
Fore
SplineSet
79 780 m 1
 131 780 l 1
 131 0 l 1
 79 0 l 1
 79 780 l 1
EndSplineSet
EndChar

StartChar: i
Encoding: 105 105 29
Width: 232
VWidth: 0
Flags: HMW
LayerCount: 2
Fore
SplineSet
79 668 m 0
 79 688.4 95.2 705 116 705 c 0
 136.8 705 153 688.4 153 668 c 0
 153 647.6 136.8 631 116 631 c 0
 95.2 631 79 647.6 79 668 c 0
90 460 m 1
 142 460 l 1
 142 0 l 1
 90 0 l 1
 90 460 l 1
EndSplineSet
EndChar

StartChar: r
Encoding: 114 114 30
Width: 321
VWidth: 0
Flags: HMW
LayerCount: 2
Fore
SplineSet
131 460 m 1
 131 0 l 1
 79 0 l 1
 79 460 l 1
 131 460 l 1
284 399.2 m 1
 264 413.6 247.6 421 224 421 c 0
 156 421 131 358 131 280 c 1
 107.4 280 l 1
 107.4 389 163 470 236 470 c 0
 265 470 291.6 461.8 312.8 442 c 1
 284 399.2 l 1
EndSplineSet
EndChar

StartChar: c
Encoding: 99 99 31
Width: 482
VWidth: 0
Flags: HMW
LayerCount: 2
Fore
SplineSet
86.6 230 m 0
 86.6 118.8 166 39 270 39 c 0
 344 39 407 77.2 428 113.8 c 1
 428 48.6 l 1
 400 15.8 337 -10 270 -10 c 0
 136.2 -10 34 91 34 230 c 0
 34 369 136.2 470 270 470 c 0
 337 470 400 443.2 428 411.4 c 1
 428 346.2 l 1
 407 382.8 344 421 270 421 c 0
 166 421 86.6 341.2 86.6 230 c 0
EndSplineSet
EndChar

StartChar: b
Encoding: 98 98 32
Width: 558
VWidth: 0
Flags: HMW
LayerCount: 2
Fore
SplineSet
126 780 m 1
 126 0 l 1
 74 0 l 1
 74 780 l 1
 126 780 l 1
519.4 230 m 0
 519.4 81.8 420.4 -10 297.4 -10 c 0
 179.2 -10 102.4 93 102.4 230 c 0
 102.4 367 179.2 470 297.4 470 c 0
 420.4 470 519.4 378.2 519.4 230 c 0
466.8 230 m 0
 466.8 350 387.6 421 290.2 421 c 0
 204.6 421 126 340 126 230 c 0
 126 120 204.6 39 290.2 39 c 0
 387.6 39 466.8 110 466.8 230 c 0
EndSplineSet
EndChar

StartChar: p
Encoding: 112 112 33
Width: 558
VWidth: 0
Flags: HMW
LayerCount: 2
Fore
SplineSet
126 -220 m 1
 74 -220 l 1
 74 460 l 1
 126 460 l 1
 126 -220 l 1
519.4 230 m 0
 519.4 81.8 420.4 -10 297.4 -10 c 0
 179.2 -10 102.4 93 102.4 230 c 0
 102.4 367 179.2 470 297.4 470 c 0
 420.4 470 519.4 378.2 519.4 230 c 0
466.8 230 m 0
 466.8 350 387.6 421 290.2 421 c 0
 204.6 421 126 340 126 230 c 0
 126 120 204.6 39 290.2 39 c 0
 387.6 39 466.8 110 466.8 230 c 0
EndSplineSet
EndChar

StartChar: q
Encoding: 113 113 34
Width: 558
VWidth: 0
Flags: HMW
LayerCount: 2
Fore
SplineSet
432.4 -220 m 1
 432.4 460 l 1
 484.4 460 l 1
 484.4 -220 l 1
 432.4 -220 l 1
39 230 m 0
 39 378.2 138 470 261 470 c 0
 379.2 470 456 367 456 230 c 0
 456 93 379.2 -10 261 -10 c 0
 138 -10 39 81.8 39 230 c 0
91.6 230 m 0
 91.6 110 170.8 39 268.2 39 c 0
 353.8 39 432.4 120 432.4 230 c 0
 432.4 340 353.8 421 268.2 421 c 0
 170.8 421 91.6 350 91.6 230 c 0
EndSplineSet
EndChar

StartChar: h
Encoding: 104 104 35
Width: 505
VWidth: 0
Flags: HMW
LayerCount: 2
Fore
SplineSet
131 780 m 1
 131 0 l 1
 79 0 l 1
 79 780 l 1
 131 780 l 1
374 296 m 2
 374 374 341 421 266 421 c 0
 187.6 421 131 357.6 131 280 c 1
 113.4 280 l 1
 113.4 389 183 470 278 470 c 0
 373 470 426 409 426 302 c 2
 426 0 l 1
 374 0 l 1
 374 296 l 2
EndSplineSet
EndChar

StartChar: n
Encoding: 110 110 36
Width: 505
VWidth: 0
Flags: HMW
LayerCount: 2
Fore
SplineSet
131 460 m 1
 131 0 l 1
 79 0 l 1
 79 460 l 1
 131 460 l 1
374 296 m 2
 374 374 341 421 266 421 c 0
 187.6 421 131 357.6 131 280 c 1
 113.4 280 l 1
 113.4 389 183 470 278 470 c 0
 373 470 426 409 426 302 c 2
 426 0 l 1
 374 0 l 1
 374 296 l 2
EndSplineSet
EndChar

StartChar: m
Encoding: 109 109 37
Width: 744
VWidth: 0
Flags: HMW
LayerCount: 2
Fore
SplineSet
346 296 m 2
 346 374 319 421 252 421 c 0
 182 421 131 358 131 280 c 1
 113.4 280 l 1
 113.4 389 177 470 264 470 c 0
 351 470 398 409 398 302 c 2
 398 0 l 1
 346 0 l 1
 346 296 l 2
131 460 m 1
 131 0 l 1
 79 0 l 1
 79 460 l 1
 131 460 l 1
665 302 m 2
 665 0 l 1
 613 0 l 1
 613 296 l 2
 613 374 586 421 519 421 c 0
 448.6 421 398 357.6 398 280 c 1
 370.6 280 l 1
 370.6 389 444 470 531 470 c 0
 618 470 665 409 665 302 c 2
EndSplineSet
EndChar

StartChar: k
Encoding: 107 107 38
Width: 412
VWidth: 0
Flags: HMW
LayerCount: 2
Fore
SplineSet
74 780 m 1
 126 780 l 1
 126 0 l 1
 74 0 l 1
 74 780 l 1
323.2 460 m 1
 389.6 460 l 1
 172.8 270 l 1
 408.8 0 l 1
 343.2 0 l 1
 107.2 270 l 1
 323.2 460 l 1
EndSplineSet
EndChar

StartChar: u
Encoding: 117 117 39
Width: 505
VWidth: 0
Flags: HMW
LayerCount: 2
Fore
SplineSet
374 0 m 1
 374 460 l 1
 426 460 l 1
 426 0 l 1
 374 0 l 1
131 168 m 2
 131 86 164 39 239 39 c 0
 317.4 39 374 102.4 374 180 c 1
 391.6 180 l 1
 391.6 71 322 -10 227 -10 c 0
 132 -10 79 51 79 162 c 2
 79 460 l 1
 131 460 l 1
 131 168 l 2
EndSplineSet
EndChar

StartChar: e
Encoding: 101 101 40
Width: 509
VWidth: 0
Flags: HMW
LayerCount: 2
Fore
SplineSet
72.4 217.2 m 1
 72.4 262 l 1
 414.2 262 l 1
 413 356.4 349.4 424 259.8 424 c 0
 171 424 92.8 358 92.8 248.8 c 1
 91.6 230.8 l 1
 91.6 114.4 160.2 39 257.8 39 c 0
 345.2 39 390 84.4 420.6 134 c 1
 462.8 107 l 1
 423.2 45.8 373.2 -10 251.8 -10 c 0
 130.8 -10 39 91.8 39 230.8 c 0
 39 251.8 40.8 271.4 45.4 290.6 c 0
 67.6 396.4 149.2 470 259.8 470 c 0
 379.8 470 470.8 379 470.8 242 c 0
 470.8 234 470.4 225.2 469.4 217.2 c 1
 72.4 217.2 l 1
EndSplineSet
EndChar

StartChar: g
Encoding: 103 103 41
Width: 558
VWidth: 0
Flags: HMW
LayerCount: 2
Fore
SplineSet
50.4 -30 m 1
 103 -30 l 1
 103 -116 167.2 -181 264 -181 c 0
 348.8 -181 432.4 -121.6 432.4 10 c 2
 432.4 460 l 1
 484.4 460 l 1
 484.4 10 l 2
 484.4 -149 379 -230 264 -230 c 0
 137 -230 50.4 -149 50.4 -30 c 1
39 230 m 0
 39 378.2 138 470 261 470 c 0
 379.2 470 456 367 456 230 c 0
 456 93 379.2 -10 261 -10 c 0
 138 -10 39 81.8 39 230 c 0
91.6 230 m 0
 91.6 110 170.8 39 268.2 39 c 0
 354.2 39 432.4 120 432.4 232 c 0
 432.4 338 354.2 421 268.2 421 c 0
 170.8 421 91.6 350 91.6 230 c 0
EndSplineSet
EndChar

StartChar: f
Encoding: 102 102 42
Width: 282
VWidth: 0
Flags: HMW
LayerCount: 2
Fore
SplineSet
44 460 m 1
 260 460 l 1
 260 411 l 1
 44 411 l 1
 44 460 l 1
269.6 703.6 m 1
 254.8 725.4 233.4 737.2 209 737.2 c 0
 159 737.2 141 694 141 632 c 2
 141 0 l 1
 89 0 l 1
 89 638 l 2
 89 731 128 789.2 212 789.2 c 0
 255 789.2 283.8 766 298.8 746 c 1
 269.6 703.6 l 1
EndSplineSet
EndChar

StartChar: s
Encoding: 115 115 43
Width: 403
VWidth: 0
Flags: HMW
LayerCount: 2
Fore
SplineSet
72.8 156 m 1
 97.6 94 143 39 208.2 39 c 0
 262.8 39 302.8 67.2 302.8 119.4 c 0
 302.8 174.6 249.4 198.4 190.4 219 c 0
 123.4 242.4 59.2 264.2 59.2 351.2 c 0
 59.2 431.2 127.4 469.2 200.6 469.2 c 0
 276.4 469.2 329.8 426.2 353.8 375.2 c 1
 311.4 349.4 l 1
 291.4 387.2 252.2 421.4 201.2 421.4 c 0
 151.2 421.4 110 400.6 110 353 c 0
 110 294.2 170.2 278.6 228.8 258 c 0
 294.2 234.2 356.6 199.8 356.6 124.8 c 0
 356.6 33.8 293.2 -10 208.2 -10 c 0
 115.2 -10 57 56.4 31 131.4 c 1
 72.8 156 l 1
EndSplineSet
EndChar

StartChar: y
Encoding: 121 121 44
Width: 434
VWidth: 0
Flags: HMW
LayerCount: 2
Fore
SplineSet
430 460 m 1
 130 -220 l 1
 71.6 -220 l 1
 189.6 47 l 1
 4 460 l 1
 65.8 460 l 1
 233 68 l 1
 208.8 70.4 l 1
 371.6 460 l 1
 430 460 l 1
EndSplineSet
EndChar

StartChar: w
Encoding: 119 119 45
Width: 656
VWidth: 0
Flags: HMW
LayerCount: 2
Fore
SplineSet
9 460 m 1
 67 460 l 1
 190.8 103.8 l 1
 323 487 l 1
 464.6 102.6 l 1
 589 460 l 1
 647 460 l 1
 468.2 -27 l 1
 323.6 356.4 l 1
 187.8 -27 l 1
 9 460 l 1
EndSplineSet
EndChar

StartChar: v
Encoding: 118 118 46
Width: 432
VWidth: 0
Flags: HMW
LayerCount: 2
Fore
SplineSet
4 460 m 1
 62.8 460 l 1
 216 85 l 1
 369.2 460 l 1
 428 460 l 1
 216 -27 l 1
 4 460 l 1
EndSplineSet
EndChar

StartChar: x
Encoding: 120 120 47
Width: 404
VWidth: 0
Flags: HMW
LayerCount: 2
Fore
SplineSet
330 460 m 1
 389.6 460 l 1
 230.6 237 l 1
 400 0 l 1
 340 0 l 1
 202 196 l 1
 64 0 l 1
 4 0 l 1
 173.4 237 l 1
 14 460 l 1
 74 460 l 1
 202 278 l 1
 330 460 l 1
EndSplineSet
EndChar

StartChar: z
Encoding: 122 122 48
Width: 448
VWidth: 0
Flags: HMW
LayerCount: 2
Fore
SplineSet
331.6 411 m 1
 43 411 l 1
 43 460 l 1
 427 460 l 1
 112.4 49 l 1
 419 49 l 1
 419 0 l 1
 17 0 l 1
 331.6 411 l 1
EndSplineSet
EndChar

StartChar: j
Encoding: 106 106 49
Width: 222
VWidth: 0
Flags: HMW
LayerCount: 2
Fore
SplineSet
69 668 m 0
 69 688.4 85.2 705 106 705 c 0
 126.8 705 143 688.4 143 668 c 0
 143 647.6 126.8 631 106 631 c 0
 85.2 631 69 647.6 69 668 c 0
-48.6 -134.4 m 1
 -33.8 -156.2 -12.4 -168 12 -168 c 0
 62 -168 80 -124.8 80 -62.8 c 2
 80 460 l 1
 132 460 l 1
 132 -68.8 l 2
 132 -161.8 93 -220 9 -220 c 0
 -34 -220 -62.8 -196.8 -77.8 -176.8 c 1
 -48.6 -134.4 l 1
EndSplineSet
EndChar

StartChar: P
Encoding: 80 80 50
Width: 520
VWidth: 0
Flags: HMW
LayerCount: 2
Fore
SplineSet
84 700 m 1
 139.4 700 l 1
 139.4 0 l 1
 84 0 l 1
 84 700 l 1
115 648 m 1
 115 700 l 1
 248 700 l 2
 379 700 476.8 621.8 476.8 492.8 c 0
 476.8 363.8 379 285.6 248 285.6 c 2
 115 285.6 l 1
 115 337.6 l 1
 248 337.6 l 2
 350 337.6 421.4 392 421.4 492.8 c 0
 421.4 593.6 350 648 248 648 c 2
 115 648 l 1
EndSplineSet
EndChar

StartChar: U
Encoding: 85 85 51
Width: 606
VWidth: 0
Flags: HMW
LayerCount: 2
Fore
SplineSet
79 700 m 1
 134.4 700 l 1
 134.4 226 l 2
 134.4 114 195 42.4 303 42.4 c 0
 411 42.4 471.6 114 471.6 226 c 2
 471.6 700 l 1
 527 700 l 1
 527 226 l 2
 527 87 444 -10 303 -10 c 0
 162 -10 79 87 79 226 c 2
 79 700 l 1
EndSplineSet
EndChar

StartChar: S
Encoding: 83 83 52
Width: 524
VWidth: 0
Flags: HMW
LayerCount: 2
Fore
SplineSet
87.2 214.4 m 1
 123.2 121.6 178.4 43.2 279 43.2 c 0
 379 43.2 421.8 98.6 421.8 179.8 c 0
 421.8 275 335.8 317.8 257.4 346.4 c 0
 183.4 373 77 417.4 77 538 c 0
 77 640 156 709.2 268 709.2 c 0
 381 709.2 442.6 633 472 556 c 1
 426.6 527.6 l 1
 401 589.2 351.2 656.2 262.6 656.2 c 0
 184.6 656.2 134.8 608.4 134.8 537.4 c 0
 134.8 456.6 219.8 416.4 304.8 384.8 c 0
 381.8 356.6 479 303.4 479 184 c 0
 479 73 409 -9.2 276 -9.2 c 0
 157 -9.2 78 79.2 40 187 c 1
 87.2 214.4 l 1
EndSplineSet
EndChar

StartChar: at
Encoding: 64 64 53
Width: 770
VWidth: 0
Flags: HMW
LayerCount: 2
Fore
SplineSet
246 320 m 0
 246 252 283 207.6 344 207.6 c 0
 408 207.6 475 264 475 370 c 0
 475 434 436 482.8 378 482.8 c 0
 313 482.8 246 424 246 320 c 0
196 318.2 m 0
 196 457.2 293 529.2 378 529.2 c 0
 459 529.2 500.6 451.8 500.6 368.8 c 0
 500.6 241.8 423.8 161.2 332.8 161.2 c 0
 259 161.2 196 219.2 196 318.2 c 0
35 320 m 0
 35 539 191 709.2 415 709.2 c 0
 625 709.2 735 549 735 390 c 0
 735 220 631 150.8 556 150.8 c 0
 495 150.8 460.8 204 472.4 278 c 1
 467.4 278 l 1
 505 520 l 1
 554.8 520 l 1
 513.8 289 l 2
 512.8 282 511.8 266.8 511.8 258.8 c 0
 511.8 230.8 518.6 194.8 562 194.8 c 0
 609.2 194.8 688.6 256 688.6 390 c 0
 688.6 531 595 665.8 415 665.8 c 0
 214.6 665.8 81.4 516.2 81.4 320 c 0
 81.4 145 187.8 34.2 361 34.2 c 0
 446.6 34.2 516.8 51.8 578.4 88.6 c 1
 601.8 50.4 l 1
 541.8 17.2 475 -9.2 361 -9.2 c 0
 151 -9.2 35 121 35 320 c 0
EndSplineSet
EndChar

StartChar: period
Encoding: 46 46 54
Width: 284
VWidth: 0
Flags: HMW
LayerCount: 2
Fore
SplineSet
104.6 24.4 m 0
 104.6 45.2 121.6 61.8 142 61.8 c 0
 162.4 61.8 179.4 45.2 179.4 24.4 c 0
 179.4 3.6 162.4 -13 142 -13 c 0
 121.6 -13 104.6 3.6 104.6 24.4 c 0
EndSplineSet
EndChar

StartChar: comma
Encoding: 44 44 55
Width: 295
VWidth: 0
Flags: HMW
LayerCount: 2
Fore
SplineSet
158.8 103.6 m 1
 211.2 83.6 l 1
 101.2 -166.4 l 1
 64 -153 l 1
 158.8 103.6 l 1
EndSplineSet
EndChar

StartChar: colon
Encoding: 58 58 56
Width: 300
VWidth: 0
Flags: HMW
LayerCount: 2
Fore
SplineSet
104.6 24.4 m 0
 104.6 45.2 121.6 61.8 142 61.8 c 0
 162.4 61.8 179.4 45.2 179.4 24.4 c 0
 179.4 3.6 162.4 -13 142 -13 c 0
 121.6 -13 104.6 3.6 104.6 24.4 c 0
104.6 391.6 m 0
 104.6 412.4 121.6 429 142 429 c 0
 162.4 429 179.4 412.4 179.4 391.6 c 0
 179.4 370.8 162.4 354.2 142 354.2 c 0
 121.6 354.2 104.6 370.8 104.6 391.6 c 0
EndSplineSet
EndChar

StartChar: semicolon
Encoding: 59 59 57
Width: 308
VWidth: 0
Flags: HMW
LayerCount: 2
Fore
SplineSet
134.6 391.6 m 0
 134.6 412.4 151.6 429 172 429 c 0
 192.4 429 209.4 412.4 209.4 391.6 c 0
 209.4 370.8 192.4 354.2 172 354.2 c 0
 151.6 354.2 134.6 370.8 134.6 391.6 c 0
158.8 103.6 m 1
 211.2 83.6 l 1
 101.2 -166.4 l 1
 64 -153 l 1
 158.8 103.6 l 1
EndSplineSet
EndChar

StartChar: quotedbl
Encoding: 34 34 58
Width: 440
VWidth: 0
Flags: HMW
LayerCount: 2
Fore
SplineSet
134 700 m 1
 196.2 700 l 1
 119.8 408 l 1
 84 408 l 1
 134 700 l 1
314 700 m 1
 376.2 700 l 1
 299.8 408 l 1
 264 408 l 1
 314 700 l 1
EndSplineSet
EndChar

StartChar: exclam
Encoding: 33 33 59
Width: 284
VWidth: 0
Flags: HMW
LayerCount: 2
Fore
SplineSet
109.6 700 m 1
 175.2 700 l 1
 161.6 200 l 1
 123.2 200 l 1
 109.6 700 l 1
105 24.4 m 0
 105 45.2 122 61.8 142.4 61.8 c 0
 162.8 61.8 179.8 45.2 179.8 24.4 c 0
 179.8 3.6 162.8 -13 142.4 -13 c 0
 122 -13 105 3.6 105 24.4 c 0
EndSplineSet
EndChar

StartChar: quotesingle
Encoding: 39 39 60
Width: 260
VWidth: 0
Flags: HMW
LayerCount: 2
Fore
SplineSet
134 700 m 1
 196.2 700 l 1
 119.8 408 l 1
 84 408 l 1
 134 700 l 1
EndSplineSet
EndChar

StartChar: numbersign
Encoding: 35 35 61
Width: 591
VWidth: 0
Flags: HMW
LayerCount: 2
Fore
SplineSet
75 445.6 m 1
 75 489 l 1
 556.4 489 l 1
 556.4 445.6 l 1
 426 445.6 l 0
 416 445.6 l 0
 217.6 445.6 l 0
 208 445.6 l 0
 75 445.6 l 1
35 216 m 1
 35 259.4 l 1
 161.6 259.4 l 0
 173.2 259.4 l 0
 374.4 259.4 l 0
 388.8 259.4 l 0
 516.4 259.4 l 1
 516.4 216 l 1
 35 216 l 1
461 700 m 1
 510.4 700 l 1
 340.4 0 l 1
 291 0 l 1
 347.6 234.4 l 0
 351 246 l 0
 402.6 460.4 l 0
 405.4 471.6 l 0
 461 700 l 1
251 700 m 1
 300.4 700 l 1
 245.4 474 l 0
 242.6 462.8 l 0
 189.4 244 l 0
 187 232.8 l 0
 130.4 0 l 1
 81 0 l 1
 251 700 l 1
EndSplineSet
EndChar

StartChar: hyphen
Encoding: 45 45 62
Width: 210
VWidth: 0
Flags: HMW
LayerCount: 2
Fore
SplineSet
5 226 m 1
 5 275 l 1
 205 275 l 1
 205 226 l 1
 5 226 l 1
EndSplineSet
EndChar

StartChar: dollar
Encoding: 36 36 63
Width: 580
VWidth: 0
Flags: HMW
LayerCount: 2
Fore
SplineSet
254.6 818 m 1
 303 818 l 1
 303 680.8 l 1
 254.6 680.8 l 1
 254.6 818 l 1
255.4 28 m 1
 303.8 28 l 1
 303.8 -112 l 1
 255.4 -112 l 1
 255.4 28 l 1
435.6 527.6 m 1
 410 589.2 366.2 656.2 277.6 656.2 c 0
 193.6 656.2 143.8 611.4 143.8 540.4 c 0
 143.8 454.8 228.8 416.4 313.8 384.8 c 0
 391.2 356.6 488 303.4 488 184 c 0
 488 73 424 -9.2 285 -9.2 c 0
 166 -9.2 87 79.2 49 187 c 1
 96.2 214.4 l 1
 132.6 119.2 187.4 43.2 288 43.2 c 0
 388 43.2 430.8 98.6 430.8 179.8 c 0
 430.8 275 344.8 317.8 266.4 346.4 c 0
 192.4 373 86 424.6 86 544 c 0
 86 640 171 709.2 277 709.2 c 0
 390 709.2 457 627 481 556 c 1
 435.6 527.6 l 1
EndSplineSet
EndChar

StartChar: bar
Encoding: 124 124 64
Width: 248
VWidth: 0
Flags: HMW
LayerCount: 2
Fore
SplineSet
100 785 m 1
 148.4 785 l 1
 148.4 -215 l 1
 100 -215 l 1
 100 785 l 1
EndSplineSet
EndChar

StartChar: zero
Encoding: 48 48 65
Width: 580
VWidth: 0
Flags: HMW
LayerCount: 2
Fore
SplineSet
101.4 350 m 0
 101.4 177.4 172.4 42 290 42 c 0
 407.6 42 478.6 177.4 478.6 350 c 0
 478.6 522.6 407.6 658 290 658 c 0
 172.4 658 101.4 522.6 101.4 350 c 0
46 350 m 0
 46 555 142 710 290 710 c 0
 438 710 534 555 534 350 c 0
 534 145 438 -10 290 -10 c 0
 142 -10 46 145 46 350 c 0
EndSplineSet
Substitution2: "Tabular Numbers lookup" uniFF10
EndChar

StartChar: one
Encoding: 49 49 66
Width: 434
VWidth: 0
Flags: HMW
LayerCount: 2
Fore
SplineSet
86 598.8 m 1
 86 656 l 1
 302 708 l 1
 302 0 l 1
 247 0 l 1
 247 641.2 l 1
 86 598.8 l 1
EndSplineSet
Substitution2: "Tabular Numbers lookup" uniFF11
EndChar

StartChar: two
Encoding: 50 50 67
Width: 547
VWidth: 0
Flags: HMW
LayerCount: 2
Fore
SplineSet
22 0 m 1
 348.6 345.4 l 2
 395.8 395.2 430.4 444 430.4 511.2 c 0
 430.4 579.4 381.2 659 278.2 659 c 0
 176.2 659 113 580 113 460 c 1
 58 460 l 1
 58 609 141.2 711 278.2 711 c 0
 424.2 711 487 597 487 513 c 0
 487 437 445.4 369.8 392.4 315.4 c 2
 137 52 l 1
 500 52 l 1
 500 0 l 1
 22 0 l 1
EndSplineSet
Substitution2: "Tabular Numbers lookup" uniFF12
EndChar

StartChar: four
Encoding: 52 52 68
Width: 571
VWidth: 0
Flags: HMW
LayerCount: 2
Fore
SplineSet
22 140 m 1
 408 700 l 1
 429.4 700 l 1
 429.4 0 l 1
 374 0 l 1
 374 162.4 l 1
 374 171 l 1
 374 573 l 1
 113.6 189 l 1
 396.6 189 l 1
 408 189 l 1
 539 189 l 1
 539 140 l 1
 22 140 l 1
EndSplineSet
Substitution2: "Tabular Numbers lookup" uniFF14
EndChar

StartChar: slash
Encoding: 47 47 69
Width: 499
VWidth: 0
Flags: HMW
LayerCount: 2
Fore
SplineSet
431.2 700 m 1
 484 700 l 1
 67.8 -150 l 1
 15 -150 l 1
 431.2 700 l 1
EndSplineSet
EndChar

StartChar: backslash
Encoding: 92 92 70
Width: 483
VWidth: 0
Flags: HMW
LayerCount: 2
Fore
SplineSet
15 700 m 1
 71.2 700 l 1
 468 0 l 1
 411.8 0 l 1
 15 700 l 1
EndSplineSet
EndChar

StartChar: eight
Encoding: 56 56 71
Width: 534
VWidth: 0
Flags: HMW
LayerCount: 2
Fore
SplineSet
82 535 m 0
 82 630 161 710 267 710 c 0
 373 710 452 630 452 535 c 0
 452 430 370 360.2 267 360.2 c 0
 164 360.2 82 430 82 535 c 0
134.6 529 m 0
 134.6 451 203 396 267 396 c 0
 331 396 399.4 451 399.4 529 c 0
 399.4 603 344 661 267 661 c 0
 190 661 134.6 603 134.6 529 c 0
59 188 m 0
 59 309 158 382.8 267 382.8 c 0
 376 382.8 475 309 475 188 c 0
 475 79 392 -10 267 -10 c 0
 142 -10 59 79 59 188 c 0
111.6 194 m 0
 111.6 100 179 39 267 39 c 0
 355 39 422.4 100 422.4 194 c 0
 422.4 282 345 347 267 347 c 0
 189 347 111.6 282 111.6 194 c 0
EndSplineSet
Substitution2: "Tabular Numbers lookup" uniFF18
EndChar

StartChar: nine
Encoding: 57 57 72
Width: 560
VWidth: 0
Flags: HMW
LayerCount: 2
Fore
SplineSet
457.4 474 m 0
 457.4 582 384 659.8 280 659.8 c 0
 176 659.8 102.6 582 102.6 474 c 0
 102.6 370 179.6 292.2 275.6 292.2 c 0
 385.6 292.2 457.4 374 457.4 474 c 0
230 0 m 1
 161 0 l 1
 389.2 311.4 l 1
 392.8 308.4 l 1
 359.8 267.8 314 251 257 251 c 0
 143 251 50 349 50 474 c 0
 50 614 145 710 280 710 c 0
 415 710 510 614 510 474 c 0
 510 417 488.2 360.4 461.2 323.4 c 2
 230 0 l 1
EndSplineSet
Substitution2: "Tabular Numbers lookup" uniFF19
EndChar

StartChar: three
Encoding: 51 51 73
Width: 548
VWidth: 0
Flags: HMW
LayerCount: 2
Fore
SplineSet
251 351.8 m 1
 251 388 l 1
 341 388 418.8 444.6 418.8 525.8 c 0
 418.8 598.6 372.4 659.8 285.6 659.8 c 0
 203 659.8 144.6 603 144.6 526 c 1
 92 526 l 1
 92 635 170 710 285 710 c 0
 405 710 475 623 475 528 c 0
 475 425 374 351.8 251 351.8 c 1
281 -10 m 0
 146 -10 62 76 62 185 c 1
 117.6 185 l 1
 117.6 103 181 42 281 42 c 0
 377 42 438.8 101 438.8 187 c 0
 438.8 288.6 341 339 251 339 c 1
 251 375.2 l 1
 374 375.2 495 316 495 181 c 0
 495 66 406 -10 281 -10 c 0
EndSplineSet
Substitution2: "Tabular Numbers lookup" uniFF13
EndChar

StartChar: five
Encoding: 53 53 74
Width: 561
VWidth: 0
Flags: HMW
LayerCount: 2
Fore
SplineSet
510 230 m 0
 510 71 404 -10 273 -10 c 0
 152 -10 82 53 40 137 c 1
 86.8 168.4 l 1
 119.8 97.2 184.8 42 273 42 c 0
 381 42 453.2 112 453.2 230 c 0
 453.2 336 379.4 408.4 283.4 408.4 c 0
 208.4 408.4 157 385 94 327 c 1
 186 700 l 1
 516 700 l 1
 516 651 l 1
 228.4 651 l 1
 167.8 407.6 l 1
 199.6 435.8 248.4 458 305 458 c 0
 421 458 510 365 510 230 c 0
EndSplineSet
Substitution2: "Tabular Numbers lookup" uniFF15
EndChar

StartChar: six
Encoding: 54 54 75
Width: 560
VWidth: 0
Flags: HMW
LayerCount: 2
Fore
SplineSet
102.6 226 m 0
 102.6 118 176 40.2 280 40.2 c 0
 384 40.2 457.4 118 457.4 226 c 0
 457.4 330 380.4 407.8 284.4 407.8 c 0
 174.4 407.8 102.6 326 102.6 226 c 0
330 700 m 1
 399 700 l 1
 170.8 388.6 l 1
 167.2 391.6 l 1
 200.2 432.2 246 449 303 449 c 0
 417 449 510 351 510 226 c 0
 510 86 415 -10 280 -10 c 0
 145 -10 50 86 50 226 c 0
 50 283 71.8 339.6 98.8 376.6 c 2
 330 700 l 1
EndSplineSet
Substitution2: "Tabular Numbers lookup" uniFF16
EndChar

StartChar: seven
Encoding: 55 55 76
Width: 521
VWidth: 0
Flags: HMW
LayerCount: 2
Fore
SplineSet
32 648 m 1
 32 700 l 1
 514 700 l 1
 165 0 l 1
 107.2 0 l 1
 431.4 648 l 1
 32 648 l 1
EndSplineSet
Substitution2: "Tabular Numbers lookup" uniFF17
EndChar

StartChar: plus
Encoding: 43 43 77
Width: 589
VWidth: 0
Flags: HMW
LayerCount: 2
Fore
SplineSet
65 229 m 1
 65 281 l 1
 520 281 l 1
 520 229 l 1
 65 229 l 1
265 492 m 1
 320 492 l 1
 320 18 l 1
 265 18 l 1
 265 492 l 1
EndSplineSet
EndChar

StartChar: equal
Encoding: 61 61 78
Width: 615
VWidth: 0
Flags: HMW
LayerCount: 2
Fore
SplineSet
65 158 m 1
 65 207 l 1
 550 207 l 1
 550 158 l 1
 65 158 l 1
65 298 m 1
 65 347 l 1
 550 347 l 1
 550 298 l 1
 65 298 l 1
EndSplineSet
EndChar

StartChar: percent
Encoding: 37 37 79
Width: 731
VWidth: 0
Flags: HMW
LayerCount: 2
Fore
SplineSet
35 554 m 0
 35 641 96 710 189 710 c 0
 282 710 343 641 343 554 c 0
 343 467 282 398 189 398 c 0
 96 398 35 467 35 554 c 0
81.6 554 m 0
 81.6 493 122 440.6 189 440.6 c 0
 256 440.6 296.4 493 296.4 554 c 0
 296.4 615 256 667 189 667 c 0
 122 667 81.6 615 81.6 554 c 0
388 146 m 0
 388 233 449 302 542 302 c 0
 635 302 696 233 696 146 c 0
 696 59 635 -10 542 -10 c 0
 449 -10 388 59 388 146 c 0
434.6 146 m 0
 434.6 85 475 32.6 542 32.6 c 0
 609 32.6 649.4 85 649.4 146 c 0
 649.4 207 609 259 542 259 c 0
 475 259 434.6 207 434.6 146 c 0
567 700 m 1
 616.8 700 l 1
 164 0 l 1
 114.2 0 l 1
 567 700 l 1
EndSplineSet
EndChar

StartChar: ampersand
Encoding: 38 38 80
Width: 675
VWidth: 0
Flags: HMW
LayerCount: 2
Fore
SplineSet
207 401.2 m 2
 174 439.2 117 489 117 564 c 0
 117 650 180 711 280 711 c 0
 381 711 436 638 436 562 c 0
 436 495 382.8 437.8 289.8 382 c 0
 217.2 338.6 95 298 95 182 c 0
 95 91.2 168 38.4 260 38.4 c 0
 404.6 38.4 504.6 181.6 602.4 316 c 1
 642.8 290.6 l 1
 538 150.6 436 -10 257 -10 c 0
 142 -10 40 60 40 179 c 0
 40 326 186.4 374.2 254 413 c 0
 334.6 459.4 383.4 510 383.4 562 c 0
 383.4 615 349 664.4 280 664.4 c 0
 209 664.4 171.4 621 171.4 564 c 0
 171.4 508.4 211 470.2 247 429 c 2
 621.4 0 l 1
 558.6 0 l 1
 207 401.2 l 2
EndSplineSet
EndChar

StartChar: question
Encoding: 63 63 81
Width: 551
VWidth: 0
Flags: HMW
LayerCount: 2
Fore
SplineSet
430.4 508 m 0
 430.4 600 369 661 267 661 c 0
 190 661 140.8 623.6 104.6 566 c 1
 62 593 l 1
 108 663 162 710 273 710 c 0
 398 710 483 623 483 508 c 0
 483 399.8 382.4 313.2 264.6 308.8 c 1
 260.8 170 l 1
 221.6 170 l 1
 207.6 345 l 1
 223.6 345 l 2
 347.6 345 430.4 424 430.4 508 c 0
202.6 24.4 m 0
 202.6 45.2 219.6 61.8 240 61.8 c 0
 260.4 61.8 277.4 45.2 277.4 24.4 c 0
 277.4 3.6 260.4 -13 240 -13 c 0
 219.6 -13 202.6 3.6 202.6 24.4 c 0
EndSplineSet
EndChar

StartChar: parenleft
Encoding: 40 40 82
Width: 282
VWidth: 0
Flags: HMW
LayerCount: 2
Fore
SplineSet
205 780 m 1
 252 780 l 1
 180 626 148 460 148 290 c 0
 148 120 180 -46 252 -200 c 1
 205 -200 l 1
 125 -50 90 120 90 290 c 0
 90 460 125 630 205 780 c 1
EndSplineSet
EndChar

StartChar: parenright
Encoding: 41 41 83
Width: 282
VWidth: 0
Flags: HMW
LayerCount: 2
Fore
SplineSet
77 -200 m 1
 30 -200 l 1
 102 -46 134 120 134 290 c 0
 134 460 102 626 30 780 c 1
 77 780 l 1
 157 630 192 460 192 290 c 0
 192 120 157 -50 77 -200 c 1
EndSplineSet
EndChar

StartChar: asterisk
Encoding: 42 42 84
Width: 592
VWidth: 0
Flags: HMW
LayerCount: 2
Fore
SplineSet
467 593.4 m 1
 480.8 548.4 l 1
 301.2 497.4 l 1
 290.4 528.6 l 1
 467 593.4 l 1
425 375.6 m 1
 386.8 348.2 l 1
 283.2 502.8 l 1
 308.8 522.8 l 1
 425 375.6 l 1
205.2 348.2 m 1
 167 375.6 l 1
 283.2 522.8 l 1
 308.8 502.8 l 1
 205.2 348.2 l 1
111.2 548.4 m 1
 125 593.4 l 1
 301.6 528.6 l 1
 290.8 497.4 l 1
 111.2 548.4 l 1
272.6 700 m 1
 319.4 700 l 1
 312.2 513 l 1
 279.8 513 l 1
 272.6 700 l 1
EndSplineSet
EndChar

StartChar: less
Encoding: 60 60 85
Width: 640
VWidth: 0
Flags: HMW
LayerCount: 2
Fore
SplineSet
151 260 m 1
 575 79 l 1
 575 27 l 1
 65 242.6 l 1
 65 272 l 1
 575 488 l 1
 575 436 l 1
 151 260 l 1
EndSplineSet
EndChar

StartChar: greater
Encoding: 62 62 86
Width: 640
VWidth: 0
Flags: HMW
LayerCount: 2
Fore
SplineSet
489 255 m 1
 65 436 l 1
 65 488 l 1
 575 272.4 l 1
 575 243 l 1
 65 27 l 1
 65 79 l 1
 489 255 l 1
EndSplineSet
EndChar

StartChar: bracketleft
Encoding: 91 91 87
Width: 284
VWidth: 0
Flags: HMW
LayerCount: 2
Fore
SplineSet
151.8 730.6 m 1
 151.8 -170.6 l 1
 264 -170.6 l 1
 264 -220 l 1
 100 -220 l 1
 100 780 l 1
 264 780 l 1
 264 730.6 l 1
 151.8 730.6 l 1
EndSplineSet
EndChar

StartChar: bracketright
Encoding: 93 93 88
Width: 284
VWidth: 0
Flags: HMW
LayerCount: 2
Fore
SplineSet
132.2 -170.6 m 1
 132.2 730.6 l 1
 20 730.6 l 1
 20 780 l 1
 184 780 l 1
 184 -220 l 1
 20 -220 l 1
 20 -170.6 l 1
 132.2 -170.6 l 1
EndSplineSet
EndChar

StartChar: asciicircum
Encoding: 94 94 89
Width: 510
VWidth: 0
Flags: HMW
LayerCount: 2
Fore
SplineSet
255 649.8 m 1
 119 460 l 1
 65 460 l 1
 243 710 l 1
 267 710 l 1
 445 460 l 1
 391 460 l 1
 255 649.8 l 1
EndSplineSet
EndChar

StartChar: underscore
Encoding: 95 95 90
Width: 500
VWidth: 0
Flags: HMW
LayerCount: 2
Fore
SplineSet
0 -123.4 m 1
 0 -86 l 1
 500 -86 l 1
 500 -123.4 l 1
 0 -123.4 l 1
EndSplineSet
EndChar

StartChar: grave
Encoding: 96 96 91
Width: 366
VWidth: 0
Flags: HMW
LayerCount: 2
Fore
SplineSet
85 672.8 m 1
 133.2 700 l 1
 291.2 540 l 1
 262.2 520 l 1
 85 672.8 l 1
EndSplineSet
EndChar

StartChar: braceleft
Encoding: 123 123 92
Width: 299
VWidth: 0
Flags: HMW
LayerCount: 2
Fore
SplineSet
166 652 m 2
 166 466 l 2
 166 377 148 283.2 71 283.2 c 1
 71 296.8 l 1
 148 296.8 166 203 166 114 c 2
 166 -72 l 2
 166 -126 184 -154 228 -154 c 2
 257 -154 l 1
 257 -200 l 1
 213 -200 l 2
 157 -200 114 -159 114 -60 c 2
 114 150 l 2
 114 226 92 260 62 270 c 1
 62 310 l 1
 92 320 114 354 114 430 c 2
 114 640 l 2
 114 739 157 780 213 780 c 2
 257 780 l 1
 257 734 l 1
 228 734 l 2
 184 734 166 706 166 652 c 2
EndSplineSet
EndChar

StartChar: braceright
Encoding: 125 125 93
Width: 299
VWidth: 0
Flags: HMW
LayerCount: 2
Fore
SplineSet
138.4 -72 m 2
 138.4 114 l 2
 138.4 203 156.4 296.8 233.4 296.8 c 1
 233.4 283.2 l 1
 156.4 283.2 138.4 377 138.4 466 c 2
 138.4 652 l 2
 138.4 706 120.4 734 76.4 734 c 2
 47.4 734 l 1
 47.4 780 l 1
 91.4 780 l 2
 147.4 780 190.4 739 190.4 640 c 2
 190.4 430 l 2
 190.4 354 212.4 320 242.4 310 c 1
 242.4 270 l 1
 212.4 260 190.4 226 190.4 150 c 2
 190.4 -60 l 2
 190.4 -159 147.4 -200 91.4 -200 c 2
 47.4 -200 l 1
 47.4 -154 l 1
 76.4 -154 l 2
 120.4 -154 138.4 -126 138.4 -72 c 2
EndSplineSet
EndChar

StartChar: asciitilde
Encoding: 126 126 94
Width: 575
VWidth: 0
Flags: HMW
LayerCount: 2
Fore
SplineSet
120.4 176.8 m 1
 72 181 l 1
 70 188 69 196 69 205 c 0
 69 230.8 75.8 257.8 93.8 281 c 0
 117 311.2 150.4 327 190 327 c 0
 237 327 275 299.4 311 267.4 c 0
 338.6 242 365.6 221 395.6 221 c 0
 436.6 221 455.6 249.6 455.6 293.6 c 0
 455.6 301.6 454.6 312.2 450.6 322.2 c 1
 502 318 l 1
 504 310 506 300 506 290 c 0
 506 265.2 500.6 236.4 484 214.2 c 0
 462 185 432.8 172 398 172 c 0
 356 172 322 197.2 285 229.2 c 0
 257 254.2 226.4 278.6 189.4 278.6 c 0
 142.6 278.6 116.4 247 116.4 198.8 c 0
 116.4 191.8 117.4 184.8 120.4 176.8 c 1
EndSplineSet
EndChar

StartChar: exclamdown
Encoding: 161 161 95
Width: 300
VWidth: 0
Flags: HMW
LayerCount: 2
Fore
SplineSet
190.4 -245 m 1
 124.8 -245 l 1
 138.4 255 l 1
 176.8 255 l 1
 190.4 -245 l 1
195 430.6 m 0
 195 409.8 178 393.2 157.6 393.2 c 0
 137.2 393.2 120.2 409.8 120.2 430.6 c 0
 120.2 451.4 137.2 468 157.6 468 c 0
 178 468 195 451.4 195 430.6 c 0
EndSplineSet
EndChar

StartChar: cent
Encoding: 162 162 96
Width: 580
VWidth: 0
Flags: HMW
LayerCount: 2
Fore
SplineSet
294.4 21.2 m 1
 334.4 21.2 l 1
 336.4 -112 l 1
 292.4 -112 l 1
 294.4 21.2 l 1
135.6 230 m 0
 135.6 120 214.2 39 319 39 c 0
 393 39 456 76.8 477 113.8 c 1
 477 48.6 l 1
 449 15.8 386 -10 319 -10 c 0
 185.2 -10 83 91 83 230 c 0
 83 369 185.2 470 319 470 c 0
 386 470 449.4 443.2 477 411.4 c 1
 477 346.2 l 1
 456 383.2 393 421 319 421 c 0
 214.2 421 135.6 340 135.6 230 c 0
292.4 578 m 1
 336.4 578 l 1
 334.4 442 l 1
 294.4 442 l 1
 292.4 578 l 1
EndSplineSet
EndChar

StartChar: sterling
Encoding: 163 163 97
Width: 580
VWidth: 0
Flags: HMW
LayerCount: 2
Fore
SplineSet
75 344 m 1
 415 344 l 1
 415 295 l 1
 75 295 l 1
 75 344 l 1
462.4 486.6 m 1
 458.8 562 417 655.6 317 655.6 c 0
 239.8 655.6 180.2 605.2 180.2 527.2 c 0
 180.2 408.4 286 374 286 264 c 0
 286 158 188.4 60.8 134.4 30 c 1
 134 52 l 1
 509 52 l 1
 509 0 l 1
 76 0 l 1
 166 102 233.4 167 233.4 255 c 0
 233.4 352.2 124 394 124 526 c 0
 124 633 202 710 317 710 c 0
 450 710 504 584 509 504 c 1
 462.4 486.6 l 1
EndSplineSet
EndChar

StartChar: currency
Encoding: 164 164 98
Width: 572
VWidth: 0
Flags: HMW
LayerCount: 2
Fore
SplineSet
45 511 m 1
 79 545 l 1
 160 463 l 1
 127 430 l 1
 45 511 l 1
79 55 m 1
 45 89 l 1
 127 170 l 1
 160 137 l 1
 79 55 l 1
449 430 m 1
 415 463 l 1
 497 545 l 1
 530 511 l 1
 449 430 l 1
415 137 m 1
 449 170 l 1
 530 89 l 1
 497 55 l 1
 415 137 l 1
52 300 m 0
 52 439 155 540 286 540 c 0
 417 540 520 439 520 300 c 0
 520 161 417 60 286 60 c 0
 155 60 52 161 52 300 c 0
104.6 300 m 0
 104.6 190 184 109 286 109 c 0
 388 109 467.4 190 467.4 300 c 0
 467.4 410 388 491 286 491 c 0
 184 491 104.6 410 104.6 300 c 0
EndSplineSet
EndChar

StartChar: yen
Encoding: 165 165 99
Width: 574
VWidth: 0
Flags: HMW
LayerCount: 2
Fore
SplineSet
39 282 m 1
 39 331 l 1
 520.8 331 l 1
 520.8 282 l 1
 39 282 l 1
39 142 m 1
 39 191 l 1
 520.8 191 l 1
 520.8 142 l 1
 39 142 l 1
480.2 700 m 1
 541.8 700 l 1
 308 289.6 l 1
 308 0 l 1
 252 0 l 1
 252 288.6 l 1
 21 700 l 1
 83.2 700 l 1
 279.6 338 l 1
 480.2 700 l 1
EndSplineSet
EndChar

StartChar: brokenbar
Encoding: 166 166 100
Width: 248
VWidth: 0
Flags: HMW
LayerCount: 2
Fore
SplineSet
100 695 m 1
 148.4 695 l 1
 148.4 455 l 1
 100 455 l 1
 100 695 l 1
148.4 245 m 1
 148.4 5 l 1
 100 5 l 1
 100 245 l 1
 148.4 245 l 1
EndSplineSet
EndChar

StartChar: section
Encoding: 167 167 101
Width: 404
VWidth: 0
Flags: HMW
LayerCount: 2
Fore
SplineSet
328.8 593.8 m 1
 308.8 636.2 254.4 660.4 206.6 660.4 c 0
 158.6 660.4 111 640 111 593 c 0
 111 543.8 188.8 517.8 239.8 496.8 c 0
 304.8 469.8 374 433 374 366 c 0
 374 275 307 240 208 240 c 1
 208 261 l 1
 274 267 320.2 309.8 320.2 361.8 c 0
 320.2 415.8 254 442 201 463 c 0
 138 488 59 516 59 593 c 0
 59 669 132 710 206 710 c 0
 279 710 352 671 370 620 c 1
 328.8 593.8 l 1
72.8 147.4 m 1
 85.2 87.4 146 39 215 39 c 0
 269 39 320.2 57.8 320.2 113.8 c 0
 320.2 175.8 255.2 198.8 198.2 222.2 c 0
 135.6 248 59 286 59 359 c 0
 59 427 112 480 226 480 c 1
 226 464.4 l 1
 150 448.4 111 410 111 365 c 0
 111 300.2 186 277 237 256 c 0
 302 229 374 193 374 118 c 0
 374 27 303 -10 212 -10 c 0
 127 -10 44 48 30 123 c 1
 72.8 147.4 l 1
EndSplineSet
EndChar

StartChar: dieresis
Encoding: 168 168 102
Width: 450
VWidth: 0
Flags: HMW
LayerCount: 2
Fore
SplineSet
288 671.6 m 0
 288 692.4 305 709 325.4 709 c 0
 345.8 709 362.8 692.4 362.8 671.6 c 0
 362.8 650.8 345.8 634.2 325.4 634.2 c 0
 305 634.2 288 650.8 288 671.6 c 0
88 671.6 m 0
 88 692.4 105 709 125.4 709 c 0
 145.8 709 162.8 692.4 162.8 671.6 c 0
 162.8 650.8 145.8 634.2 125.4 634.2 c 0
 105 634.2 88 650.8 88 671.6 c 0
EndSplineSet
EndChar

StartChar: copyright
Encoding: 169 169 103
Width: 800
VWidth: 0
Flags: HMW
LayerCount: 2
Fore
SplineSet
222.6 350 m 0
 222.6 243.2 294.4 167.8 392.6 167.8 c 0
 451.6 167.8 496.2 189.6 527.6 225.4 c 1
 527.6 181.2 l 1
 492.6 150.2 453.6 134.4 392.6 134.4 c 0
 276.6 134.4 187.4 225 187.4 350 c 0
 187.4 475 276.6 565.6 392.6 565.6 c 0
 453.6 565.6 492.6 549.8 527.6 518.8 c 1
 527.6 475 l 1
 496.6 510.8 450.4 532.2 392.6 532.2 c 0
 294.4 532.2 222.6 457.6 222.6 350 c 0
77 350 m 0
 77 162 219 24 400 24 c 0
 581 24 723 162 723 350 c 0
 723 538 581 676 400 676 c 0
 219 676 77 538 77 350 c 0
40 350 m 0
 40 559 196 710 400 710 c 0
 604 710 760 559 760 350 c 0
 760 141 604 -10 400 -10 c 0
 196 -10 40 141 40 350 c 0
EndSplineSet
EndChar

StartChar: registered
Encoding: 174 174 104
Width: 800
VWidth: 0
Flags: HMW
LayerCount: 2
Fore
SplineSet
355.4 350.2 m 1
 392.8 350.2 l 1
 536 150 l 1
 494.6 150 l 1
 355.4 350.2 l 1
284.4 570 m 1
 317.8 570 l 1
 317.8 150 l 1
 284.4 150 l 1
 284.4 570 l 1
301.6 540.2 m 1
 301.6 570 l 1
 380.4 570 l 2
 461.4 570 523 525 523 448 c 0
 523 371 461.4 326 380.4 326 c 2
 301.6 326 l 1
 301.6 355.4 l 1
 380.4 355.4 l 2
 444.4 355.4 489.6 387.2 489.6 448 c 0
 489.6 508.8 444.4 540.2 380.4 540.2 c 2
 301.6 540.2 l 1
77 350 m 0
 77 162 219 24 400 24 c 0
 581 24 723 162 723 350 c 0
 723 538 581 676 400 676 c 0
 219 676 77 538 77 350 c 0
40 350 m 0
 40 559 196 710 400 710 c 0
 604 710 760 559 760 350 c 0
 760 141 604 -10 400 -10 c 0
 196 -10 40 141 40 350 c 0
EndSplineSet
EndChar

StartChar: ordfeminine
Encoding: 170 170 105
Width: 238
VWidth: 0
Flags: HMW
LayerCount: 2
Fore
SplineSet
48.6 530.4 m 0
 48.6 497.6 70.6 478.6 106.8 478.6 c 0
 145.8 478.6 180 503 180 546 c 1
 186 531 l 1
 186 487 150 455 100.8 455 c 0
 60.4 455 22.4 480.2 22.4 530.4 c 0
 22.4 578.4 68.8 607.8 117.2 607.8 c 0
 159.2 607.8 181.8 589.4 190 581 c 1
 190 564.2 l 1
 172 578.2 149.4 588.2 118.4 588.2 c 0
 80 588.2 48.6 565.6 48.6 530.4 c 0
55.8 652.4 m 1
 42.8 672.6 l 1
 59.4 686.2 87.2 703 126.8 703 c 0
 176 703 206 675 206 631 c 2
 206 460 l 1
 180 460 l 1
 180 631 l 2
 180 662 158.6 680 126.8 680 c 0
 93.8 680 69.6 664.4 55.8 652.4 c 1
EndSplineSet
EndChar

StartChar: ordmasculine
Encoding: 186 186 106
Width: 278
VWidth: 0
Flags: HMW
LayerCount: 2
Fore
SplineSet
20 580 m 0
 20 650 71 700 139 700 c 0
 207 700 258 650 258 580 c 0
 258 510 207 460 139 460 c 0
 71 460 20 510 20 580 c 0
48 580 m 0
 48 525.2 88 486.8 139 486.8 c 0
 190 486.8 230 525.2 230 580 c 0
 230 634.8 190 673.2 139 673.2 c 0
 88 673.2 48 634.8 48 580 c 0
EndSplineSet
EndChar

StartChar: guillemotleft
Encoding: 171 171 107
Width: 500
VWidth: 0
Flags: HMW
LayerCount: 2
Fore
SplineSet
258 257.4 m 1
 430 49.8 l 1
 397.2 20 l 1
 200 255 l 1
 397.2 490 l 1
 430 460.2 l 1
 258 257.4 l 1
98 257.4 m 1
 270 49.8 l 1
 237.2 20 l 1
 40 255 l 1
 237.2 490 l 1
 270 460.2 l 1
 98 257.4 l 1
EndSplineSet
EndChar

StartChar: guillemotright
Encoding: 187 187 108
Width: 500
VWidth: 0
Flags: HMW
LayerCount: 2
Fore
SplineSet
242 252.6 m 1
 70 460.2 l 1
 102.8 490 l 1
 300 255 l 1
 102.8 20 l 1
 70 49.8 l 1
 242 252.6 l 1
402 252.6 m 1
 230 460.2 l 1
 262.8 490 l 1
 460 255 l 1
 262.8 20 l 1
 230 49.8 l 1
 402 252.6 l 1
EndSplineSet
EndChar

StartChar: uni00AD
Encoding: 173 173 109
Width: 210
VWidth: 0
Flags: HMW
LayerCount: 2
Fore
SplineSet
5 226 m 1
 5 275 l 1
 205 275 l 1
 205 226 l 1
 5 226 l 1
EndSplineSet
EndChar

StartChar: logicalnot
Encoding: 172 172 110
Width: 620
VWidth: 0
Flags: HMW
LayerCount: 2
Fore
SplineSet
65 326 m 1
 65 375 l 1
 555 375 l 1
 555 175 l 1
 506 175 l 1
 506 326 l 1
 65 326 l 1
EndSplineSet
EndChar

StartChar: macron
Encoding: 175 175 111
Width: 510
VWidth: 0
Flags: HMW
LayerCount: 2
Fore
SplineSet
80 626 m 1
 80 675 l 1
 430 675 l 1
 430 626 l 1
 80 626 l 1
EndSplineSet
EndChar

StartChar: degree
Encoding: 176 176 112
Width: 278
VWidth: 0
Flags: HMW
LayerCount: 2
Fore
SplineSet
20 600 m 0
 20 670 71 720 139 720 c 0
 207 720 258 670 258 600 c 0
 258 530 207 480 139 480 c 0
 71 480 20 530 20 600 c 0
48 600 m 0
 48 545.2 88 506.8 139 506.8 c 0
 190 506.8 230 545.2 230 600 c 0
 230 654.8 190 693.2 139 693.2 c 0
 88 693.2 48 654.8 48 600 c 0
EndSplineSet
EndChar

StartChar: plusminus
Encoding: 177 177 113
Width: 613
VWidth: 0
Flags: HMW
LayerCount: 2
Fore
SplineSet
65 0 m 1
 65 52 l 1
 548 52 l 1
 548 0 l 1
 65 0 l 1
65 359 m 1
 65 411 l 1
 548 411 l 1
 548 359 l 1
 65 359 l 1
279 620 m 1
 334 620 l 1
 334 150 l 1
 279 150 l 1
 279 620 l 1
EndSplineSet
EndChar

StartChar: uni00B2
Encoding: 178 178 114
Width: 340
VWidth: 0
Flags: HMW
LayerCount: 2
Fore
SplineSet
27 282 m 1
 222.6 489.6 l 2
 251 519.4 271.8 548.8 271.8 589.2 c 0
 271.8 630.2 245.2 677.8 183.4 677.8 c 0
 122.2 677.8 81.6 630.4 81.6 558 c 1
 48.6 558 l 1
 48.6 647 101.2 709 183.4 709 c 0
 270.6 709 305.4 640.4 305.4 586.8 c 0
 305.4 541.4 280.4 504 248.6 471.2 c 2
 96 313.2 l 1
 313.4 313.2 l 1
 313.4 282 l 1
 27 282 l 1
EndSplineSet
EndChar

StartChar: uni00B3
Encoding: 179 179 115
Width: 310
VWidth: 0
Flags: HMW
LayerCount: 2
Fore
SplineSet
140.6 491 m 1
 140.6 512.8 l 1
 194.6 512.8 241.6 547 241.6 595.8 c 0
 241.6 639.8 213.6 676 161.6 676 c 0
 112.2 676 76.8 642.6 76.8 596 c 1
 45 596 l 1
 45 661 92.6 706 161.6 706 c 0
 233.6 706 275.2 653 275.2 596.4 c 0
 275.2 535 214.4 491 140.6 491 c 1
158.6 274 m 0
 77.6 274 27 326 27 391 c 1
 60.6 391 l 1
 60.6 341.4 98.6 305.2 158.6 305.2 c 0
 216.2 305.2 253.6 340.2 253.6 392.2 c 0
 253.6 453.4 194.6 483.4 140.6 483.4 c 1
 140.6 505.2 l 1
 214.4 505.2 287.2 469.2 287.2 388.6 c 0
 287.2 320 233.6 274 158.6 274 c 0
EndSplineSet
EndChar

StartChar: acute
Encoding: 180 180 116
Width: 366
VWidth: 0
Flags: HMW
LayerCount: 2
Fore
SplineSet
281.2 672.8 m 1
 104 520 l 1
 75 540 l 1
 233 700 l 1
 281.2 672.8 l 1
EndSplineSet
EndChar

StartChar: mu
Encoding: 181 181 117
Width: 505
VWidth: 0
Flags: HMW
LayerCount: 2
Fore
SplineSet
374 0 m 1
 374 460 l 1
 426 460 l 1
 426 0 l 1
 374 0 l 1
131 168 m 2
 131 86 164 39 239 39 c 0
 317.4 39 374 102.4 374 180 c 1
 397.6 180 l 1
 397.6 71 322 -10 227 -10 c 0
 132 -10 79 51 79 162 c 2
 79 460 l 1
 131 460 l 1
 131 168 l 2
79 460 m 1
 131 460 l 1
 131 -320 l 1
 79 -320 l 1
 79 460 l 1
EndSplineSet
EndChar

StartChar: paragraph
Encoding: 182 182 118
Width: 526
VWidth: 0
Flags: HMW
LayerCount: 2
Fore
SplineSet
288 657 m 1
 288 700 l 1
 448 700 l 1
 448 657 l 1
 288 657 l 1
420 700 m 1
 466 700 l 1
 466 -220 l 1
 420 -220 l 1
 420 700 l 1
288 700 m 1
 334 700 l 1
 334 -220 l 1
 288 -220 l 1
 288 700 l 1
288 270 m 1
 163 270 60 346 60 485 c 0
 60 624 163 700 288 700 c 1
 288 270 l 1
EndSplineSet
EndChar

StartChar: periodcentered
Encoding: 183 183 119
Width: 276
VWidth: 0
Flags: HMW
LayerCount: 2
Fore
SplineSet
101 232.4 m 0
 101 253.2 118 269.8 138.4 269.8 c 0
 158.8 269.8 175.8 253.2 175.8 232.4 c 0
 175.8 211.6 158.8 195 138.4 195 c 0
 118 195 101 211.6 101 232.4 c 0
EndSplineSet
EndChar

StartChar: uni00B9
Encoding: 185 185 120
Width: 470
VWidth: 0
Flags: HMW
LayerCount: 2
Fore
SplineSet
148.4 633 m 1
 148.4 667.6 l 1
 278 698.8 l 1
 278 274 l 1
 245 274 l 1
 245 659 l 1
 148.4 633 l 1
EndSplineSet
EndChar

StartChar: cedilla
Encoding: 184 184 121
Width: 350
VWidth: 0
Flags: HMW
LayerCount: 2
Fore
SplineSet
188 36 m 1
 229.4 36 l 1
 168.6 -61.6 l 1
 180.8 -55.2 187 -52 202 -52 c 0
 235 -52 275 -77 275 -126 c 0
 275 -187 223 -220 168 -220 c 0
 131 -220 107 -210 79 -182 c 1
 101.6 -155.6 l 1
 124.2 -174.8 139.2 -183.6 168 -183.6 c 0
 207.2 -183.6 236.8 -162.8 236.8 -126 c 0
 236.8 -94 213.6 -78.8 181.6 -78.8 c 0
 163.6 -78.8 136.8 -85.2 115 -100 c 1
 188 36 l 1
EndSplineSet
EndChar

StartChar: questiondown
Encoding: 191 191 122
Width: 551
VWidth: 0
Flags: HMW
LayerCount: 2
Fore
SplineSet
120.6 192 m 0
 120.6 100 182 39 284 39 c 0
 361 39 410.2 76.4 446.4 134 c 1
 489 107 l 1
 443 37 389 -10 278 -10 c 0
 153 -10 68 77 68 192 c 0
 68 300.2 168.6 386.8 286.4 391.2 c 1
 290.2 530 l 1
 329.4 530 l 1
 343.4 355 l 1
 327.8 355 l 1
 203.8 355 120.6 276 120.6 192 c 0
348.4 675.6 m 0
 348.4 654.8 331.4 638.2 311 638.2 c 0
 290.6 638.2 273.6 654.8 273.6 675.6 c 0
 273.6 696.4 290.6 713 311 713 c 0
 331.4 713 348.4 696.4 348.4 675.6 c 0
EndSplineSet
EndChar

StartChar: multiply
Encoding: 215 215 123
Width: 588
VWidth: 0
Flags: HMW
LayerCount: 2
Fore
SplineSet
107.8 31.6 m 1
 71.4 68 l 1
 261.4 254.6 l 1
 71 441.6 l 1
 107.4 478 l 1
 294.4 287.6 l 1
 481.4 478 l 1
 517.8 441.6 l 1
 327.4 254.6 l 1
 517.4 68 l 1
 481 31.6 l 1
 294.4 221.6 l 1
 107.8 31.6 l 1
EndSplineSet
EndChar

StartChar: Oslash
Encoding: 216 216 124
Width: 790
VWidth: 0
Flags: HMW
LayerCount: 2
Fore
SplineSet
102.4 350 m 0
 102.4 174.8 223.6 46.2 391.8 46.2 c 0
 560 46.2 681.2 174.8 681.2 350 c 0
 681.2 525.2 560 653.8 391.8 653.8 c 0
 223.6 653.8 102.4 525.2 102.4 350 c 0
44 350 m 0
 44 556 191.8 709.2 391.8 709.2 c 0
 591.8 709.2 739.6 556 739.6 350 c 0
 739.6 144 591.8 -9.2 391.8 -9.2 c 0
 191.8 -9.2 44 144 44 350 c 0
697.6 743.2 m 1
 737.4 716.8 l 1
 88.4 -43.2 l 1
 49.6 -16.8 l 1
 697.6 743.2 l 1
EndSplineSet
EndChar

StartChar: Thorn
Encoding: 222 222 125
Width: 538
VWidth: 0
Flags: HMW
LayerCount: 2
Fore
SplineSet
80 700 m 1
 135 700 l 1
 135 0 l 1
 80 0 l 1
 80 700 l 1
109.8 508 m 1
 109.8 560 l 1
 258 560 l 2
 393 560 496 479 496 350 c 0
 496 221 393 140 258 140 c 2
 109.8 140 l 1
 109.8 192 l 1
 258 192 l 2
 362 192 440.6 252 440.6 350 c 0
 440.6 452 362 508 258 508 c 2
 109.8 508 l 1
EndSplineSet
EndChar

StartChar: divide
Encoding: 247 247 126
Width: 623
VWidth: 0
Flags: HMW
LayerCount: 2
Fore
SplineSet
272.6 450.4 m 0
 272.6 471.2 289.6 487.8 310 487.8 c 0
 330.4 487.8 347.4 471.2 347.4 450.4 c 0
 347.4 429.6 330.4 413 310 413 c 0
 289.6 413 272.6 429.6 272.6 450.4 c 0
272.6 54.4 m 0
 272.6 75.2 289.6 91.8 310 91.8 c 0
 330.4 91.8 347.4 75.2 347.4 54.4 c 0
 347.4 33.6 330.4 17 310 17 c 0
 289.6 17 272.6 33.6 272.6 54.4 c 0
60 229 m 1
 60 281 l 1
 560 281 l 1
 560 229 l 1
 60 229 l 1
EndSplineSet
EndChar

StartChar: oslash
Encoding: 248 248 127
Width: 546
VWidth: 0
Flags: HMW
LayerCount: 2
Fore
SplineSet
39 230 m 0
 39 369 141.2 470 275 470 c 0
 408.8 470 511 369 511 230 c 0
 511 91 408.8 -10 275 -10 c 0
 141.2 -10 39 91 39 230 c 0
91.6 230 m 0
 91.6 118.8 171 39 275 39 c 0
 379 39 458.4 118.8 458.4 230 c 0
 458.4 341.2 379 421 275 421 c 0
 171 421 91.6 341.2 91.6 230 c 0
447.2 497.2 m 1
 477.8 482.8 l 1
 87.8 -41.2 l 1
 57.2 -26.8 l 1
 447.2 497.2 l 1
EndSplineSet
EndChar

StartChar: circumflex
Encoding: 710 710 128
Width: 480
VWidth: 0
Flags: HMW
LayerCount: 2
Fore
SplineSet
240 674.2 m 1
 112.8 563.2 l 1
 80 590 l 1
 240 730 l 1
 400 590 l 1
 367.2 563.2 l 1
 240 674.2 l 1
EndSplineSet
EndChar

StartChar: ogonek
Encoding: 731 731 129
Width: 256
VWidth: 0
Flags: HMW
LayerCount: 2
Fore
SplineSet
200.4 -147.2 m 1
 223 -180 l 1
 208 -200 174 -220 131 -220 c 0
 55 -220 16 -183 16 -128 c 0
 16 -65 86.4 -17 156.4 19 c 1
 183.8 0 l 1
 125.4 -26 68 -71 68 -116 c 0
 68 -156 96 -174 134 -174 c 0
 165.6 -174 186 -162.2 200.4 -147.2 c 1
EndSplineSet
EndChar

StartChar: tilde
Encoding: 732 732 130
Width: 530
VWidth: 0
Flags: HMW
LayerCount: 2
Fore
SplineSet
116.8 634.6 m 1
 122.8 675.6 159 707 204 707 c 0
 265 707 274 660 328 660 c 0
 351 660 366 676 384 708 c 1
 415.2 681 l 1
 399.2 644 367.2 616 325.2 616 c 0
 270.2 616 249.2 663 204.2 663 c 0
 163.2 663 152.2 631 152.2 612 c 1
 116.8 634.6 l 1
EndSplineSet
EndChar

StartChar: ring
Encoding: 730 730 131
Width: 278
VWidth: 0
Flags: HMW
LayerCount: 2
Fore
SplineSet
37 785 m 0
 37 845 87 885 139 885 c 0
 191 885 241 845 241 785 c 0
 241 725 191 685 139 685 c 0
 87 685 37 725 37 785 c 0
71.6 785 m 0
 71.6 744 104.8 717.2 139 717.2 c 0
 173.2 717.2 206.4 744 206.4 785 c 0
 206.4 826 173.2 852.8 139 852.8 c 0
 104.8 852.8 71.6 826 71.6 785 c 0
EndSplineSet
EndChar

StartChar: dotaccent
Encoding: 729 729 132
Width: 276
VWidth: 0
Flags: HMW
LayerCount: 2
Fore
SplineSet
101 774.4 m 0
 101 795.2 118 811.8 138.4 811.8 c 0
 158.8 811.8 175.8 795.2 175.8 774.4 c 0
 175.8 753.6 158.8 737 138.4 737 c 0
 118 737 101 753.6 101 774.4 c 0
EndSplineSet
EndChar

StartChar: uni2010
Encoding: 8208 8208 133
Width: 210
VWidth: 0
Flags: HMW
LayerCount: 2
Fore
SplineSet
5 226 m 1
 5 275 l 1
 205 275 l 1
 205 226 l 1
 5 226 l 1
EndSplineSet
EndChar

StartChar: endash
Encoding: 8211 8211 134
Width: 740
VWidth: 0
Flags: HMW
LayerCount: 2
Fore
SplineSet
70 226 m 1
 70 275 l 1
 670 275 l 1
 670 226 l 1
 70 226 l 1
EndSplineSet
EndChar

StartChar: figuredash
Encoding: 8210 8210 135
Width: 590
VWidth: 0
Flags: HMW
LayerCount: 2
Fore
SplineSet
70 226 m 1
 70 275 l 1
 520 275 l 1
 520 226 l 1
 70 226 l 1
EndSplineSet
EndChar

StartChar: emdash
Encoding: 8212 8212 136
Width: 890
VWidth: 0
Flags: HMW
LayerCount: 2
Fore
SplineSet
70 226 m 1
 70 275 l 1
 820 275 l 1
 820 226 l 1
 70 226 l 1
EndSplineSet
EndChar

StartChar: minus
Encoding: 8722 8722 137
Width: 590
VWidth: 0
Flags: HMW
LayerCount: 2
Fore
SplineSet
70 226 m 1
 70 275 l 1
 520 275 l 1
 520 226 l 1
 70 226 l 1
EndSplineSet
EndChar

StartChar: quoteright
Encoding: 8217 8217 138
Width: 263
VWidth: 0
Flags: HMW
LayerCount: 2
Fore
SplineSet
135.2 700 m 1
 197 700 l 1
 99 470 l 1
 62 470 l 1
 135.2 700 l 1
EndSplineSet
EndChar

StartChar: quoteleft
Encoding: 8216 8216 139
Width: 255
VWidth: 0
Flags: HMW
LayerCount: 2
Fore
SplineSet
127.8 470 m 1
 66 470 l 1
 164 700 l 1
 201 700 l 1
 127.8 470 l 1
EndSplineSet
EndChar

StartChar: quotesinglbase
Encoding: 8218 8218 140
Width: 263
VWidth: 0
Flags: HMW
LayerCount: 2
Fore
SplineSet
133.2 80 m 1
 195 80 l 1
 97 -150 l 1
 60 -150 l 1
 133.2 80 l 1
EndSplineSet
EndChar

StartChar: quotedblleft
Encoding: 8220 8220 141
Width: 439
VWidth: 0
Flags: HMW
LayerCount: 2
Fore
SplineSet
135.8 470 m 1
 74 470 l 1
 172 700 l 1
 209 700 l 1
 135.8 470 l 1
311.8 470 m 1
 250 470 l 1
 348 700 l 1
 385 700 l 1
 311.8 470 l 1
EndSplineSet
EndChar

StartChar: quotedblright
Encoding: 8221 8221 142
Width: 439
VWidth: 0
Flags: HMW
LayerCount: 2
Fore
SplineSet
127.2 700 m 1
 189 700 l 1
 91 470 l 1
 54 470 l 1
 127.2 700 l 1
303.2 700 m 1
 365 700 l 1
 267 470 l 1
 230 470 l 1
 303.2 700 l 1
EndSplineSet
EndChar

StartChar: perthousand
Encoding: 8240 8240 143
Width: 1107
VWidth: 0
Flags: HMW
LayerCount: 2
Fore
SplineSet
764 146 m 0
 764 233 825 302 918 302 c 0
 1011 302 1072 233 1072 146 c 0
 1072 59 1011 -10 918 -10 c 0
 825 -10 764 59 764 146 c 0
810.6 146 m 0
 810.6 85 851 32.6 918 32.6 c 0
 985 32.6 1025.4 85 1025.4 146 c 0
 1025.4 207 985 259 918 259 c 0
 851 259 810.6 207 810.6 146 c 0
35 554 m 0
 35 641 96 710 189 710 c 0
 282 710 343 641 343 554 c 0
 343 467 282 398 189 398 c 0
 96 398 35 467 35 554 c 0
81.6 554 m 0
 81.6 493 122 440.6 189 440.6 c 0
 256 440.6 296.4 493 296.4 554 c 0
 296.4 615 256 667 189 667 c 0
 122 667 81.6 615 81.6 554 c 0
388 146 m 0
 388 233 449 302 542 302 c 0
 635 302 696 233 696 146 c 0
 696 59 635 -10 542 -10 c 0
 449 -10 388 59 388 146 c 0
434.6 146 m 0
 434.6 85 475 32.6 542 32.6 c 0
 609 32.6 649.4 85 649.4 146 c 0
 649.4 207 609 259 542 259 c 0
 475 259 434.6 207 434.6 146 c 0
567 700 m 1
 616.8 700 l 1
 164 0 l 1
 114.2 0 l 1
 567 700 l 1
EndSplineSet
EndChar

StartChar: guilsinglleft
Encoding: 8249 8249 144
Width: 340
VWidth: 0
Flags: HMW
LayerCount: 2
Fore
SplineSet
98 257.4 m 1
 270 49.8 l 1
 237.2 20 l 1
 40 255 l 1
 237.2 490 l 1
 270 460.2 l 1
 98 257.4 l 1
EndSplineSet
EndChar

StartChar: guilsinglright
Encoding: 8250 8250 145
Width: 350
VWidth: 0
Flags: HMW
LayerCount: 2
Fore
SplineSet
252 252.6 m 1
 80 460.2 l 1
 112.8 490 l 1
 310 255 l 1
 112.8 20 l 1
 80 49.8 l 1
 252 252.6 l 1
EndSplineSet
EndChar

StartChar: uni2031
Encoding: 8241 8241 146
Width: 1483
VWidth: 0
Flags: HMW
LayerCount: 2
Fore
SplineSet
1140 146 m 0
 1140 233 1201 302 1294 302 c 0
 1387 302 1448 233 1448 146 c 0
 1448 59 1387 -10 1294 -10 c 0
 1201 -10 1140 59 1140 146 c 0
1186.6 146 m 0
 1186.6 85 1227 32.6 1294 32.6 c 0
 1361 32.6 1401.4 85 1401.4 146 c 0
 1401.4 207 1361 259 1294 259 c 0
 1227 259 1186.6 207 1186.6 146 c 0
764 146 m 0
 764 233 825 302 918 302 c 0
 1011 302 1072 233 1072 146 c 0
 1072 59 1011 -10 918 -10 c 0
 825 -10 764 59 764 146 c 0
810.6 146 m 0
 810.6 85 851 32.6 918 32.6 c 0
 985 32.6 1025.4 85 1025.4 146 c 0
 1025.4 207 985 259 918 259 c 0
 851 259 810.6 207 810.6 146 c 0
35 554 m 0
 35 641 96 710 189 710 c 0
 282 710 343 641 343 554 c 0
 343 467 282 398 189 398 c 0
 96 398 35 467 35 554 c 0
81.6 554 m 0
 81.6 493 122 440.6 189 440.6 c 0
 256 440.6 296.4 493 296.4 554 c 0
 296.4 615 256 667 189 667 c 0
 122 667 81.6 615 81.6 554 c 0
388 146 m 0
 388 233 449 302 542 302 c 0
 635 302 696 233 696 146 c 0
 696 59 635 -10 542 -10 c 0
 449 -10 388 59 388 146 c 0
434.6 146 m 0
 434.6 85 475 32.6 542 32.6 c 0
 609 32.6 649.4 85 649.4 146 c 0
 649.4 207 609 259 542 259 c 0
 475 259 434.6 207 434.6 146 c 0
567 700 m 1
 616.8 700 l 1
 164 0 l 1
 114.2 0 l 1
 567 700 l 1
EndSplineSet
EndChar

StartChar: uni203D
Encoding: 8253 8253 147
Width: 557
VWidth: 0
Flags: HMW
LayerCount: 2
Fore
SplineSet
430.4 508 m 0
 430.4 600 369 661 267 661 c 0
 190 661 140.8 623.6 104.6 566 c 1
 62 593 l 1
 108 663 162 710 273 710 c 0
 398 710 483 623 483 508 c 0
 483 397 381.4 308.8 268.4 308.8 c 1
 235.2 345 l 1
 351.2 345 430.4 424 430.4 508 c 0
219.6 510 m 1
 284.4 510 l 1
 271.2 170 l 1
 232.8 170 l 1
 219.6 510 l 1
214.6 24.4 m 0
 214.6 45.2 231.6 61.8 252 61.8 c 0
 272.4 61.8 289.4 45.2 289.4 24.4 c 0
 289.4 3.6 272.4 -13 252 -13 c 0
 231.6 -13 214.6 3.6 214.6 24.4 c 0
EndSplineSet
EndChar

StartChar: Euro
Encoding: 8364 8364 148
Width: 628
VWidth: 0
Flags: HMW
LayerCount: 2
Fore
SplineSet
39 422.2 m 1
 39 455 l 1
 540 455 l 1
 540 422.2 l 1
 39 422.2 l 1
39 302.2 m 1
 39 335 l 1
 514 335 l 1
 514 302.2 l 1
 39 302.2 l 1
157 350 m 0
 157 170.2 253.2 42 394 42 c 0
 451 42 503 61.6 544 97.6 c 1
 544 31 l 1
 499 5 448 -10 394 -10 c 0
 220 -10 102 141 102 350 c 0
 102 559 220 710 394 710 c 0
 448 710 499 695 544 669 c 1
 544 602.4 l 1
 503 638.4 451 658 394 658 c 0
 249.2 658 157 529.8 157 350 c 0
EndSplineSet
EndChar

StartChar: fraction
Encoding: 8260 8260 149
Width: 705
VWidth: 0
Flags: HMW
LayerCount: 2
Fore
SplineSet
601.2 700 m 1
 645 700 l 1
 103.8 0 l 1
 60 0 l 1
 601.2 700 l 1
EndSplineSet
EndChar

StartChar: onequarter
Encoding: 188 188 150
Width: 754
VWidth: 0
Flags: HMW
LayerCount: 2
Fore
SplineSet
639.2 700 m 1
 683 700 l 1
 141.8 0 l 1
 98 0 l 1
 639.2 700 l 1
26.4 633 m 1
 26.4 667.6 l 1
 156 698.8 l 1
 156 274 l 1
 123 274 l 1
 123 659 l 1
 26.4 633 l 1
399.2 84 m 1
 426.8 113.4 l 1
 624 113.4 l 0
 630.8 113.4 l 0
 709.6 113.4 l 1
 709.6 84 l 1
 399.2 84 l 1
434.4 84 m 1
 399.2 84 l 1
 631 420 l 1
 643.6 420 l 1
 643.6 0 l 1
 610.6 0 l 1
 610.6 97.6 l 0
 610.6 102.4 l 0
 610.6 344.2 l 1
 434.4 84 l 1
EndSplineSet
EndChar

StartChar: onehalf
Encoding: 189 189 151
Width: 819
VWidth: 0
Flags: HMW
LayerCount: 2
Fore
SplineSet
639.2 700 m 1
 683 700 l 1
 141.8 0 l 1
 98 0 l 1
 639.2 700 l 1
26.4 633 m 1
 26.4 667.6 l 1
 156 698.8 l 1
 156 274 l 1
 123 274 l 1
 123 659 l 1
 26.4 633 l 1
494.2 2 m 1
 689.8 209.2 l 2
 718.2 239 739 268.4 739 308.8 c 0
 739 349.8 712.4 397.8 650.6 397.8 c 0
 589.4 397.8 548.8 350.4 548.8 278 c 1
 515.8 278 l 1
 515.8 367 568.4 429 650.6 429 c 0
 737.8 429 773 360 773 306.4 c 0
 773 261 747.6 224 715.8 191.2 c 2
 563.2 33.2 l 1
 780.6 33.2 l 1
 780.6 2 l 1
 494.2 2 l 1
EndSplineSet
EndChar

StartChar: threequarters
Encoding: 190 190 152
Width: 820
VWidth: 0
Flags: HMW
LayerCount: 2
Fore
SplineSet
706.2 700 m 1
 750 700 l 1
 208.8 0 l 1
 165 0 l 1
 706.2 700 l 1
145.6 491 m 1
 145.6 512.8 l 1
 199.6 512.8 246.6 547 246.6 595.8 c 0
 246.6 639.8 218.6 676 166.6 676 c 0
 117.2 676 81.8 642.6 81.8 596 c 1
 50 596 l 1
 50 661 97.6 706 166.6 706 c 0
 238.6 706 280.2 653 280.2 596.4 c 0
 280.2 535 219.4 491 145.6 491 c 1
163.6 274 m 0
 82.6 274 32 326 32 391 c 1
 65.6 391 l 1
 65.6 341.4 103.6 305.2 163.6 305.2 c 0
 221.2 305.2 258.6 340.2 258.6 392.2 c 0
 258.6 453.4 199.6 483.4 145.6 483.4 c 1
 145.6 505.2 l 1
 219.4 505.2 292.2 469.2 292.2 388.6 c 0
 292.2 320 238.6 274 163.6 274 c 0
466.2 84 m 1
 493.8 113.4 l 1
 691 113.4 l 0
 697.8 113.4 l 0
 776.6 113.4 l 1
 776.6 84 l 1
 466.2 84 l 1
501.4 84 m 1
 466.2 84 l 1
 698 420 l 1
 710.6 420 l 1
 710.6 0 l 1
 677.6 0 l 1
 677.6 97.6 l 0
 677.6 102.4 l 0
 677.6 344.2 l 1
 501.4 84 l 1
EndSplineSet
EndChar

StartChar: uni2150
Encoding: 8528 8528 153
Width: 842
VWidth: 0
Flags: HMW
LayerCount: 2
Fore
SplineSet
589.2 700 m 1
 633 700 l 1
 91.8 0 l 1
 48 0 l 1
 589.2 700 l 1
26.4 633 m 1
 26.4 667.6 l 1
 156 698.8 l 1
 156 274 l 1
 123 274 l 1
 123 659 l 1
 26.4 633 l 1
520 388.8 m 1
 520 420 l 1
 809.2 420 l 1
 599.8 0 l 1
 565.2 0 l 1
 759.6 388.8 l 1
 520 388.8 l 1
EndSplineSet
EndChar

StartChar: uni2151
Encoding: 8529 8529 154
Width: 784
VWidth: 0
Flags: HMW
LayerCount: 2
Fore
SplineSet
589.2 700 m 1
 633 700 l 1
 91.8 0 l 1
 48 0 l 1
 589.2 700 l 1
26.4 633 m 1
 26.4 667.6 l 1
 156 698.8 l 1
 156 274 l 1
 123 274 l 1
 123 659 l 1
 26.4 633 l 1
719.8 286.4 m 0
 719.8 351.6 675.8 398 613.4 398 c 0
 551 398 507 351.6 507 286.4 c 0
 507 223.6 553.4 177.4 611 177.4 c 0
 677 177.4 719.8 226 719.8 286.4 c 0
583.6 2 m 1
 541.8 2 l 1
 679 188.6 l 1
 680.8 186.8 l 1
 661.2 162.4 633.8 152.8 599.6 152.8 c 0
 531.6 152.8 475.2 211.8 475.2 286.4 c 0
 475.2 370 532.4 428 613.4 428 c 0
 694.4 428 751.6 370 751.6 286.4 c 0
 751.6 252.4 737.8 218.2 721.8 196.2 c 2
 583.6 2 l 1
EndSplineSet
EndChar

StartChar: uni2152
Encoding: 8530 8530 155
Width: 1080
VWidth: 0
Flags: HMW
LayerCount: 2
Fore
SplineSet
589.2 700 m 1
 633 700 l 1
 91.8 0 l 1
 48 0 l 1
 589.2 700 l 1
26.4 633 m 1
 26.4 667.6 l 1
 156 698.8 l 1
 156 274 l 1
 123 274 l 1
 123 659 l 1
 26.4 633 l 1
466 360 m 1
 466 394.6 l 1
 595.6 425.8 l 1
 595.6 1 l 1
 562.6 1 l 1
 562.6 386 l 1
 466 360 l 1
773.4 210 m 0
 773.4 106.4 815.8 25.2 886.4 25.2 c 0
 957 25.2 999.4 106.4 999.4 210 c 0
 999.4 313.6 957 394.8 886.4 394.8 c 0
 815.8 394.8 773.4 313.6 773.4 210 c 0
740 210 m 0
 740 332.6 798 426 886.4 426 c 0
 974.8 426 1032.8 332.6 1032.8 210 c 0
 1032.8 87.4 974.8 -6 886.4 -6 c 0
 798 -6 740 87.4 740 210 c 0
EndSplineSet
EndChar

StartChar: onethird
Encoding: 8531 8531 156
Width: 755
VWidth: 0
Flags: HMW
LayerCount: 2
Fore
SplineSet
589.2 700 m 1
 633 700 l 1
 91.8 0 l 1
 48 0 l 1
 589.2 700 l 1
26.4 633 m 1
 26.4 667.6 l 1
 156 698.8 l 1
 156 274 l 1
 123 274 l 1
 123 659 l 1
 26.4 633 l 1
578.6 211 m 1
 578.6 232.8 l 1
 632.6 232.8 679.6 267 679.6 315.8 c 0
 679.6 359.8 651.6 396 599.6 396 c 0
 550.2 396 514.8 362.6 514.8 316 c 1
 483 316 l 1
 483 381 530.6 426 599.6 426 c 0
 671.6 426 713.2 373 713.2 316.4 c 0
 713.2 255 652.4 211 578.6 211 c 1
596.6 -6 m 0
 515.6 -6 465 46 465 111 c 1
 498.6 111 l 1
 498.6 61.4 536.6 25.2 596.6 25.2 c 0
 654.2 25.2 691.6 60.2 691.6 112.2 c 0
 691.6 173.4 632.6 203.4 578.6 203.4 c 1
 578.6 225.2 l 1
 652.4 225.2 725.2 189.2 725.2 108.6 c 0
 725.2 40 671.6 -6 596.6 -6 c 0
EndSplineSet
EndChar

StartChar: twothirds
Encoding: 8532 8532 157
Width: 882
VWidth: 0
Flags: HMW
LayerCount: 2
Fore
SplineSet
716.2 700 m 1
 760 700 l 1
 218.8 0 l 1
 175 0 l 1
 716.2 700 l 1
31.2 282 m 1
 226.8 489.6 l 2
 255.2 519.4 276 548.8 276 589.2 c 0
 276 630.2 249.4 677.8 187.6 677.8 c 0
 126.4 677.8 85.8 630.4 85.8 558 c 1
 52.8 558 l 1
 52.8 647 105.4 709 187.6 709 c 0
 274.8 709 309.6 640.4 309.6 586.8 c 0
 309.6 541.4 284.6 504 252.8 471.2 c 2
 100.2 313.2 l 1
 317.6 313.2 l 1
 317.6 282 l 1
 31.2 282 l 1
705.6 211 m 1
 705.6 232.8 l 1
 759.6 232.8 806.6 267 806.6 315.8 c 0
 806.6 359.8 778.6 396 726.6 396 c 0
 677.2 396 641.8 362.6 641.8 316 c 1
 610 316 l 1
 610 381 657.6 426 726.6 426 c 0
 798.6 426 840.2 373 840.2 316.4 c 0
 840.2 255 779.4 211 705.6 211 c 1
723.6 -6 m 0
 642.6 -6 592 46 592 111 c 1
 625.6 111 l 1
 625.6 61.4 663.6 25.2 723.6 25.2 c 0
 781.2 25.2 818.6 60.2 818.6 112.2 c 0
 818.6 173.4 759.6 203.4 705.6 203.4 c 1
 705.6 225.2 l 1
 779.4 225.2 852.2 189.2 852.2 108.6 c 0
 852.2 40 798.6 -6 723.6 -6 c 0
EndSplineSet
EndChar

StartChar: uni2155
Encoding: 8533 8533 158
Width: 744
VWidth: 0
Flags: HMW
LayerCount: 2
Fore
SplineSet
589.2 700 m 1
 633 700 l 1
 91.8 0 l 1
 48 0 l 1
 589.2 700 l 1
26.4 633 m 1
 26.4 667.6 l 1
 156 698.8 l 1
 156 274 l 1
 123 274 l 1
 123 659 l 1
 26.4 633 l 1
701.6 136 m 0
 701.6 41 638 -8 559.4 -8 c 0
 487.2 -8 445.6 29.6 420 80 c 1
 447.8 99.2 l 1
 468 56.4 506.6 23.2 559.4 23.2 c 0
 624.2 23.2 667.4 64.8 667.4 136 c 0
 667.4 200 623.4 243.2 565.8 243.2 c 0
 521 243.2 490.6 228.8 452.4 194 c 1
 474.4 225.6 l 1
 498.4 254.4 536.8 273.2 579 273.2 c 0
 648.6 273.2 701.6 216.6 701.6 136 c 0
532.4 388.6 m 1
 494.2 234 l 1
 452.4 194 l 1
 507.4 418 l 1
 705.4 418 l 1
 705.4 388.6 l 1
 532.4 388.6 l 1
EndSplineSet
EndChar

StartChar: uni2156
Encoding: 8534 8534 159
Width: 871
VWidth: 0
Flags: HMW
LayerCount: 2
Fore
SplineSet
716.2 700 m 1
 760 700 l 1
 218.8 0 l 1
 175 0 l 1
 716.2 700 l 1
31.2 282 m 1
 226.8 489.6 l 2
 255.2 519.4 276 548.8 276 589.2 c 0
 276 630.2 249.4 677.8 187.6 677.8 c 0
 126.4 677.8 85.8 630.4 85.8 558 c 1
 52.8 558 l 1
 52.8 647 105.4 709 187.6 709 c 0
 274.8 709 309.6 640.4 309.6 586.8 c 0
 309.6 541.4 284.6 504 252.8 471.2 c 2
 100.2 313.2 l 1
 317.6 313.2 l 1
 317.6 282 l 1
 31.2 282 l 1
828.6 136 m 0
 828.6 41 765 -8 686.4 -8 c 0
 614.2 -8 572.6 29.6 547 80 c 1
 574.8 99.2 l 1
 595 56.4 633.6 23.2 686.4 23.2 c 0
 751.2 23.2 794.4 64.8 794.4 136 c 0
 794.4 200 750.4 243.2 692.8 243.2 c 0
 648 243.2 617.6 228.8 579.4 194 c 1
 601.4 225.6 l 1
 625.4 254.4 663.8 273.2 706 273.2 c 0
 775.6 273.2 828.6 216.6 828.6 136 c 0
659.4 388.6 m 1
 621.2 234 l 1
 579.4 194 l 1
 634.4 418 l 1
 832.4 418 l 1
 832.4 388.6 l 1
 659.4 388.6 l 1
EndSplineSet
EndChar

StartChar: uni2157
Encoding: 8535 8535 160
Width: 831
VWidth: 0
Flags: HMW
LayerCount: 2
Fore
SplineSet
676.2 700 m 1
 720 700 l 1
 178.8 0 l 1
 135 0 l 1
 676.2 700 l 1
145.6 491 m 1
 145.6 512.8 l 1
 199.6 512.8 246.6 547 246.6 595.8 c 0
 246.6 639.8 218.6 676 166.6 676 c 0
 117.2 676 81.8 642.6 81.8 596 c 1
 50 596 l 1
 50 661 97.6 706 166.6 706 c 0
 238.6 706 280.2 653 280.2 596.4 c 0
 280.2 535 219.4 491 145.6 491 c 1
163.6 274 m 0
 82.6 274 32 326 32 391 c 1
 65.6 391 l 1
 65.6 341.4 103.6 305.2 163.6 305.2 c 0
 221.2 305.2 258.6 340.2 258.6 392.2 c 0
 258.6 453.4 199.6 483.4 145.6 483.4 c 1
 145.6 505.2 l 1
 219.4 505.2 292.2 469.2 292.2 388.6 c 0
 292.2 320 238.6 274 163.6 274 c 0
788.6 136 m 0
 788.6 41 725 -8 646.4 -8 c 0
 574.2 -8 532.6 29.6 507 80 c 1
 534.8 99.2 l 1
 555 56.4 593.6 23.2 646.4 23.2 c 0
 711.2 23.2 754.4 64.8 754.4 136 c 0
 754.4 200 710.4 243.2 652.8 243.2 c 0
 608 243.2 577.6 228.8 539.4 194 c 1
 561.4 225.6 l 1
 585.4 254.4 623.8 273.2 666 273.2 c 0
 735.6 273.2 788.6 216.6 788.6 136 c 0
619.4 388.6 m 1
 581.2 234 l 1
 539.4 194 l 1
 594.4 418 l 1
 792.4 418 l 1
 792.4 388.6 l 1
 619.4 388.6 l 1
EndSplineSet
EndChar

StartChar: uni2158
Encoding: 8536 8536 161
Width: 866
VWidth: 0
Flags: HMW
LayerCount: 2
Fore
SplineSet
711.2 700 m 1
 755 700 l 1
 213.8 0 l 1
 170 0 l 1
 711.2 700 l 1
32 364 m 1
 59.6 393.4 l 1
 256.8 393.4 l 0
 263.6 393.4 l 0
 342.4 393.4 l 1
 342.4 364 l 1
 32 364 l 1
67.2 364 m 1
 32 364 l 1
 263.8 700 l 1
 276.8 700 l 1
 276.8 280 l 1
 243.4 280 l 1
 243.4 377.6 l 0
 243.4 382.4 l 0
 243.4 624.2 l 1
 67.2 364 l 1
823.6 136 m 0
 823.6 41 760 -8 681.4 -8 c 0
 609.2 -8 567.6 29.6 542 80 c 1
 569.8 99.2 l 1
 590 56.4 628.6 23.2 681.4 23.2 c 0
 746.2 23.2 789.4 64.8 789.4 136 c 0
 789.4 200 745.4 243.2 687.8 243.2 c 0
 643 243.2 612.6 228.8 574.4 194 c 1
 596.4 225.6 l 1
 620.4 254.4 658.8 273.2 701 273.2 c 0
 770.6 273.2 823.6 216.6 823.6 136 c 0
654.4 388.6 m 1
 616.2 234 l 1
 574.4 194 l 1
 629.4 418 l 1
 827.4 418 l 1
 827.4 388.6 l 1
 654.4 388.6 l 1
EndSplineSet
EndChar

StartChar: uni2159
Encoding: 8537 8537 162
Width: 734
VWidth: 0
Flags: HMW
LayerCount: 2
Fore
SplineSet
589.2 700 m 1
 633 700 l 1
 91.8 0 l 1
 48 0 l 1
 589.2 700 l 1
26.4 633 m 1
 26.4 667.6 l 1
 156 698.8 l 1
 156 274 l 1
 123 274 l 1
 123 659 l 1
 26.4 633 l 1
457.4 133.6 m 0
 457.4 68.4 501.4 22 563.8 22 c 0
 626.2 22 670.2 68.4 670.2 133.6 c 0
 670.2 196.4 624.2 242.6 566.6 242.6 c 0
 500.6 242.6 457.4 194 457.4 133.6 c 0
593.6 418 m 1
 635.8 418 l 1
 498.2 231.4 l 1
 496.4 233.2 l 1
 516 257.6 543.8 267.2 578 267.2 c 0
 646 267.2 702 208.2 702 133.6 c 0
 702 50 644.8 -8 563.8 -8 c 0
 482.8 -8 425.6 50 425.6 133.6 c 0
 425.6 167.6 439.4 201.8 455.4 223.8 c 2
 593.6 418 l 1
EndSplineSet
EndChar

StartChar: uni215A
Encoding: 8538 8538 163
Width: 856
VWidth: 0
Flags: HMW
LayerCount: 2
Fore
SplineSet
711.2 700 m 1
 755 700 l 1
 213.8 0 l 1
 170 0 l 1
 711.2 700 l 1
313.6 416 m 0
 313.6 321 250 272 171.4 272 c 0
 99.2 272 57.6 309.6 32 360 c 1
 59.8 379.2 l 1
 80 336.4 118.6 303.2 171.4 303.2 c 0
 236.2 303.2 279.4 344.8 279.4 416 c 0
 279.4 480 235.4 523.2 177.8 523.2 c 0
 133 523.2 102.6 508.8 64.4 474 c 1
 86.4 505.6 l 1
 110.4 534.4 148.8 553.2 191 553.2 c 0
 260.6 553.2 313.6 496.6 313.6 416 c 0
144.4 668.6 m 1
 106.2 514 l 1
 64.4 474 l 1
 119.4 698 l 1
 317.4 698 l 1
 317.4 668.6 l 1
 144.4 668.6 l 1
579.4 133.6 m 0
 579.4 68.4 623.4 22 685.8 22 c 0
 748.2 22 792.2 68.4 792.2 133.6 c 0
 792.2 196.4 746.2 242.6 688.6 242.6 c 0
 622.6 242.6 579.4 194 579.4 133.6 c 0
715.6 418 m 1
 757.8 418 l 1
 620.2 231.4 l 1
 618.4 233.2 l 1
 638 257.6 665.8 267.2 700 267.2 c 0
 768 267.2 824 208.2 824 133.6 c 0
 824 50 766.8 -8 685.8 -8 c 0
 604.8 -8 547.6 50 547.6 133.6 c 0
 547.6 167.6 561.4 201.8 577.4 223.8 c 2
 715.6 418 l 1
EndSplineSet
EndChar

StartChar: oneeighth
Encoding: 8539 8539 164
Width: 760
VWidth: 0
Flags: HMW
LayerCount: 2
Fore
SplineSet
589.2 700 m 1
 633 700 l 1
 91.8 0 l 1
 48 0 l 1
 589.2 700 l 1
26.4 633 m 1
 26.4 667.6 l 1
 156 698.8 l 1
 156 274 l 1
 123 274 l 1
 123 659 l 1
 26.4 633 l 1
483.8 321.4 m 0
 483.8 378 531.4 426 595 426 c 0
 658.6 426 706.2 378 706.2 321.4 c 0
 706.2 258.8 656.8 216.2 595 216.2 c 0
 533.2 216.2 483.8 258.8 483.8 321.4 c 0
515.6 317.8 m 0
 515.6 270.6 556.6 237.6 595 237.6 c 0
 633.4 237.6 674.4 270.6 674.4 317.8 c 0
 674.4 362.6 641.2 396.6 595 396.6 c 0
 548.8 396.6 515.6 362.6 515.6 317.8 c 0
470 112.8 m 0
 470 185 529.6 229.6 595 229.6 c 0
 660.4 229.6 720 185 720 112.8 c 0
 720 47.8 670 -6 595 -6 c 0
 520 -6 470 47.8 470 112.8 c 0
501.8 116.4 m 0
 501.8 59.6 542.2 23.4 595 23.4 c 0
 647.8 23.4 688.2 59.6 688.2 116.4 c 0
 688.2 169.6 641.8 208.2 595 208.2 c 0
 548.2 208.2 501.8 169.6 501.8 116.4 c 0
EndSplineSet
EndChar

StartChar: threeeighths
Encoding: 8540 8540 165
Width: 847
VWidth: 0
Flags: HMW
LayerCount: 2
Fore
SplineSet
676.2 700 m 1
 720 700 l 1
 178.8 0 l 1
 135 0 l 1
 676.2 700 l 1
145.6 491 m 1
 145.6 512.8 l 1
 199.6 512.8 246.6 547 246.6 595.8 c 0
 246.6 639.8 218.6 676 166.6 676 c 0
 117.2 676 81.8 642.6 81.8 596 c 1
 50 596 l 1
 50 661 97.6 706 166.6 706 c 0
 238.6 706 280.2 653 280.2 596.4 c 0
 280.2 535 219.4 491 145.6 491 c 1
163.6 274 m 0
 82.6 274 32 326 32 391 c 1
 65.6 391 l 1
 65.6 341.4 103.6 305.2 163.6 305.2 c 0
 221.2 305.2 258.6 340.2 258.6 392.2 c 0
 258.6 453.4 199.6 483.4 145.6 483.4 c 1
 145.6 505.2 l 1
 219.4 505.2 292.2 469.2 292.2 388.6 c 0
 292.2 320 238.6 274 163.6 274 c 0
570.8 321.4 m 0
 570.8 378 618.4 426 682 426 c 0
 745.6 426 793.2 378 793.2 321.4 c 0
 793.2 258.8 743.8 216.2 682 216.2 c 0
 620.2 216.2 570.8 258.8 570.8 321.4 c 0
602.6 317.8 m 0
 602.6 270.6 643.6 237.6 682 237.6 c 0
 720.4 237.6 761.4 270.6 761.4 317.8 c 0
 761.4 362.6 728.2 396.6 682 396.6 c 0
 635.8 396.6 602.6 362.6 602.6 317.8 c 0
557 112.8 m 0
 557 185 616.6 229.6 682 229.6 c 0
 747.4 229.6 807 185 807 112.8 c 0
 807 47.8 757 -6 682 -6 c 0
 607 -6 557 47.8 557 112.8 c 0
588.8 116.4 m 0
 588.8 59.6 629.2 23.4 682 23.4 c 0
 734.8 23.4 775.2 59.6 775.2 116.4 c 0
 775.2 169.6 728.8 208.2 682 208.2 c 0
 635.2 208.2 588.8 169.6 588.8 116.4 c 0
EndSplineSet
EndChar

StartChar: fiveeighths
Encoding: 8541 8541 166
Width: 882
VWidth: 0
Flags: HMW
LayerCount: 2
Fore
SplineSet
711.2 700 m 1
 755 700 l 1
 213.8 0 l 1
 170 0 l 1
 711.2 700 l 1
313.6 416 m 0
 313.6 321 250 272 171.4 272 c 0
 99.2 272 57.6 309.6 32 360 c 1
 59.8 379.2 l 1
 80 336.4 118.6 303.2 171.4 303.2 c 0
 236.2 303.2 279.4 344.8 279.4 416 c 0
 279.4 480 235.4 523.2 177.8 523.2 c 0
 133 523.2 102.6 508.8 64.4 474 c 1
 86.4 505.6 l 1
 110.4 534.4 148.8 553.2 191 553.2 c 0
 260.6 553.2 313.6 496.6 313.6 416 c 0
144.4 668.6 m 1
 106.2 514 l 1
 64.4 474 l 1
 119.4 698 l 1
 317.4 698 l 1
 317.4 668.6 l 1
 144.4 668.6 l 1
605.8 321.4 m 0
 605.8 378 653.4 426 717 426 c 0
 780.6 426 828.2 378 828.2 321.4 c 0
 828.2 258.8 778.8 216.2 717 216.2 c 0
 655.2 216.2 605.8 258.8 605.8 321.4 c 0
637.6 317.8 m 0
 637.6 270.6 678.6 237.6 717 237.6 c 0
 755.4 237.6 796.4 270.6 796.4 317.8 c 0
 796.4 362.6 763.2 396.6 717 396.6 c 0
 670.8 396.6 637.6 362.6 637.6 317.8 c 0
592 112.8 m 0
 592 185 651.6 229.6 717 229.6 c 0
 782.4 229.6 842 185 842 112.8 c 0
 842 47.8 792 -6 717 -6 c 0
 642 -6 592 47.8 592 112.8 c 0
623.8 116.4 m 0
 623.8 59.6 664.2 23.4 717 23.4 c 0
 769.8 23.4 810.2 59.6 810.2 116.4 c 0
 810.2 169.6 763.8 208.2 717 208.2 c 0
 670.2 208.2 623.8 169.6 623.8 116.4 c 0
EndSplineSet
EndChar

StartChar: seveneighths
Encoding: 8542 8542 167
Width: 772
VWidth: 0
Flags: HMW
LayerCount: 2
Fore
SplineSet
601.2 700 m 1
 645 700 l 1
 103.8 0 l 1
 60 0 l 1
 601.2 700 l 1
32 668.8 m 1
 32 700 l 1
 321.2 700 l 1
 111.8 280 l 1
 77.2 280 l 1
 271.6 668.8 l 1
 32 668.8 l 1
495.8 321.4 m 0
 495.8 378 543.4 426 607 426 c 0
 670.6 426 718.2 378 718.2 321.4 c 0
 718.2 258.8 668.8 216.2 607 216.2 c 0
 545.2 216.2 495.8 258.8 495.8 321.4 c 0
527.6 317.8 m 0
 527.6 270.6 568.6 237.6 607 237.6 c 0
 645.4 237.6 686.4 270.6 686.4 317.8 c 0
 686.4 362.6 653.2 396.6 607 396.6 c 0
 560.8 396.6 527.6 362.6 527.6 317.8 c 0
482 112.8 m 0
 482 185 541.6 229.6 607 229.6 c 0
 672.4 229.6 732 185 732 112.8 c 0
 732 47.8 682 -6 607 -6 c 0
 532 -6 482 47.8 482 112.8 c 0
513.8 116.4 m 0
 513.8 59.6 554.2 23.4 607 23.4 c 0
 659.8 23.4 700.2 59.6 700.2 116.4 c 0
 700.2 169.6 653.8 208.2 607 208.2 c 0
 560.2 208.2 513.8 169.6 513.8 116.4 c 0
EndSplineSet
EndChar

StartChar: uni2074
Encoding: 8308 8308 168
Width: 380
VWidth: 0
Flags: HMW
LayerCount: 2
Fore
SplineSet
32 364 m 1
 59.6 393.4 l 1
 256.8 393.4 l 0
 263.6 393.4 l 0
 342.4 393.4 l 1
 342.4 364 l 1
 32 364 l 1
67.2 364 m 1
 32 364 l 1
 263.8 700 l 1
 276.8 700 l 1
 276.8 280 l 1
 243.4 280 l 1
 243.4 377.6 l 0
 243.4 382.4 l 0
 243.4 624.2 l 1
 67.2 364 l 1
EndSplineSet
EndChar

StartChar: uni2075
Encoding: 8309 8309 169
Width: 350
VWidth: 0
Flags: HMW
LayerCount: 2
Fore
SplineSet
313.6 416 m 0
 313.6 321 250 272 171.4 272 c 0
 99.2 272 57.6 309.6 32 360 c 1
 59.8 379.2 l 1
 80 336.4 118.6 303.2 171.4 303.2 c 0
 236.2 303.2 279.4 344.8 279.4 416 c 0
 279.4 480 235.4 523.2 177.8 523.2 c 0
 133 523.2 102.6 508.8 64.4 474 c 1
 86.4 505.6 l 1
 110.4 534.4 148.8 553.2 191 553.2 c 0
 260.6 553.2 313.6 496.6 313.6 416 c 0
144.4 668.6 m 1
 106.2 514 l 1
 64.4 474 l 1
 119.4 698 l 1
 317.4 698 l 1
 317.4 668.6 l 1
 144.4 668.6 l 1
EndSplineSet
EndChar

StartChar: uni2076
Encoding: 8310 8310 170
Width: 340
VWidth: 0
Flags: HMW
LayerCount: 2
Fore
SplineSet
69.4 413.6 m 0
 69.4 348.4 113.4 302 175.8 302 c 0
 238.2 302 282.2 348.4 282.2 413.6 c 0
 282.2 476.4 236.2 522.6 178.6 522.6 c 0
 112.6 522.6 69.4 474 69.4 413.6 c 0
205.6 698 m 1
 247.8 698 l 1
 110.2 511.4 l 1
 108.4 513.2 l 1
 128 537.6 155.8 547.2 190 547.2 c 0
 258 547.2 314 488.2 314 413.6 c 0
 314 330 256.8 272 175.8 272 c 0
 94.8 272 37.6 330 37.6 413.6 c 0
 37.6 447.6 51.4 481.8 67.4 503.8 c 2
 205.6 698 l 1
EndSplineSet
EndChar

StartChar: uni2077
Encoding: 8311 8311 171
Width: 353
VWidth: 0
Flags: HMW
LayerCount: 2
Fore
SplineSet
32 668.8 m 1
 32 700 l 1
 321.2 700 l 1
 111.8 280 l 1
 77.2 280 l 1
 271.6 668.8 l 1
 32 668.8 l 1
EndSplineSet
EndChar

StartChar: uni2078
Encoding: 8312 8312 172
Width: 314
VWidth: 0
Flags: HMW
LayerCount: 2
Fore
SplineSet
45.8 601.4 m 0
 45.8 658 93.4 706 157 706 c 0
 220.6 706 268.2 658 268.2 601.4 c 0
 268.2 538.8 218.8 496.2 157 496.2 c 0
 95.2 496.2 45.8 538.8 45.8 601.4 c 0
77.6 597.8 m 0
 77.6 550.6 118.6 517.6 157 517.6 c 0
 195.4 517.6 236.4 550.6 236.4 597.8 c 0
 236.4 642.6 203.2 676.6 157 676.6 c 0
 110.8 676.6 77.6 642.6 77.6 597.8 c 0
32 392.8 m 0
 32 465 91.6 509.6 157 509.6 c 0
 222.4 509.6 282 465 282 392.8 c 0
 282 327.8 232 274 157 274 c 0
 82 274 32 327.8 32 392.8 c 0
63.8 396.4 m 0
 63.8 339.6 104.2 303.4 157 303.4 c 0
 209.8 303.4 250.2 339.6 250.2 396.4 c 0
 250.2 449.6 203.8 488.2 157 488.2 c 0
 110.2 488.2 63.8 449.6 63.8 396.4 c 0
EndSplineSet
EndChar

StartChar: uni2079
Encoding: 8313 8313 173
Width: 340
VWidth: 0
Flags: HMW
LayerCount: 2
Fore
SplineSet
281.8 566.4 m 0
 281.8 631.6 237.8 678 175.4 678 c 0
 113 678 69 631.6 69 566.4 c 0
 69 503.6 115.4 457.4 173 457.4 c 0
 239 457.4 281.8 506 281.8 566.4 c 0
145.6 282 m 1
 103.8 282 l 1
 241 468.6 l 1
 242.8 466.8 l 1
 223.2 442.4 195.8 432.8 161.6 432.8 c 0
 93.6 432.8 37.2 491.8 37.2 566.4 c 0
 37.2 650 94.4 708 175.4 708 c 0
 256.4 708 313.6 650 313.6 566.4 c 0
 313.6 532.4 299.8 498.2 283.8 476.2 c 2
 145.6 282 l 1
EndSplineSet
EndChar

StartChar: uni2070
Encoding: 8304 8304 174
Width: 352
VWidth: 0
Flags: HMW
LayerCount: 2
Fore
SplineSet
65.4 490 m 0
 65.4 386.4 107.8 305.2 178.4 305.2 c 0
 249 305.2 291.4 386.4 291.4 490 c 0
 291.4 593.6 249 674.8 178.4 674.8 c 0
 107.8 674.8 65.4 593.6 65.4 490 c 0
32 490 m 0
 32 612.6 90 706 178.4 706 c 0
 266.8 706 324.8 612.6 324.8 490 c 0
 324.8 367.4 266.8 274 178.4 274 c 0
 90 274 32 367.4 32 490 c 0
EndSplineSet
EndChar

StartChar: uni2080
Encoding: 8320 8320 175
Width: 356
VWidth: 0
Flags: HMW
LayerCount: 2
Fore
SplineSet
65.4 210 m 0
 65.4 106.4 107.8 25.2 178.4 25.2 c 0
 249 25.2 291.4 106.4 291.4 210 c 0
 291.4 313.6 249 394.8 178.4 394.8 c 0
 107.8 394.8 65.4 313.6 65.4 210 c 0
32 210 m 0
 32 332.6 90 426 178.4 426 c 0
 266.8 426 324.8 332.6 324.8 210 c 0
 324.8 87.4 266.8 -6 178.4 -6 c 0
 90 -6 32 87.4 32 210 c 0
EndSplineSet
EndChar

StartChar: uni2084
Encoding: 8324 8324 176
Width: 380
VWidth: 0
Flags: HMW
LayerCount: 2
Fore
SplineSet
32 84 m 1
 59.6 113.4 l 1
 256.8 113.4 l 0
 263.6 113.4 l 0
 342.4 113.4 l 1
 342.4 84 l 1
 32 84 l 1
67.2 84 m 1
 32 84 l 1
 263.8 420 l 1
 276.8 420 l 1
 276.8 0 l 1
 243.4 0 l 1
 243.4 97.6 l 0
 243.4 102.4 l 0
 243.4 344.2 l 1
 67.2 84 l 1
EndSplineSet
EndChar

StartChar: uni2085
Encoding: 8325 8325 177
Width: 350
VWidth: 0
Flags: HMW
LayerCount: 2
Fore
SplineSet
313.6 136 m 0
 313.6 41 250 -8 171.4 -8 c 0
 99.2 -8 57.6 29.6 32 80 c 1
 59.8 99.2 l 1
 80 56.4 118.6 23.2 171.4 23.2 c 0
 236.2 23.2 279.4 64.8 279.4 136 c 0
 279.4 200 235.4 243.2 177.8 243.2 c 0
 133 243.2 102.6 228.8 64.4 194 c 1
 86.4 225.6 l 1
 110.4 254.4 148.8 273.2 191 273.2 c 0
 260.6 273.2 313.6 216.6 313.6 136 c 0
144.4 388.6 m 1
 106.2 234 l 1
 64.4 194 l 1
 119.4 418 l 1
 317.4 418 l 1
 317.4 388.6 l 1
 144.4 388.6 l 1
EndSplineSet
EndChar

StartChar: uni2086
Encoding: 8326 8326 178
Width: 340
VWidth: 0
Flags: HMW
LayerCount: 2
Fore
SplineSet
68.8 133.6 m 0
 68.8 68.4 112.8 22 175.2 22 c 0
 237.6 22 281.6 68.4 281.6 133.6 c 0
 281.6 196.4 235.6 242.6 178 242.6 c 0
 112 242.6 68.8 194 68.8 133.6 c 0
205 418 m 1
 247.2 418 l 1
 109.6 231.4 l 1
 107.8 233.2 l 1
 127.4 257.6 155.2 267.2 189.4 267.2 c 0
 257.4 267.2 313.4 208.2 313.4 133.6 c 0
 313.4 50 256.2 -8 175.2 -8 c 0
 94.2 -8 37 50 37 133.6 c 0
 37 167.6 50.8 201.8 66.8 223.8 c 2
 205 418 l 1
EndSplineSet
EndChar

StartChar: uni2087
Encoding: 8327 8327 179
Width: 353
VWidth: 0
Flags: HMW
LayerCount: 2
Fore
SplineSet
32 388.8 m 1
 32 420 l 1
 321.2 420 l 1
 111.8 0 l 1
 77.2 0 l 1
 271.6 388.8 l 1
 32 388.8 l 1
EndSplineSet
EndChar

StartChar: uni2088
Encoding: 8328 8328 180
Width: 314
VWidth: 0
Flags: HMW
LayerCount: 2
Fore
SplineSet
45.8 321.4 m 0
 45.8 378 93.4 426 157 426 c 0
 220.6 426 268.2 378 268.2 321.4 c 0
 268.2 258.8 218.8 216.2 157 216.2 c 0
 95.2 216.2 45.8 258.8 45.8 321.4 c 0
77.6 317.8 m 0
 77.6 270.6 118.6 237.6 157 237.6 c 0
 195.4 237.6 236.4 270.6 236.4 317.8 c 0
 236.4 362.6 203.2 396.6 157 396.6 c 0
 110.8 396.6 77.6 362.6 77.6 317.8 c 0
32 112.8 m 0
 32 185 91.6 229.6 157 229.6 c 0
 222.4 229.6 282 185 282 112.8 c 0
 282 47.8 232 -6 157 -6 c 0
 82 -6 32 47.8 32 112.8 c 0
63.8 116.4 m 0
 63.8 59.6 104.2 23.4 157 23.4 c 0
 209.8 23.4 250.2 59.6 250.2 116.4 c 0
 250.2 169.6 203.8 208.2 157 208.2 c 0
 110.2 208.2 63.8 169.6 63.8 116.4 c 0
EndSplineSet
EndChar

StartChar: uni2089
Encoding: 8329 8329 181
Width: 340
VWidth: 0
Flags: HMW
LayerCount: 2
Fore
SplineSet
271.6 286.4 m 0
 271.6 351.6 227.6 398 165.2 398 c 0
 102.8 398 58.8 351.6 58.8 286.4 c 0
 58.8 223.6 105.2 177.4 162.8 177.4 c 0
 228.8 177.4 271.6 226 271.6 286.4 c 0
135.4 2 m 1
 93.6 2 l 1
 230.8 188.6 l 1
 232.6 186.8 l 1
 213 162.4 185.6 152.8 151.4 152.8 c 0
 83.4 152.8 27 211.8 27 286.4 c 0
 27 370 84.2 428 165.2 428 c 0
 246.2 428 303.4 370 303.4 286.4 c 0
 303.4 252.4 289.6 218.2 273.6 196.2 c 2
 135.4 2 l 1
EndSplineSet
EndChar

StartChar: uni2081
Encoding: 8321 8321 182
Width: 303
VWidth: 0
Flags: HMW
LayerCount: 2
Fore
SplineSet
92 360 m 1
 92 394.6 l 1
 221.6 425.8 l 1
 221.6 1 l 1
 188.6 1 l 1
 188.6 386 l 1
 92 360 l 1
EndSplineSet
EndChar

StartChar: uni2082
Encoding: 8322 8322 183
Width: 340
VWidth: 0
Flags: HMW
LayerCount: 2
Fore
SplineSet
27 2 m 1
 222.6 209.6 l 2
 251 239.4 271.8 268.8 271.8 309.2 c 0
 271.8 350.2 245.2 397.8 183.4 397.8 c 0
 122.2 397.8 81.6 350.4 81.6 278 c 1
 48.6 278 l 1
 48.6 367 101.2 429 183.4 429 c 0
 270.6 429 305.4 360.4 305.4 306.8 c 0
 305.4 261.4 280.4 224 248.6 191.2 c 2
 96 33.2 l 1
 313.4 33.2 l 1
 313.4 2 l 1
 27 2 l 1
EndSplineSet
EndChar

StartChar: uni2083
Encoding: 8323 8323 184
Width: 314
VWidth: 0
Flags: HMW
LayerCount: 2
Fore
SplineSet
140.6 211 m 1
 140.6 232.8 l 1
 194.6 232.8 241.6 267 241.6 315.8 c 0
 241.6 359.8 213.6 396 161.6 396 c 0
 112.2 396 76.8 362.6 76.8 316 c 1
 45 316 l 1
 45 381 92.6 426 161.6 426 c 0
 233.6 426 275.2 373 275.2 316.4 c 0
 275.2 255 214.4 211 140.6 211 c 1
158.6 -6 m 0
 77.6 -6 27 46 27 111 c 1
 60.6 111 l 1
 60.6 61.4 98.6 25.2 158.6 25.2 c 0
 216.2 25.2 253.6 60.2 253.6 112.2 c 0
 253.6 173.4 194.6 203.4 140.6 203.4 c 1
 140.6 225.2 l 1
 214.4 225.2 287.2 189.2 287.2 108.6 c 0
 287.2 40 233.6 -6 158.6 -6 c 0
EndSplineSet
EndChar

StartChar: Agrave
Encoding: 192 192 185
Width: 636
VWidth: 0
Flags: HMW
LayerCount: 2
Fore
SplineSet
139 234.8 m 1
 157 286.8 l 1
 481 286.8 l 1
 499 234.8 l 1
 139 234.8 l 1
318 600.4 m 1
 181.6 269.2 l 1
 176.4 256.8 l 1
 70.8 0 l 1
 9 0 l 1
 318 727 l 1
 627 0 l 1
 565.2 0 l 1
 461.2 253.2 l 1
 456 266.4 l 1
 318 600.4 l 1
185.6 939.8 m 1
 233.8 967 l 1
 391.8 807 l 1
 363.2 787 l 1
 185.6 939.8 l 1
EndSplineSet
EndChar

StartChar: Aacute
Encoding: 193 193 186
Width: 636
VWidth: 0
Flags: HMW
LayerCount: 2
Fore
SplineSet
139 234.8 m 1
 157 286.8 l 1
 481 286.8 l 1
 499 234.8 l 1
 139 234.8 l 1
318 600.4 m 1
 181.6 269.2 l 1
 176.4 256.8 l 1
 70.8 0 l 1
 9 0 l 1
 318 727 l 1
 627 0 l 1
 565.2 0 l 1
 461.2 253.2 l 1
 456 266.4 l 1
 318 600.4 l 1
450.4 939.8 m 1
 272.8 787 l 1
 244.2 807 l 1
 402.2 967 l 1
 450.4 939.8 l 1
EndSplineSet
EndChar

StartChar: Acircumflex
Encoding: 194 194 187
Width: 636
VWidth: 0
Flags: HMW
LayerCount: 2
Fore
SplineSet
139 234.8 m 1
 157 286.8 l 1
 481 286.8 l 1
 499 234.8 l 1
 139 234.8 l 1
318 600.4 m 1
 181.6 269.2 l 1
 176.4 256.8 l 1
 70.8 0 l 1
 9 0 l 1
 318 727 l 1
 627 0 l 1
 565.2 0 l 1
 461.2 253.2 l 1
 456 266.4 l 1
 318 600.4 l 1
318 874 m 1
 190.8 763 l 1
 158 789.8 l 1
 318 929.8 l 1
 478 789.8 l 1
 445.2 763 l 1
 318 874 l 1
EndSplineSet
EndChar

StartChar: Atilde
Encoding: 195 195 188
Width: 636
VWidth: 0
Flags: HMW
LayerCount: 2
Fore
SplineSet
139 234.8 m 1
 157 286.8 l 1
 481 286.8 l 1
 499 234.8 l 1
 139 234.8 l 1
318 600.4 m 1
 181.6 269.2 l 1
 176.4 256.8 l 1
 70.8 0 l 1
 9 0 l 1
 318 727 l 1
 627 0 l 1
 565.2 0 l 1
 461.2 253.2 l 1
 456 266.4 l 1
 318 600.4 l 1
168.6 805.6 m 1
 174.6 846.6 210.8 878 255.8 878 c 0
 316.8 878 325.8 831 379.8 831 c 0
 402.8 831 417.8 847 435.8 879 c 1
 467.4 852 l 1
 451.4 815 419.4 787 377.4 787 c 0
 322.4 787 301 834 256 834 c 0
 215 834 204.4 802 204.4 783 c 1
 168.6 805.6 l 1
EndSplineSet
EndChar

StartChar: Adieresis
Encoding: 196 196 189
Width: 636
VWidth: 0
Flags: HMW
LayerCount: 2
Fore
SplineSet
139 234.8 m 1
 157 286.8 l 1
 481 286.8 l 1
 499 234.8 l 1
 139 234.8 l 1
318 600.4 m 1
 181.6 269.2 l 1
 176.4 256.8 l 1
 70.8 0 l 1
 9 0 l 1
 318 727 l 1
 627 0 l 1
 565.2 0 l 1
 461.2 253.2 l 1
 456 266.4 l 1
 318 600.4 l 1
380.6 832.4 m 0
 380.6 853.2 397.6 869.8 418 869.8 c 0
 438.4 869.8 455.4 853.2 455.4 832.4 c 0
 455.4 811.6 438.4 795 418 795 c 0
 397.6 795 380.6 811.6 380.6 832.4 c 0
180.6 832.4 m 0
 180.6 853.2 197.6 869.8 218 869.8 c 0
 238.4 869.8 255.4 853.2 255.4 832.4 c 0
 255.4 811.6 238.4 795 218 795 c 0
 197.6 795 180.6 811.6 180.6 832.4 c 0
EndSplineSet
EndChar

StartChar: Aring
Encoding: 197 197 190
Width: 636
VWidth: 0
Flags: HMW
LayerCount: 2
Fore
SplineSet
139 234.8 m 1
 157 286.8 l 1
 481 286.8 l 1
 499 234.8 l 1
 139 234.8 l 1
318 600.4 m 1
 181.6 269.2 l 1
 176.4 256.8 l 1
 70.8 0 l 1
 9 0 l 1
 318 727 l 1
 627 0 l 1
 565.2 0 l 1
 461.2 253.2 l 1
 456 266.4 l 1
 318 600.4 l 1
216 802 m 0
 216 862 266 902 318 902 c 0
 370 902 420 862 420 802 c 0
 420 742 370 702 318 702 c 0
 266 702 216 742 216 802 c 0
250.6 802 m 0
 250.6 761 283.8 734.2 318 734.2 c 0
 352.2 734.2 385.4 761 385.4 802 c 0
 385.4 843 352.2 869.8 318 869.8 c 0
 283.8 869.8 250.6 843 250.6 802 c 0
EndSplineSet
EndChar

StartChar: AE
Encoding: 198 198 191
Width: 934
VWidth: 0
Flags: HMW
LayerCount: 2
Fore
SplineSet
213 238 m 1
 213 290 l 1
 509 290 l 1
 509 238 l 1
 213 238 l 1
455 700 m 1
 501.6 676 l 1
 67.2 0 l 1
 5 0 l 1
 455 700 l 1
521 0 m 1
 521 52 l 1
 860.4 52 l 1
 860.4 0 l 1
 521 0 l 1
527 648 m 1
 455 700 l 1
 860.4 700 l 1
 860.4 648 l 1
 527 648 l 1
521 357.6 m 1
 521 409.6 l 1
 840.4 409.6 l 1
 840.4 357.6 l 1
 521 357.6 l 1
490 700 m 1
 545.4 700 l 1
 545.4 0 l 1
 490 0 l 1
 490 700 l 1
EndSplineSet
EndChar

StartChar: Ccedilla
Encoding: 199 199 192
Width: 685
VWidth: 0
Flags: HMW
LayerCount: 2
Fore
SplineSet
102.8 350 m 0
 102.8 172.2 228.4 46.6 386 46.6 c 0
 485 46.6 558.4 82.6 611 142.6 c 1
 611 69 l 1
 552 17 488 -9.2 386 -9.2 c 0
 192 -9.2 44 141 44 350 c 0
 44 559 192 709.2 386 709.2 c 0
 488 709.2 552 683 611 631 c 1
 611 557.8 l 1
 559.2 617.4 483 653.4 386 653.4 c 0
 228.8 653.4 102.8 529 102.8 350 c 0
377.6 35 m 1
 418.4 35 l 1
 358.2 -62.6 l 1
 370.4 -56.2 376.6 -53 391.6 -53 c 0
 424.6 -53 464 -78 464 -127 c 0
 464 -188 412.6 -221 357.6 -221 c 0
 320.6 -221 296 -211 268 -183 c 1
 291.2 -156.6 l 1
 313.8 -175.8 328.8 -184.6 357.6 -184.6 c 0
 396.8 -184.6 426.4 -163.8 426.4 -127 c 0
 426.4 -95 403.2 -79.8 371.2 -79.8 c 0
 353.2 -79.8 325.8 -86.2 304 -101 c 1
 377.6 35 l 1
EndSplineSet
EndChar

StartChar: Egrave
Encoding: 200 200 193
Width: 534
VWidth: 0
Flags: HMW
LayerCount: 2
Fore
SplineSet
113 0 m 1
 113 52 l 1
 460 52 l 1
 460 0 l 1
 113 0 l 1
113 648 m 1
 113 700 l 1
 460 700 l 1
 460 648 l 1
 113 648 l 1
113 357.6 m 1
 113 409.6 l 1
 440 409.6 l 1
 440 357.6 l 1
 113 357.6 l 1
84 700 m 1
 139.4 700 l 1
 139.4 0 l 1
 84 0 l 1
 84 700 l 1
131.6 922 m 1
 179.8 949.2 l 1
 337.8 789.2 l 1
 309.2 769.2 l 1
 131.6 922 l 1
EndSplineSet
EndChar

StartChar: Eacute
Encoding: 201 201 194
Width: 534
VWidth: 0
Flags: HMW
LayerCount: 2
Fore
SplineSet
113 0 m 1
 113 52 l 1
 460 52 l 1
 460 0 l 1
 113 0 l 1
113 648 m 1
 113 700 l 1
 460 700 l 1
 460 648 l 1
 113 648 l 1
113 357.6 m 1
 113 409.6 l 1
 440 409.6 l 1
 440 357.6 l 1
 113 357.6 l 1
84 700 m 1
 139.4 700 l 1
 139.4 0 l 1
 84 0 l 1
 84 700 l 1
412.4 922 m 1
 234.8 769.2 l 1
 206.2 789.2 l 1
 364.2 949.2 l 1
 412.4 922 l 1
EndSplineSet
EndChar

StartChar: Ecircumflex
Encoding: 202 202 195
Width: 534
VWidth: 0
Flags: HMW
LayerCount: 2
Fore
SplineSet
113 0 m 1
 113 52 l 1
 460 52 l 1
 460 0 l 1
 113 0 l 1
113 648 m 1
 113 700 l 1
 460 700 l 1
 460 648 l 1
 113 648 l 1
113 357.6 m 1
 113 409.6 l 1
 440 409.6 l 1
 440 357.6 l 1
 113 357.6 l 1
84 700 m 1
 139.4 700 l 1
 139.4 0 l 1
 84 0 l 1
 84 700 l 1
278 880.2 m 1
 150.8 769.2 l 1
 118 796 l 1
 278 936 l 1
 438 796 l 1
 405.2 769.2 l 1
 278 880.2 l 1
EndSplineSet
EndChar

StartChar: Edieresis
Encoding: 203 203 196
Width: 534
VWidth: 0
Flags: HMW
LayerCount: 2
Fore
SplineSet
113 0 m 1
 113 52 l 1
 460 52 l 1
 460 0 l 1
 113 0 l 1
113 648 m 1
 113 700 l 1
 460 700 l 1
 460 648 l 1
 113 648 l 1
113 357.6 m 1
 113 409.6 l 1
 440 409.6 l 1
 440 357.6 l 1
 113 357.6 l 1
84 700 m 1
 139.4 700 l 1
 139.4 0 l 1
 84 0 l 1
 84 700 l 1
340.6 826.6 m 0
 340.6 847.4 357.6 864 378 864 c 0
 398.4 864 415.4 847.4 415.4 826.6 c 0
 415.4 805.8 398.4 789.2 378 789.2 c 0
 357.6 789.2 340.6 805.8 340.6 826.6 c 0
140.6 826.6 m 0
 140.6 847.4 157.6 864 178 864 c 0
 198.4 864 215.4 847.4 215.4 826.6 c 0
 215.4 805.8 198.4 789.2 178 789.2 c 0
 157.6 789.2 140.6 805.8 140.6 826.6 c 0
EndSplineSet
EndChar

StartChar: Igrave
Encoding: 204 204 197
Width: 219
VWidth: 0
Flags: HMW
LayerCount: 2
Fore
SplineSet
82 700 m 1
 137 700 l 1
 137 0 l 1
 82 0 l 1
 82 700 l 1
-31.2 922 m 1
 17.6 949.2 l 1
 175.6 789.2 l 1
 146.4 769.2 l 1
 -31.2 922 l 1
EndSplineSet
EndChar

StartChar: Iacute
Encoding: 205 205 198
Width: 219
VWidth: 0
Flags: HMW
LayerCount: 2
Fore
SplineSet
82 700 m 1
 137 700 l 1
 137 0 l 1
 82 0 l 1
 82 700 l 1
249.6 922 m 1
 72 769.2 l 1
 44 789.2 l 1
 202 949.2 l 1
 249.6 922 l 1
EndSplineSet
EndChar

StartChar: Icircumflex
Encoding: 206 206 199
Width: 219
VWidth: 0
Flags: HMW
LayerCount: 2
Fore
SplineSet
82 700 m 1
 137 700 l 1
 137 0 l 1
 82 0 l 1
 82 700 l 1
109.2 880.2 m 1
 -18 769.2 l 1
 -50.8 796 l 1
 109.2 936 l 1
 269.2 796 l 1
 236.4 769.2 l 1
 109.2 880.2 l 1
EndSplineSet
EndChar

StartChar: Idieresis
Encoding: 207 207 200
Width: 219
VWidth: 0
Flags: HMW
LayerCount: 2
Fore
SplineSet
82 700 m 1
 137 700 l 1
 137 0 l 1
 82 0 l 1
 82 700 l 1
160.4 814.6 m 0
 160.4 835.4 176.8 852 197.2 852 c 0
 217.6 852 235.2 835.4 235.2 814.6 c 0
 235.2 793.8 217.6 777.2 197.2 777.2 c 0
 176.8 777.2 160.4 793.8 160.4 814.6 c 0
-15.6 814.6 m 0
 -15.6 835.4 0.8 852 21.2 852 c 0
 41.6 852 59.2 835.4 59.2 814.6 c 0
 59.2 793.8 41.6 777.2 21.2 777.2 c 0
 0.8 777.2 -15.6 793.8 -15.6 814.6 c 0
EndSplineSet
EndChar

StartChar: Ntilde
Encoding: 209 209 201
Width: 731
VWidth: 0
Flags: HMW
LayerCount: 2
Fore
SplineSet
599.6 700 m 1
 655 700 l 1
 655 -27 l 1
 123.4 583.8 l 1
 123.4 0 l 1
 68 0 l 1
 68 727 l 1
 599.6 114.2 l 1
 599.6 700 l 1
210.8 777.6 m 1
 216.8 818.6 253 850 298 850 c 0
 359 850 368 803 422 803 c 0
 445 803 460 819 478 851 c 1
 509.2 824 l 1
 493.2 787 461.2 759 419.2 759 c 0
 364.2 759 343.2 806 298.2 806 c 0
 257.2 806 246.2 774 246.2 755 c 1
 210.8 777.6 l 1
EndSplineSet
EndChar

StartChar: Eth
Encoding: 208 208 202
Width: 680
VWidth: 0
Flags: HMW
LayerCount: 2
Fore
SplineSet
5 324 m 1
 5 373 l 1
 305 373 l 1
 305 324 l 1
 5 324 l 1
84 700 m 1
 139.4 700 l 1
 139.4 0 l 1
 84 0 l 1
 84 700 l 1
274 0 m 2
 114.2 0 l 1
 114.2 55.4 l 1
 274 55.4 l 2
 448 55.4 562.6 171 562.6 350 c 0
 562.6 529 448 644.6 274 644.6 c 2
 114.2 644.6 l 1
 114.2 700 l 1
 274 700 l 2
 478 700 618 559 618 350 c 0
 618 141 478 0 274 0 c 2
EndSplineSet
EndChar

StartChar: Ograve
Encoding: 210 210 203
Width: 783
VWidth: 0
Flags: HMW
LayerCount: 2
Fore
SplineSet
102.4 350 m 0
 102.4 174.8 223.6 46.2 391.8 46.2 c 0
 560 46.2 681.2 174.8 681.2 350 c 0
 681.2 525.2 560 653.8 391.8 653.8 c 0
 223.6 653.8 102.4 525.2 102.4 350 c 0
44 350 m 0
 44 556 191.8 709.2 391.8 709.2 c 0
 591.8 709.2 739.6 556 739.6 350 c 0
 739.6 144 591.8 -9.2 391.8 -9.2 c 0
 191.8 -9.2 44 144 44 350 c 0
265.8 922 m 1
 314 949.2 l 1
 472 789.2 l 1
 442.6 769.2 l 1
 265.8 922 l 1
EndSplineSet
EndChar

StartChar: Oacute
Encoding: 211 211 204
Width: 783
VWidth: 0
Flags: HMW
LayerCount: 2
Fore
SplineSet
102.4 350 m 0
 102.4 174.8 223.6 46.2 391.8 46.2 c 0
 560 46.2 681.2 174.8 681.2 350 c 0
 681.2 525.2 560 653.8 391.8 653.8 c 0
 223.6 653.8 102.4 525.2 102.4 350 c 0
44 350 m 0
 44 556 191.8 709.2 391.8 709.2 c 0
 591.8 709.2 739.6 556 739.6 350 c 0
 739.6 144 591.8 -9.2 391.8 -9.2 c 0
 191.8 -9.2 44 144 44 350 c 0
517.8 922 m 1
 341 769.2 l 1
 311.6 789.2 l 1
 469.6 949.2 l 1
 517.8 922 l 1
EndSplineSet
EndChar

StartChar: Ocircumflex
Encoding: 212 212 205
Width: 783
VWidth: 0
Flags: HMW
LayerCount: 2
Fore
SplineSet
102.4 350 m 0
 102.4 174.8 223.6 46.2 391.8 46.2 c 0
 560 46.2 681.2 174.8 681.2 350 c 0
 681.2 525.2 560 653.8 391.8 653.8 c 0
 223.6 653.8 102.4 525.2 102.4 350 c 0
44 350 m 0
 44 556 191.8 709.2 391.8 709.2 c 0
 591.8 709.2 739.6 556 739.6 350 c 0
 739.6 144 591.8 -9.2 391.8 -9.2 c 0
 191.8 -9.2 44 144 44 350 c 0
391.8 880.2 m 1
 264.6 769.2 l 1
 231.8 796 l 1
 391.8 936 l 1
 551.8 796 l 1
 519 769.2 l 1
 391.8 880.2 l 1
EndSplineSet
EndChar

StartChar: Otilde
Encoding: 213 213 206
Width: 783
VWidth: 0
Flags: HMW
LayerCount: 2
Fore
SplineSet
102.4 350 m 0
 102.4 174.8 223.6 46.2 391.8 46.2 c 0
 560 46.2 681.2 174.8 681.2 350 c 0
 681.2 525.2 560 653.8 391.8 653.8 c 0
 223.6 653.8 102.4 525.2 102.4 350 c 0
44 350 m 0
 44 556 191.8 709.2 391.8 709.2 c 0
 591.8 709.2 739.6 556 739.6 350 c 0
 739.6 144 591.8 -9.2 391.8 -9.2 c 0
 191.8 -9.2 44 144 44 350 c 0
242.8 799.8 m 1
 248.8 840.8 285 872.2 330 872.2 c 0
 391 872.2 400 825.2 454 825.2 c 0
 477 825.2 492 841.2 510 873.2 c 1
 540.8 846.2 l 1
 524.8 809.2 492.8 781.2 450.8 781.2 c 0
 395.8 781.2 375.2 828.2 330.2 828.2 c 0
 289.2 828.2 277.8 796.2 277.8 777.2 c 1
 242.8 799.8 l 1
EndSplineSet
EndChar

StartChar: Odieresis
Encoding: 214 214 207
Width: 783
VWidth: 0
Flags: HMW
LayerCount: 2
Fore
SplineSet
102.4 350 m 0
 102.4 174.8 223.6 46.2 391.8 46.2 c 0
 560 46.2 681.2 174.8 681.2 350 c 0
 681.2 525.2 560 653.8 391.8 653.8 c 0
 223.6 653.8 102.4 525.2 102.4 350 c 0
44 350 m 0
 44 556 191.8 709.2 391.8 709.2 c 0
 591.8 709.2 739.6 556 739.6 350 c 0
 739.6 144 591.8 -9.2 391.8 -9.2 c 0
 191.8 -9.2 44 144 44 350 c 0
458.4 818.6 m 0
 458.4 839.4 475.4 856 495.8 856 c 0
 516.2 856 533.2 839.4 533.2 818.6 c 0
 533.2 797.8 516.2 781.2 495.8 781.2 c 0
 475.4 781.2 458.4 797.8 458.4 818.6 c 0
250.4 818.6 m 0
 250.4 839.4 267.4 856 287.8 856 c 0
 308.2 856 325.2 839.4 325.2 818.6 c 0
 325.2 797.8 308.2 781.2 287.8 781.2 c 0
 267.4 781.2 250.4 797.8 250.4 818.6 c 0
EndSplineSet
EndChar

StartChar: Ugrave
Encoding: 217 217 208
Width: 606
VWidth: 0
Flags: HMW
LayerCount: 2
Fore
SplineSet
79 700 m 1
 134.4 700 l 1
 134.4 226 l 2
 134.4 114 195 42.4 303 42.4 c 0
 411 42.4 471.6 114 471.6 226 c 2
 471.6 700 l 1
 527 700 l 1
 527 226 l 2
 527 87 444 -10 303 -10 c 0
 162 -10 79 87 79 226 c 2
 79 700 l 1
170.6 922 m 1
 218.8 949.2 l 1
 376.8 789.2 l 1
 348.2 769.2 l 1
 170.6 922 l 1
EndSplineSet
EndChar

StartChar: Uacute
Encoding: 218 218 209
Width: 606
VWidth: 0
Flags: HMW
LayerCount: 2
Fore
SplineSet
79 700 m 1
 134.4 700 l 1
 134.4 226 l 2
 134.4 114 195 42.4 303 42.4 c 0
 411 42.4 471.6 114 471.6 226 c 2
 471.6 700 l 1
 527 700 l 1
 527 226 l 2
 527 87 444 -10 303 -10 c 0
 162 -10 79 87 79 226 c 2
 79 700 l 1
435.4 922 m 1
 257.8 769.2 l 1
 229.2 789.2 l 1
 387.2 949.2 l 1
 435.4 922 l 1
EndSplineSet
EndChar

StartChar: Ucircumflex
Encoding: 219 219 210
Width: 606
VWidth: 0
Flags: HMW
LayerCount: 2
Fore
SplineSet
79 700 m 1
 134.4 700 l 1
 134.4 226 l 2
 134.4 114 195 42.4 303 42.4 c 0
 411 42.4 471.6 114 471.6 226 c 2
 471.6 700 l 1
 527 700 l 1
 527 226 l 2
 527 87 444 -10 303 -10 c 0
 162 -10 79 87 79 226 c 2
 79 700 l 1
303 880.2 m 1
 175.8 769.2 l 1
 143 796 l 1
 303 936 l 1
 463 796 l 1
 430.2 769.2 l 1
 303 880.2 l 1
EndSplineSet
EndChar

StartChar: Udieresis
Encoding: 220 220 211
Width: 606
VWidth: 0
Flags: HMW
LayerCount: 2
Fore
SplineSet
79 700 m 1
 134.4 700 l 1
 134.4 226 l 2
 134.4 114 195 42.4 303 42.4 c 0
 411 42.4 471.6 114 471.6 226 c 2
 471.6 700 l 1
 527 700 l 1
 527 226 l 2
 527 87 444 -10 303 -10 c 0
 162 -10 79 87 79 226 c 2
 79 700 l 1
361.6 806.6 m 0
 361.6 827.4 378.6 844 399 844 c 0
 419.4 844 436.4 827.4 436.4 806.6 c 0
 436.4 785.8 419.4 769.2 399 769.2 c 0
 378.6 769.2 361.6 785.8 361.6 806.6 c 0
169.6 806.6 m 0
 169.6 827.4 186.6 844 207 844 c 0
 227.4 844 244.4 827.4 244.4 806.6 c 0
 244.4 785.8 227.4 769.2 207 769.2 c 0
 186.6 769.2 169.6 785.8 169.6 806.6 c 0
EndSplineSet
EndChar

StartChar: Yacute
Encoding: 221 221 212
Width: 539
VWidth: 0
Flags: HMW
LayerCount: 2
Fore
SplineSet
409.6 922 m 1
 232.4 769.2 l 1
 204 789.2 l 1
 362 949.2 l 1
 409.6 922 l 1
468.2 700 m 1
 530.4 700 l 1
 295.4 288 l 1
 295.4 0 l 1
 240 0 l 1
 240 287 l 1
 9 700 l 1
 71.2 700 l 1
 267.2 338 l 1
 468.2 700 l 1
EndSplineSet
EndChar

StartChar: agrave
Encoding: 224 224 213
Width: 465
VWidth: 0
Flags: HMW
LayerCount: 2
Fore
SplineSet
86.6 135 m 0
 86.6 66.4 135.6 36.6 202 36.6 c 0
 286 36.6 349 86 349 172 c 1
 360.6 142 l 1
 360.6 53 287.8 -10 190 -10 c 0
 103 -10 34 37 34 129 c 0
 34 232 121 284 224 284 c 0
 308 284 353.2 246.4 370 229 c 1
 370 196.8 l 1
 333.4 224.8 288.4 243.4 226.4 243.4 c 0
 144.6 243.4 86.6 205.4 86.6 135 c 0
100.2 369.2 m 1
 74 409 l 1
 107.6 436.4 163 470 242 470 c 0
 341 470 401 415 401 326 c 2
 401 0 l 1
 349 0 l 1
 349 326 l 2
 349 388 305.2 424 242 424 c 0
 176 424 128.2 392.8 100.2 369.2 c 1
92 690.8 m 1
 140.2 718 l 1
 298.2 558 l 1
 268.8 538 l 1
 92 690.8 l 1
EndSplineSet
Substitution2: "alt a" agrave.alt
EndChar

StartChar: aacute
Encoding: 225 225 214
Width: 465
VWidth: 0
Flags: HMW
LayerCount: 2
Fore
SplineSet
86.6 135 m 0
 86.6 66.4 135.6 36.6 202 36.6 c 0
 286 36.6 349 86 349 172 c 1
 360.6 142 l 1
 360.6 53 287.8 -10 190 -10 c 0
 103 -10 34 37 34 129 c 0
 34 232 121 284 224 284 c 0
 308 284 353.2 246.4 370 229 c 1
 370 196.8 l 1
 333.4 224.8 288.4 243.4 226.4 243.4 c 0
 144.6 243.4 86.6 205.4 86.6 135 c 0
100.2 369.2 m 1
 74 409 l 1
 107.6 436.4 163 470 242 470 c 0
 341 470 401 415 401 326 c 2
 401 0 l 1
 349 0 l 1
 349 326 l 2
 349 388 305.2 424 242 424 c 0
 176 424 128.2 392.8 100.2 369.2 c 1
384 690.8 m 1
 207.2 538 l 1
 177.8 558 l 1
 335.8 718 l 1
 384 690.8 l 1
EndSplineSet
Substitution2: "alt a" aacute.alt
EndChar

StartChar: acircumflex
Encoding: 226 226 215
Width: 465
VWidth: 0
Flags: HMW
LayerCount: 2
Fore
SplineSet
86.6 135 m 0
 86.6 66.4 135.6 36.6 202 36.6 c 0
 286 36.6 349 86 349 172 c 1
 360.6 142 l 1
 360.6 53 287.8 -10 190 -10 c 0
 103 -10 34 37 34 129 c 0
 34 232 121 284 224 284 c 0
 308 284 353.2 246.4 370 229 c 1
 370 196.8 l 1
 333.4 224.8 288.4 243.4 226.4 243.4 c 0
 144.6 243.4 86.6 205.4 86.6 135 c 0
100.2 369.2 m 1
 74 409 l 1
 107.6 436.4 163 470 242 470 c 0
 341 470 401 415 401 326 c 2
 401 0 l 1
 349 0 l 1
 349 326 l 2
 349 388 305.2 424 242 424 c 0
 176 424 128.2 392.8 100.2 369.2 c 1
242 645 m 1
 114.8 534 l 1
 82 560.8 l 1
 242 700.8 l 1
 402 560.8 l 1
 369.2 534 l 1
 242 645 l 1
EndSplineSet
Substitution2: "alt a" acircumflex.alt
EndChar

StartChar: atilde
Encoding: 227 227 216
Width: 465
VWidth: 0
Flags: HMW
LayerCount: 2
Fore
SplineSet
86.6 135 m 0
 86.6 66.4 135.6 36.6 202 36.6 c 0
 286 36.6 349 86 349 172 c 1
 360.6 142 l 1
 360.6 53 287.8 -10 190 -10 c 0
 103 -10 34 37 34 129 c 0
 34 232 121 284 224 284 c 0
 308 284 353.2 246.4 370 229 c 1
 370 196.8 l 1
 333.4 224.8 288.4 243.4 226.4 243.4 c 0
 144.6 243.4 86.6 205.4 86.6 135 c 0
100.2 369.2 m 1
 74 409 l 1
 107.6 436.4 163 470 242 470 c 0
 341 470 401 415 401 326 c 2
 401 0 l 1
 349 0 l 1
 349 326 l 2
 349 388 305.2 424 242 424 c 0
 176 424 128.2 392.8 100.2 369.2 c 1
89 572.6 m 1
 95 613.6 131.2 645 176.2 645 c 0
 237.2 645 246.2 598 300.2 598 c 0
 323.2 598 338.2 614 356.2 646 c 1
 387 619 l 1
 371 582 339 554 297 554 c 0
 242 554 221.4 601 176.4 601 c 0
 135.4 601 124 569 124 550 c 1
 89 572.6 l 1
EndSplineSet
Substitution2: "alt a" atilde.alt
EndChar

StartChar: adieresis
Encoding: 228 228 217
Width: 465
VWidth: 0
Flags: HMW
LayerCount: 2
Fore
SplineSet
86.6 135 m 0
 86.6 66.4 135.6 36.6 202 36.6 c 0
 286 36.6 349 86 349 172 c 1
 360.6 142 l 1
 360.6 53 287.8 -10 190 -10 c 0
 103 -10 34 37 34 129 c 0
 34 232 121 284 224 284 c 0
 308 284 353.2 246.4 370 229 c 1
 370 196.8 l 1
 333.4 224.8 288.4 243.4 226.4 243.4 c 0
 144.6 243.4 86.6 205.4 86.6 135 c 0
100.2 369.2 m 1
 74 409 l 1
 107.6 436.4 163 470 242 470 c 0
 341 470 401 415 401 326 c 2
 401 0 l 1
 349 0 l 1
 349 326 l 2
 349 388 305.2 424 242 424 c 0
 176 424 128.2 392.8 100.2 369.2 c 1
292.6 575.4 m 0
 292.6 596.2 309.6 612.8 330 612.8 c 0
 350.4 612.8 367.4 596.2 367.4 575.4 c 0
 367.4 554.6 350.4 538 330 538 c 0
 309.6 538 292.6 554.6 292.6 575.4 c 0
108.6 575.4 m 0
 108.6 596.2 125.6 612.8 146 612.8 c 0
 166.4 612.8 183.4 596.2 183.4 575.4 c 0
 183.4 554.6 166.4 538 146 538 c 0
 125.6 538 108.6 554.6 108.6 575.4 c 0
EndSplineSet
Substitution2: "alt a" adieresis.alt
EndChar

StartChar: aring
Encoding: 229 229 218
Width: 465
VWidth: 0
Flags: HMW
LayerCount: 2
Fore
SplineSet
86.6 135 m 0
 86.6 66.4 135.6 36.6 202 36.6 c 0
 286 36.6 349 86 349 172 c 1
 360.6 142 l 1
 360.6 53 287.8 -10 190 -10 c 0
 103 -10 34 37 34 129 c 0
 34 232 121 284 224 284 c 0
 308 284 353.2 246.4 370 229 c 1
 370 196.8 l 1
 333.4 224.8 288.4 243.4 226.4 243.4 c 0
 144.6 243.4 86.6 205.4 86.6 135 c 0
100.2 369.2 m 1
 74 409 l 1
 107.6 436.4 163 470 242 470 c 0
 341 470 401 415 401 326 c 2
 401 0 l 1
 349 0 l 1
 349 326 l 2
 349 388 305.2 424 242 424 c 0
 176 424 128.2 392.8 100.2 369.2 c 1
140 630 m 0
 140 690 190 730 242 730 c 0
 294 730 344 690 344 630 c 0
 344 570 294 530 242 530 c 0
 190 530 140 570 140 630 c 0
174.6 630 m 0
 174.6 589 207.8 562.2 242 562.2 c 0
 276.2 562.2 309.4 589 309.4 630 c 0
 309.4 671 276.2 697.8 242 697.8 c 0
 207.8 697.8 174.6 671 174.6 630 c 0
EndSplineSet
Substitution2: "alt a" aring.alt
EndChar

StartChar: germandbls
Encoding: 223 223 219
Width: 554
VWidth: 0
Flags: HMW
LayerCount: 2
Fore
SplineSet
264 39 m 1
 364 39 456.4 115 456.4 231 c 0
 456.4 343.8 354 420.2 244 420.2 c 1
 244 456 l 1
 399 456 509 360 509 225 c 0
 509 86 399 -10 264 -10 c 1
 264 39 l 1
244 433 m 1
 244 469.2 l 1
 354 469.2 416.4 520 416.4 600 c 0
 416.4 678 375 741 269 741 c 0
 193 741 132 690 132 606 c 2
 132 0 l 1
 80 0 l 1
 80 606 l 2
 80 715 164 790 269 790 c 0
 404 790 469 715 469 606 c 0
 469 495 399 433 244 433 c 1
EndSplineSet
EndChar

StartChar: ae
Encoding: 230 230 220
Width: 825
VWidth: 0
Flags: HMW
LayerCount: 2
Fore
SplineSet
86.6 133.8 m 0
 86.6 76.8 124.4 36.6 202.4 36.6 c 0
 285.6 36.6 349 88.8 349 174.8 c 1
 379.8 144.4 l 1
 379.8 55.4 299 -10 202.4 -10 c 0
 92.6 -10 34 46.2 34 127.8 c 0
 34 229.6 116.6 284 225.6 284 c 0
 309.6 284 356 244.4 370 229 c 1
 370 196.8 l 1
 335.8 223.2 290 243.4 228 243.4 c 0
 138.6 243.4 86.6 201.8 86.6 133.8 c 0
100.2 369.2 m 1
 74 409 l 1
 107.2 435.6 161 470 244 470 c 0
 341 470 387.8 413 387.8 330 c 2
 387.8 141.6 l 1
 349 141.6 l 1
 349 320 l 2
 349 376.8 308.8 424 242.8 424 c 0
 172.8 424 125.4 390 100.2 369.2 c 1
388.4 217.2 m 1
 388.4 262 l 1
 773 262 l 1
 787.4 217.2 l 1
 388.4 217.2 l 1
733.4 250 m 2
 733.4 355.2 665.4 424 575.4 424 c 0
 475.4 424 402.8 350.4 402.8 250 c 1
 401.6 232 l 1
 401.6 114 471 39 569 39 c 0
 656 39 704 79.6 738.6 134 c 1
 780.8 107 l 1
 734.8 37 682 -10 563 -10 c 0
 442 -10 355 91 355 230 c 0
 355 247 362.8 263 365.8 279 c 0
 384.8 392 461.6 470 583 470 c 0
 681 470 788.8 386.6 788.8 241.6 c 0
 788.8 233.6 788.4 225.2 787.4 217.2 c 1
 733.4 230 l 1
 733.4 250 l 2
EndSplineSet
EndChar

StartChar: ccedilla
Encoding: 231 231 221
Width: 482
VWidth: 0
Flags: HMW
LayerCount: 2
Fore
SplineSet
86.6 230 m 0
 86.6 118.8 166 39 270 39 c 0
 344 39 407 77.2 428 113.8 c 1
 428 48.6 l 1
 400 15.8 337 -10 270 -10 c 0
 136.2 -10 34 91 34 230 c 0
 34 369 136.2 470 270 470 c 0
 337 470 400 443.2 428 411.4 c 1
 428 346.2 l 1
 407 382.8 344 421 270 421 c 0
 166 421 86.6 341.2 86.6 230 c 0
261.6 34.2 m 1
 302.4 34.2 l 1
 242.2 -63.4 l 1
 254.4 -57 260.6 -53.8 275.6 -53.8 c 0
 308.6 -53.8 348 -78.8 348 -127.8 c 0
 348 -188.8 296.6 -221.8 241.6 -221.8 c 0
 204.6 -221.8 180 -211.8 152 -183.8 c 1
 175.2 -157.4 l 1
 197.8 -176.6 212.8 -185.4 241.6 -185.4 c 0
 280.8 -185.4 310.4 -164.6 310.4 -127.8 c 0
 310.4 -95.8 287.2 -80.6 255.2 -80.6 c 0
 237.2 -80.6 209.8 -87 188 -101.8 c 1
 261.6 34.2 l 1
EndSplineSet
EndChar

StartChar: egrave
Encoding: 232 232 222
Width: 509
VWidth: 0
Flags: HMW
LayerCount: 2
Fore
SplineSet
72.4 217.2 m 1
 72.4 262 l 1
 414.2 262 l 1
 413 356.4 349.4 424 259.8 424 c 0
 171 424 92.8 358 92.8 248.8 c 1
 91.6 230.8 l 1
 91.6 114.4 160.2 39 257.8 39 c 0
 345.2 39 390 84.4 420.6 134 c 1
 462.8 107 l 1
 423.2 45.8 373.2 -10 251.8 -10 c 0
 130.8 -10 39 91.8 39 230.8 c 0
 39 251.8 40.8 271.4 45.4 290.6 c 0
 67.6 396.4 149.2 470 259.8 470 c 0
 379.8 470 470.8 379 470.8 242 c 0
 470.8 234 470.4 225.2 469.4 217.2 c 1
 72.4 217.2 l 1
117.8 688.8 m 1
 166 716 l 1
 324 556 l 1
 294.6 536 l 1
 117.8 688.8 l 1
EndSplineSet
EndChar

StartChar: eacute
Encoding: 233 233 223
Width: 509
VWidth: 0
Flags: HMW
LayerCount: 2
Fore
SplineSet
72.4 217.2 m 1
 72.4 262 l 1
 414.2 262 l 1
 413 356.4 349.4 424 259.8 424 c 0
 171 424 92.8 358 92.8 248.8 c 1
 91.6 230.8 l 1
 91.6 114.4 160.2 39 257.8 39 c 0
 345.2 39 390 84.4 420.6 134 c 1
 462.8 107 l 1
 423.2 45.8 373.2 -10 251.8 -10 c 0
 130.8 -10 39 91.8 39 230.8 c 0
 39 251.8 40.8 271.4 45.4 290.6 c 0
 67.6 396.4 149.2 470 259.8 470 c 0
 379.8 470 470.8 379 470.8 242 c 0
 470.8 234 470.4 225.2 469.4 217.2 c 1
 72.4 217.2 l 1
413.8 688.8 m 1
 237 536 l 1
 207.6 556 l 1
 365.6 716 l 1
 413.8 688.8 l 1
EndSplineSet
EndChar

StartChar: ecircumflex
Encoding: 234 234 224
Width: 509
VWidth: 0
Flags: HMW
LayerCount: 2
Fore
SplineSet
72.4 217.2 m 1
 72.4 262 l 1
 414.2 262 l 1
 413 356.4 349.4 424 259.8 424 c 0
 171 424 92.8 358 92.8 248.8 c 1
 91.6 230.8 l 1
 91.6 114.4 160.2 39 257.8 39 c 0
 345.2 39 390 84.4 420.6 134 c 1
 462.8 107 l 1
 423.2 45.8 373.2 -10 251.8 -10 c 0
 130.8 -10 39 91.8 39 230.8 c 0
 39 251.8 40.8 271.4 45.4 290.6 c 0
 67.6 396.4 149.2 470 259.8 470 c 0
 379.8 470 470.8 379 470.8 242 c 0
 470.8 234 470.4 225.2 469.4 217.2 c 1
 72.4 217.2 l 1
259.8 641 m 1
 132.6 530 l 1
 99.8 556.8 l 1
 259.8 696.8 l 1
 419.8 556.8 l 1
 387 530 l 1
 259.8 641 l 1
EndSplineSet
EndChar

StartChar: edieresis
Encoding: 235 235 225
Width: 509
VWidth: 0
Flags: HMW
LayerCount: 2
Fore
SplineSet
72.4 217.2 m 1
 72.4 262 l 1
 414.2 262 l 1
 413 356.4 349.4 424 259.8 424 c 0
 171 424 92.8 358 92.8 248.8 c 1
 91.6 230.8 l 1
 91.6 114.4 160.2 39 257.8 39 c 0
 345.2 39 390 84.4 420.6 134 c 1
 462.8 107 l 1
 423.2 45.8 373.2 -10 251.8 -10 c 0
 130.8 -10 39 91.8 39 230.8 c 0
 39 251.8 40.8 271.4 45.4 290.6 c 0
 67.6 396.4 149.2 470 259.8 470 c 0
 379.8 470 470.8 379 470.8 242 c 0
 470.8 234 470.4 225.2 469.4 217.2 c 1
 72.4 217.2 l 1
322.4 567.4 m 0
 322.4 588.2 339.4 604.8 359.8 604.8 c 0
 380.2 604.8 397.2 588.2 397.2 567.4 c 0
 397.2 546.6 380.2 530 359.8 530 c 0
 339.4 530 322.4 546.6 322.4 567.4 c 0
122.4 567.4 m 0
 122.4 588.2 139.4 604.8 159.8 604.8 c 0
 180.2 604.8 197.2 588.2 197.2 567.4 c 0
 197.2 546.6 180.2 530 159.8 530 c 0
 139.4 530 122.4 546.6 122.4 567.4 c 0
EndSplineSet
EndChar

StartChar: igrave
Encoding: 236 236 226
Width: 232
VWidth: 0
Flags: HMW
LayerCount: 2
Fore
SplineSet
90 460 m 1
 142 460 l 1
 142 0 l 1
 90 0 l 1
 90 460 l 1
-42 694.8 m 1
 6.2 722 l 1
 164.2 562 l 1
 134.8 542 l 1
 -42 694.8 l 1
EndSplineSet
EndChar

StartChar: dotlessi
Encoding: 305 305 227
Width: 232
VWidth: 0
Flags: HMW
LayerCount: 2
Fore
SplineSet
90 460 m 1
 142 460 l 1
 142 0 l 1
 90 0 l 1
 90 460 l 1
EndSplineSet
EndChar

StartChar: kgreenlandic
Encoding: 312 312 228
Width: 412
VWidth: 0
Flags: HMW
LayerCount: 2
Fore
SplineSet
74 460 m 1
 126 460 l 1
 126 0 l 1
 74 0 l 1
 74 460 l 1
323.2 460 m 1
 389.6 460 l 1
 172.8 270 l 1
 408.8 0 l 1
 343.2 0 l 1
 107.2 270 l 1
 323.2 460 l 1
EndSplineSet
EndChar

StartChar: iacute
Encoding: 237 237 229
Width: 232
VWidth: 0
Flags: HMW
LayerCount: 2
Fore
SplineSet
90 460 m 1
 142 460 l 1
 142 0 l 1
 90 0 l 1
 90 460 l 1
274 694.8 m 1
 97.2 542 l 1
 67.8 562 l 1
 225.8 722 l 1
 274 694.8 l 1
EndSplineSet
EndChar

StartChar: icircumflex
Encoding: 238 238 230
Width: 232
VWidth: 0
Flags: HMW
LayerCount: 2
Fore
SplineSet
90 460 m 1
 142 460 l 1
 142 0 l 1
 90 0 l 1
 90 460 l 1
116 647 m 1
 -11.2 536 l 1
 -44 562.8 l 1
 116 702.8 l 1
 276 562.8 l 1
 243.2 536 l 1
 116 647 l 1
EndSplineSet
EndChar

StartChar: idieresis
Encoding: 239 239 231
Width: 232
VWidth: 0
Flags: HMW
LayerCount: 2
Fore
SplineSet
90 460 m 1
 142 460 l 1
 142 0 l 1
 90 0 l 1
 90 460 l 1
170.6 585.4 m 0
 170.6 606.2 187.6 622.8 208 622.8 c 0
 228.4 622.8 245.4 606.2 245.4 585.4 c 0
 245.4 564.6 228.4 548 208 548 c 0
 187.6 548 170.6 564.6 170.6 585.4 c 0
-13.4 585.4 m 0
 -13.4 606.2 3.6 622.8 24 622.8 c 0
 44.4 622.8 61.4 606.2 61.4 585.4 c 0
 61.4 564.6 44.4 548 24 548 c 0
 3.6 548 -13.4 564.6 -13.4 585.4 c 0
EndSplineSet
EndChar

StartChar: ntilde
Encoding: 241 241 232
Width: 505
VWidth: 0
Flags: HMW
LayerCount: 2
Fore
SplineSet
131 460 m 1
 131 0 l 1
 79 0 l 1
 79 460 l 1
 131 460 l 1
374 296 m 2
 374 374 341 421 266 421 c 0
 187.6 421 131 357.6 131 280 c 1
 107.4 280 l 1
 107.4 389 183 470 278 470 c 0
 373 470 426 409 426 302 c 2
 426 0 l 1
 374 0 l 1
 374 296 l 2
103.6 560.6 m 1
 109.6 601.6 145.8 633 190.8 633 c 0
 251.8 633 260.8 586 314.8 586 c 0
 337.8 586 352.8 602 370.8 634 c 1
 402 607 l 1
 386 570 354 542 312 542 c 0
 257 542 236 589 191 589 c 0
 150 589 139 557 139 538 c 1
 103.6 560.6 l 1
EndSplineSet
EndChar

StartChar: ograve
Encoding: 242 242 233
Width: 550
VWidth: 0
Flags: HMW
LayerCount: 2
Fore
SplineSet
39 230 m 0
 39 369 141.2 470 275 470 c 0
 408.8 470 511 369 511 230 c 0
 511 91 408.8 -10 275 -10 c 0
 141.2 -10 39 91 39 230 c 0
91.6 230 m 0
 91.6 118.8 171 39 275 39 c 0
 379 39 458.4 118.8 458.4 230 c 0
 458.4 341.2 379 421 275 421 c 0
 171 421 91.6 341.2 91.6 230 c 0
124.6 694.8 m 1
 172.8 722 l 1
 330.8 562 l 1
 302.2 542 l 1
 124.6 694.8 l 1
EndSplineSet
EndChar

StartChar: oacute
Encoding: 243 243 234
Width: 550
VWidth: 0
Flags: HMW
LayerCount: 2
Fore
SplineSet
39 230 m 0
 39 369 141.2 470 275 470 c 0
 408.8 470 511 369 511 230 c 0
 511 91 408.8 -10 275 -10 c 0
 141.2 -10 39 91 39 230 c 0
91.6 230 m 0
 91.6 118.8 171 39 275 39 c 0
 379 39 458.4 118.8 458.4 230 c 0
 458.4 341.2 379 421 275 421 c 0
 171 421 91.6 341.2 91.6 230 c 0
425.4 694.8 m 1
 247.8 542 l 1
 219.2 562 l 1
 377.2 722 l 1
 425.4 694.8 l 1
EndSplineSet
EndChar

StartChar: ocircumflex
Encoding: 244 244 235
Width: 550
VWidth: 0
Flags: HMW
LayerCount: 2
Fore
SplineSet
39 230 m 0
 39 369 141.2 470 275 470 c 0
 408.8 470 511 369 511 230 c 0
 511 91 408.8 -10 275 -10 c 0
 141.2 -10 39 91 39 230 c 0
91.6 230 m 0
 91.6 118.8 171 39 275 39 c 0
 379 39 458.4 118.8 458.4 230 c 0
 458.4 341.2 379 421 275 421 c 0
 171 421 91.6 341.2 91.6 230 c 0
275 661 m 1
 147.8 550 l 1
 115 576.8 l 1
 275 716.8 l 1
 435 576.8 l 1
 402.2 550 l 1
 275 661 l 1
EndSplineSet
EndChar

StartChar: otilde
Encoding: 245 245 236
Width: 550
VWidth: 0
Flags: HMW
LayerCount: 2
Fore
SplineSet
39 230 m 0
 39 369 141.2 470 275 470 c 0
 408.8 470 511 369 511 230 c 0
 511 91 408.8 -10 275 -10 c 0
 141.2 -10 39 91 39 230 c 0
91.6 230 m 0
 91.6 118.8 171 39 275 39 c 0
 379 39 458.4 118.8 458.4 230 c 0
 458.4 341.2 379 421 275 421 c 0
 171 421 91.6 341.2 91.6 230 c 0
125.6 560.6 m 1
 131.6 601.6 167.8 633 212.8 633 c 0
 273.8 633 282.8 586 336.8 586 c 0
 359.8 586 374.8 602 392.8 634 c 1
 424.4 607 l 1
 408.4 570 376.4 542 334.4 542 c 0
 279.4 542 258 589 213 589 c 0
 172 589 161.4 557 161.4 538 c 1
 125.6 560.6 l 1
EndSplineSet
EndChar

StartChar: odieresis
Encoding: 246 246 237
Width: 550
VWidth: 0
Flags: HMW
LayerCount: 2
Fore
SplineSet
39 230 m 0
 39 369 141.2 470 275 470 c 0
 408.8 470 511 369 511 230 c 0
 511 91 408.8 -10 275 -10 c 0
 141.2 -10 39 91 39 230 c 0
91.6 230 m 0
 91.6 118.8 171 39 275 39 c 0
 379 39 458.4 118.8 458.4 230 c 0
 458.4 341.2 379 421 275 421 c 0
 171 421 91.6 341.2 91.6 230 c 0
337.6 593.4 m 0
 337.6 614.2 354.6 630.8 375 630.8 c 0
 395.4 630.8 412.4 614.2 412.4 593.4 c 0
 412.4 572.6 395.4 556 375 556 c 0
 354.6 556 337.6 572.6 337.6 593.4 c 0
137.6 593.4 m 0
 137.6 614.2 154.6 630.8 175 630.8 c 0
 195.4 630.8 212.4 614.2 212.4 593.4 c 0
 212.4 572.6 195.4 556 175 556 c 0
 154.6 556 137.6 572.6 137.6 593.4 c 0
EndSplineSet
EndChar

StartChar: ugrave
Encoding: 249 249 238
Width: 505
VWidth: 0
Flags: HMW
LayerCount: 2
Fore
SplineSet
374 0 m 1
 374 460 l 1
 426 460 l 1
 426 0 l 1
 374 0 l 1
131 168 m 2
 131 86 164 39 239 39 c 0
 317.4 39 374 102.4 374 180 c 1
 397.6 180 l 1
 397.6 71 322 -10 227 -10 c 0
 132 -10 79 51 79 162 c 2
 79 460 l 1
 131 460 l 1
 131 168 l 2
118 698.8 m 1
 166.8 726 l 1
 324.8 566 l 1
 295.2 546 l 1
 118 698.8 l 1
EndSplineSet
EndChar

StartChar: uacute
Encoding: 250 250 239
Width: 505
VWidth: 0
Flags: HMW
LayerCount: 2
Fore
SplineSet
374 0 m 1
 374 460 l 1
 426 460 l 1
 426 0 l 1
 374 0 l 1
131 168 m 2
 131 86 164 39 239 39 c 0
 317.4 39 374 102.4 374 180 c 1
 397.6 180 l 1
 397.6 71 322 -10 227 -10 c 0
 132 -10 79 51 79 162 c 2
 79 460 l 1
 131 460 l 1
 131 168 l 2
386.4 698.8 m 1
 209.2 546 l 1
 180.8 566 l 1
 338.8 726 l 1
 386.4 698.8 l 1
EndSplineSet
EndChar

StartChar: ucircumflex
Encoding: 251 251 240
Width: 505
VWidth: 0
Flags: HMW
LayerCount: 2
Fore
SplineSet
374 0 m 1
 374 460 l 1
 426 460 l 1
 426 0 l 1
 374 0 l 1
131 168 m 2
 131 86 164 39 239 39 c 0
 317.4 39 374 102.4 374 180 c 1
 397.6 180 l 1
 397.6 71 322 -10 227 -10 c 0
 132 -10 79 51 79 162 c 2
 79 460 l 1
 131 460 l 1
 131 168 l 2
252.4 657 m 1
 124.8 546 l 1
 92.4 572.8 l 1
 252.4 712.8 l 1
 412.4 572.8 l 1
 379.2 546 l 1
 252.4 657 l 1
EndSplineSet
EndChar

StartChar: udieresis
Encoding: 252 252 241
Width: 505
VWidth: 0
Flags: HMW
LayerCount: 2
Fore
SplineSet
374 0 m 1
 374 460 l 1
 426 460 l 1
 426 0 l 1
 374 0 l 1
131 168 m 2
 131 86 164 39 239 39 c 0
 317.4 39 374 102.4 374 180 c 1
 397.6 180 l 1
 397.6 71 322 -10 227 -10 c 0
 132 -10 79 51 79 162 c 2
 79 460 l 1
 131 460 l 1
 131 168 l 2
307.2 587.4 m 0
 307.2 608.2 324 624.8 344.4 624.8 c 0
 364.8 624.8 382 608.2 382 587.4 c 0
 382 566.6 364.8 550 344.4 550 c 0
 324 550 307.2 566.6 307.2 587.4 c 0
123.2 587.4 m 0
 123.2 608.2 140 624.8 160.4 624.8 c 0
 180.8 624.8 198 608.2 198 587.4 c 0
 198 566.6 180.8 550 160.4 550 c 0
 140 550 123.2 566.6 123.2 587.4 c 0
EndSplineSet
EndChar

StartChar: yacute
Encoding: 253 253 242
Width: 434
VWidth: 0
Flags: HMW
LayerCount: 2
Fore
SplineSet
430 460 m 1
 130 -220 l 1
 71.6 -220 l 1
 189.6 47 l 1
 4 460 l 1
 65.8 460 l 1
 233 68 l 1
 208.8 70.4 l 1
 371.6 460 l 1
 430 460 l 1
357.2 694.8 m 1
 180 542 l 1
 151 562 l 1
 309 722 l 1
 357.2 694.8 l 1
EndSplineSet
EndChar

StartChar: thorn
Encoding: 254 254 243
Width: 558
VWidth: 0
Flags: HMW
LayerCount: 2
Fore
SplineSet
126 -220 m 1
 74 -220 l 1
 74 780 l 1
 126 780 l 1
 126 -220 l 1
519.4 230 m 0
 519.4 81.8 420.4 -10 297.4 -10 c 0
 179.2 -10 102.4 93 102.4 230 c 0
 102.4 367 179.2 470 297.4 470 c 0
 420.4 470 519.4 378.2 519.4 230 c 0
466.8 230 m 0
 466.8 350 387.6 421 290.2 421 c 0
 204.6 421 126 340 126 230 c 0
 126 120 204.6 39 290.2 39 c 0
 387.6 39 466.8 110 466.8 230 c 0
EndSplineSet
EndChar

StartChar: ydieresis
Encoding: 255 255 244
Width: 434
VWidth: 0
Flags: HMW
LayerCount: 2
Fore
SplineSet
430 460 m 1
 130 -220 l 1
 71.6 -220 l 1
 189.6 47 l 1
 4 460 l 1
 65.8 460 l 1
 233 68 l 1
 208.8 70.4 l 1
 371.6 460 l 1
 430 460 l 1
271.8 575.4 m 0
 271.8 596.2 288.4 612.8 308.8 612.8 c 0
 329.2 612.8 346.6 596.2 346.6 575.4 c 0
 346.6 554.6 329.2 538 308.8 538 c 0
 288.4 538 271.8 554.6 271.8 575.4 c 0
87.8 575.4 m 0
 87.8 596.2 104.4 612.8 124.8 612.8 c 0
 145.2 612.8 162.6 596.2 162.6 575.4 c 0
 162.6 554.6 145.2 538 124.8 538 c 0
 104.4 538 87.8 554.6 87.8 575.4 c 0
EndSplineSet
EndChar

StartChar: Amacron
Encoding: 256 256 245
Width: 636
VWidth: 0
Flags: HMW
LayerCount: 2
Fore
SplineSet
139 234.8 m 1
 157 286.8 l 1
 481 286.8 l 1
 499 234.8 l 1
 139 234.8 l 1
318 600.4 m 1
 181.6 269.2 l 1
 176.4 256.8 l 1
 70.8 0 l 1
 9 0 l 1
 318 727 l 1
 627 0 l 1
 565.2 0 l 1
 461.2 253.2 l 1
 456 266.4 l 1
 318 600.4 l 1
143 795 m 1
 143 844 l 1
 493 844 l 1
 493 795 l 1
 143 795 l 1
EndSplineSet
EndChar

StartChar: amacron
Encoding: 257 257 246
Width: 465
VWidth: 0
Flags: HMW
LayerCount: 2
Fore
SplineSet
86.6 135 m 0
 86.6 66.4 135.6 36.6 202 36.6 c 0
 286 36.6 349 86 349 172 c 1
 360.6 142 l 1
 360.6 53 287.8 -10 190 -10 c 0
 103 -10 34 37 34 129 c 0
 34 232 121 284 224 284 c 0
 308 284 353.2 246.4 370 229 c 1
 370 196.8 l 1
 333.4 224.8 288.4 243.4 226.4 243.4 c 0
 144.6 243.4 86.6 205.4 86.6 135 c 0
100.2 369.2 m 1
 74 409 l 1
 107.6 436.4 163 470 242 470 c 0
 341 470 401 415 401 326 c 2
 401 0 l 1
 349 0 l 1
 349 326 l 2
 349 388 305.2 424 242 424 c 0
 176 424 128.2 392.8 100.2 369.2 c 1
67 550 m 1
 67 599 l 1
 417 599 l 1
 417 550 l 1
 67 550 l 1
EndSplineSet
Substitution2: "alt a" amacron.alt
EndChar

StartChar: breve
Encoding: 728 728 247
Width: 546
VWidth: 0
Flags: HMW
LayerCount: 2
Fore
SplineSet
115 850 m 1
 161.6 850 l 1
 161.6 808 194.2 753 273 753 c 0
 351.8 753 384.4 808 384.4 850 c 1
 431 850 l 1
 431 781 378 710 273 710 c 0
 168 710 115 781 115 850 c 1
EndSplineSet
EndChar

StartChar: Abreve
Encoding: 258 258 248
Width: 636
VWidth: 0
Flags: HMW
LayerCount: 2
Fore
SplineSet
139 234.8 m 1
 157 286.8 l 1
 481 286.8 l 1
 499 234.8 l 1
 139 234.8 l 1
318 600.4 m 1
 181.6 269.2 l 1
 176.4 256.8 l 1
 70.8 0 l 1
 9 0 l 1
 318 727 l 1
 627 0 l 1
 565.2 0 l 1
 461.2 253.2 l 1
 456 266.4 l 1
 318 600.4 l 1
160 931 m 1
 206.6 931 l 1
 206.6 889 239.2 834 318 834 c 0
 396.8 834 429.4 889 429.4 931 c 1
 476 931 l 1
 476 862 423 791 318 791 c 0
 213 791 160 862 160 931 c 1
EndSplineSet
EndChar

StartChar: abreve
Encoding: 259 259 249
Width: 465
VWidth: 0
Flags: HMW
LayerCount: 2
Fore
SplineSet
86.6 135 m 0
 86.6 66.4 135.6 36.6 202 36.6 c 0
 286 36.6 349 86 349 172 c 1
 360.6 142 l 1
 360.6 53 287.8 -10 190 -10 c 0
 103 -10 34 37 34 129 c 0
 34 232 121 284 224 284 c 0
 308 284 353.2 246.4 370 229 c 1
 370 196.8 l 1
 333.4 224.8 288.4 243.4 226.4 243.4 c 0
 144.6 243.4 86.6 205.4 86.6 135 c 0
100.2 369.2 m 1
 74 409 l 1
 107.6 436.4 163 470 242 470 c 0
 341 470 401 415 401 326 c 2
 401 0 l 1
 349 0 l 1
 349 326 l 2
 349 388 305.2 424 242 424 c 0
 176 424 128.2 392.8 100.2 369.2 c 1
80 674 m 1
 126.6 674 l 1
 126.6 632 159.2 577 238 577 c 0
 316.8 577 349.4 632 349.4 674 c 1
 396 674 l 1
 396 605 343 534 238 534 c 0
 133 534 80 605 80 674 c 1
EndSplineSet
Substitution2: "alt a" abreve.alt
EndChar

StartChar: Aogonek
Encoding: 260 260 250
Width: 636
VWidth: 0
Flags: HMW
LayerCount: 2
Fore
SplineSet
139.8 234.8 m 1
 157.8 286.8 l 1
 481 286.8 l 1
 499 234.8 l 1
 139.8 234.8 l 1
318 600.4 m 1
 181.6 269.2 l 1
 176.4 256.8 l 1
 70.8 0 l 1
 9 0 l 1
 318 727 l 1
 627 0 l 1
 565.2 0 l 1
 461.2 253.2 l 1
 456 266.4 l 1
 318 600.4 l 1
643.6 -147.2 m 1
 666.2 -180 l 1
 651.2 -200 617.2 -220 574.2 -220 c 0
 498.2 -220 459.2 -183 459.2 -128 c 0
 459.2 -65 529.6 -17 599.6 19 c 1
 627 0 l 1
 568.6 -26 511.2 -71 511.2 -116 c 0
 511.2 -156 539.2 -174 577.2 -174 c 0
 608.8 -174 629.2 -162.2 643.6 -147.2 c 1
EndSplineSet
EndChar

StartChar: aogonek
Encoding: 261 261 251
Width: 465
VWidth: 0
Flags: HMW
LayerCount: 2
Fore
SplineSet
86.6 135 m 0
 86.6 66.4 141.6 36.6 202 36.6 c 0
 286 36.6 349 86 349 172 c 1
 360.6 142 l 1
 360.6 53 287.8 -10 190 -10 c 0
 107.8 -10 34 35.2 34 133.2 c 0
 34 230.2 115 284 224 284 c 0
 308 284 353.2 246.4 370 229 c 1
 370 196.8 l 1
 333.4 224.8 288.4 243.4 226.4 243.4 c 0
 144.6 243.4 86.6 205.4 86.6 135 c 0
100.2 369.2 m 1
 74 409 l 1
 107.6 436.4 163 470 242 470 c 0
 341 470 401 415 401 326 c 2
 401 0 l 1
 349 0 l 1
 349 326 l 2
 349 388 305.2 424 242 424 c 0
 176 424 128.2 392.8 100.2 369.2 c 1
417.6 -147.2 m 1
 440.2 -180 l 1
 425.2 -200 391.2 -220 348.2 -220 c 0
 272.2 -220 233.2 -183 233.2 -128 c 0
 233.2 -65 303.6 -17 373.6 19 c 1
 401 0 l 1
 342.6 -26 285.2 -71 285.2 -116 c 0
 285.2 -156 313.2 -174 351.2 -174 c 0
 382.8 -174 403.2 -162.2 417.6 -147.2 c 1
EndSplineSet
Substitution2: "alt a" aogonek.alt
EndChar

StartChar: Cacute
Encoding: 262 262 252
Width: 685
VWidth: 0
Flags: HMW
LayerCount: 2
Fore
SplineSet
102.8 350 m 0
 102.8 172.2 228.4 46.6 386 46.6 c 0
 485 46.6 558.4 82.6 611 142.6 c 1
 611 69 l 1
 552 17 488 -9.2 386 -9.2 c 0
 192 -9.2 44 141 44 350 c 0
 44 559 192 709.2 386 709.2 c 0
 488 709.2 552 683 611 631 c 1
 611 557.8 l 1
 559.2 617.4 483 653.4 386 653.4 c 0
 228.8 653.4 102.8 529 102.8 350 c 0
518.4 922 m 1
 340.8 769.2 l 1
 312.2 789.2 l 1
 470.2 949.2 l 1
 518.4 922 l 1
EndSplineSet
EndChar

StartChar: cacute
Encoding: 263 263 253
Width: 482
VWidth: 0
Flags: HMW
LayerCount: 2
Fore
SplineSet
86.6 230 m 0
 86.6 118.8 166 39 270 39 c 0
 344 39 407 77.2 428 113.8 c 1
 428 48.6 l 1
 400 15.8 337 -10 270 -10 c 0
 136.2 -10 34 91 34 230 c 0
 34 369 136.2 470 270 470 c 0
 337 470 400 443.2 428 411.4 c 1
 428 346.2 l 1
 407 382.8 344 421 270 421 c 0
 166 421 86.6 341.2 86.6 230 c 0
406 686.8 m 1
 229.2 534 l 1
 199.8 554 l 1
 357.8 714 l 1
 406 686.8 l 1
EndSplineSet
EndChar

StartChar: Ccircumflex
Encoding: 264 264 254
Width: 685
VWidth: 0
Flags: HMW
LayerCount: 2
Fore
SplineSet
102.8 350 m 0
 102.8 172.2 228.4 46.6 386 46.6 c 0
 485 46.6 558.4 82.6 611 142.6 c 1
 611 69 l 1
 552 17 488 -9.2 386 -9.2 c 0
 192 -9.2 44 141 44 350 c 0
 44 559 192 709.2 386 709.2 c 0
 488 709.2 552 683 611 631 c 1
 611 557.8 l 1
 559.2 617.4 483 653.4 386 653.4 c 0
 228.8 653.4 102.8 529 102.8 350 c 0
386 880.2 m 1
 258.8 769.2 l 1
 226 796 l 1
 386 936 l 1
 546 796 l 1
 513.2 769.2 l 1
 386 880.2 l 1
EndSplineSet
EndChar

StartChar: ccircumflex
Encoding: 265 265 255
Width: 482
VWidth: 0
Flags: HMW
LayerCount: 2
Fore
SplineSet
86.6 230 m 0
 86.6 118.8 166 39 270 39 c 0
 344 39 407 77.2 428 113.8 c 1
 428 48.6 l 1
 400 15.8 337 -10 270 -10 c 0
 136.2 -10 34 91 34 230 c 0
 34 369 136.2 470 270 470 c 0
 337 470 400 443.2 428 411.4 c 1
 428 346.2 l 1
 407 382.8 344 421 270 421 c 0
 166 421 86.6 341.2 86.6 230 c 0
270 641 m 1
 142.8 530 l 1
 110 556.8 l 1
 270 696.8 l 1
 430 556.8 l 1
 397.2 530 l 1
 270 641 l 1
EndSplineSet
EndChar

StartChar: Cdotaccent
Encoding: 266 266 256
Width: 685
VWidth: 0
Flags: HMW
LayerCount: 2
Fore
SplineSet
102.8 350 m 0
 102.8 172.2 228.4 46.6 386 46.6 c 0
 485 46.6 558.4 82.6 611 142.6 c 1
 611 69 l 1
 552 17 488 -9.2 386 -9.2 c 0
 192 -9.2 44 141 44 350 c 0
 44 559 192 709.2 386 709.2 c 0
 488 709.2 552 683 611 631 c 1
 611 557.8 l 1
 559.2 617.4 483 653.4 386 653.4 c 0
 228.8 653.4 102.8 529 102.8 350 c 0
348.6 810.6 m 0
 348.6 831.4 365.6 848 386 848 c 0
 406.4 848 423.4 831.4 423.4 810.6 c 0
 423.4 789.8 406.4 773.2 386 773.2 c 0
 365.6 773.2 348.6 789.8 348.6 810.6 c 0
EndSplineSet
EndChar

StartChar: cdotaccent
Encoding: 267 267 257
Width: 482
VWidth: 0
Flags: HMW
LayerCount: 2
Fore
SplineSet
86.6 230 m 0
 86.6 118.8 166 39 270 39 c 0
 344 39 407 77.2 428 113.8 c 1
 428 48.6 l 1
 400 15.8 337 -10 270 -10 c 0
 136.2 -10 34 91 34 230 c 0
 34 369 136.2 470 270 470 c 0
 337 470 400 443.2 428 411.4 c 1
 428 346.2 l 1
 407 382.8 344 421 270 421 c 0
 166 421 86.6 341.2 86.6 230 c 0
232.6 571.4 m 0
 232.6 592.2 249.6 608.8 270 608.8 c 0
 290.4 608.8 307.4 592.2 307.4 571.4 c 0
 307.4 550.6 290.4 534 270 534 c 0
 249.6 534 232.6 550.6 232.6 571.4 c 0
EndSplineSet
EndChar

StartChar: Ccaron
Encoding: 268 268 258
Width: 685
VWidth: 0
Flags: HMW
LayerCount: 2
Fore
SplineSet
102.8 350 m 0
 102.8 172.2 228.4 46.6 386 46.6 c 0
 485 46.6 558.4 82.6 611 142.6 c 1
 611 69 l 1
 552 17 488 -9.2 386 -9.2 c 0
 192 -9.2 44 141 44 350 c 0
 44 559 192 709.2 386 709.2 c 0
 488 709.2 552 683 611 631 c 1
 611 557.8 l 1
 559.2 617.4 483 653.4 386 653.4 c 0
 228.8 653.4 102.8 529 102.8 350 c 0
386 829 m 1
 512.8 940.4 l 1
 546 913.2 l 1
 386 773.2 l 1
 226 913.2 l 1
 259.2 940.4 l 1
 386 829 l 1
EndSplineSet
EndChar

StartChar: ccaron
Encoding: 269 269 259
Width: 482
VWidth: 0
Flags: HMW
LayerCount: 2
Fore
SplineSet
86.6 230 m 0
 86.6 118.8 166 39 270 39 c 0
 344 39 407 77.2 428 113.8 c 1
 428 48.6 l 1
 400 15.8 337 -10 270 -10 c 0
 136.2 -10 34 91 34 230 c 0
 34 369 136.2 470 270 470 c 0
 337 470 400 443.2 428 411.4 c 1
 428 346.2 l 1
 407 382.8 344 421 270 421 c 0
 166 421 86.6 341.2 86.6 230 c 0
270 593.8 m 1
 396.8 705.2 l 1
 430 678 l 1
 270 538 l 1
 110 678 l 1
 143.2 705.2 l 1
 270 593.8 l 1
EndSplineSet
EndChar

StartChar: Dcaron
Encoding: 270 270 260
Width: 662
VWidth: 0
Flags: HMW
LayerCount: 2
Fore
SplineSet
84 700 m 1
 139.4 700 l 1
 139.4 0 l 1
 84 0 l 1
 84 700 l 1
274 0 m 2
 114.2 0 l 1
 114.2 55.4 l 1
 274 55.4 l 2
 448.8 55.4 562.6 170.6 562.6 350 c 0
 562.6 529 448.8 644.6 274 644.6 c 2
 114.2 644.6 l 1
 114.2 700 l 1
 274 700 l 2
 478 700 618 559 618 350 c 0
 618 141 478 0 274 0 c 2
325.2 837 m 1
 452 948.4 l 1
 485.2 921.2 l 1
 325.2 781.2 l 1
 165.2 921.2 l 1
 198.4 948.4 l 1
 325.2 837 l 1
EndSplineSet
EndChar

StartChar: dcaron
Encoding: 271 271 261
Width: 570
VWidth: 0
Flags: HMW
LayerCount: 2
Fore
SplineSet
432.4 780 m 1
 484.4 780 l 1
 484.4 0 l 1
 432.4 0 l 1
 432.4 780 l 1
39 230 m 0
 39 378.2 138 470 261 470 c 0
 379.2 470 456 367 456 230 c 0
 456 93 379.2 -10 261 -10 c 0
 138 -10 39 81.8 39 230 c 0
91.6 230 m 0
 91.6 110 170.8 39 268.2 39 c 0
 353.8 39 432.4 120 432.4 230 c 0
 432.4 340 353.8 421 268.2 421 c 0
 170.8 421 91.6 350 91.6 230 c 0
632.8 773.6 m 1
 685.2 753.6 l 1
 575.2 503.6 l 1
 538 517 l 1
 632.8 773.6 l 1
EndSplineSet
EndChar

StartChar: Dcroat
Encoding: 272 272 262
Width: 680
VWidth: 0
Flags: HMW
LayerCount: 2
Fore
SplineSet
5 324 m 1
 5 373 l 1
 305 373 l 1
 305 324 l 1
 5 324 l 1
84 700 m 1
 139.4 700 l 1
 139.4 0 l 1
 84 0 l 1
 84 700 l 1
274 0 m 2
 114.2 0 l 1
 114.2 55.4 l 1
 274 55.4 l 2
 448 55.4 562.6 171 562.6 350 c 0
 562.6 529 448 644.6 274 644.6 c 2
 114.2 644.6 l 1
 114.2 700 l 1
 274 700 l 2
 478 700 618 559 618 350 c 0
 618 141 478 0 274 0 c 2
EndSplineSet
EndChar

StartChar: dcroat
Encoding: 273 273 263
Width: 558
VWidth: 0
Flags: HMW
LayerCount: 2
Fore
SplineSet
295 616 m 1
 295 665 l 1
 595 665 l 1
 595 616 l 1
 295 616 l 1
432.4 780 m 1
 484.4 780 l 1
 484.4 0 l 1
 432.4 0 l 1
 432.4 780 l 1
39 230 m 0
 39 379 138 470 261 470 c 0
 376 470 456 371 456 230 c 0
 456 89 376 -10 261 -10 c 0
 138 -10 39 81 39 230 c 0
91.6 230 m 0
 91.6 110 171.2 39 268.2 39 c 0
 356.2 39 432.4 124 432.4 230 c 0
 432.4 336 356.2 421 268.2 421 c 0
 171.2 421 91.6 350 91.6 230 c 0
EndSplineSet
EndChar

StartChar: Emacron
Encoding: 274 274 264
Width: 534
VWidth: 0
Flags: HMW
LayerCount: 2
Fore
SplineSet
113 0 m 1
 113 52 l 1
 460 52 l 1
 460 0 l 1
 113 0 l 1
113 648 m 1
 113 700 l 1
 460 700 l 1
 460 648 l 1
 113 648 l 1
113 357.6 m 1
 113 409.6 l 1
 440 409.6 l 1
 440 357.6 l 1
 113 357.6 l 1
84 700 m 1
 139.4 700 l 1
 139.4 0 l 1
 84 0 l 1
 84 700 l 1
105 796 m 1
 105 845 l 1
 455 845 l 1
 455 796 l 1
 105 796 l 1
EndSplineSet
EndChar

StartChar: emacron
Encoding: 275 275 265
Width: 509
VWidth: 0
Flags: HMW
LayerCount: 2
Fore
SplineSet
72.4 217.2 m 1
 72.4 262 l 1
 414.2 262 l 1
 413 356.4 349.4 424 259.8 424 c 0
 171 424 92.8 358 92.8 248.8 c 1
 91.6 230.8 l 1
 91.6 114.4 160.2 39 257.8 39 c 0
 345.2 39 390 84.4 420.6 134 c 1
 462.8 107 l 1
 423.2 45.8 373.2 -10 251.8 -10 c 0
 130.8 -10 39 91.8 39 230.8 c 0
 39 251.8 40.8 271.4 45.4 290.6 c 0
 67.6 396.4 149.2 470 259.8 470 c 0
 379.8 470 470.8 379 470.8 242 c 0
 470.8 234 470.4 225.2 469.4 217.2 c 1
 72.4 217.2 l 1
84.8 530 m 1
 84.8 579 l 1
 434.8 579 l 1
 434.8 530 l 1
 84.8 530 l 1
EndSplineSet
EndChar

StartChar: Ebreve
Encoding: 276 276 266
Width: 534
VWidth: 0
Flags: HMW
LayerCount: 2
Fore
SplineSet
113 0 m 1
 113 52 l 1
 460 52 l 1
 460 0 l 1
 113 0 l 1
113 648 m 1
 113 700 l 1
 460 700 l 1
 460 648 l 1
 113 648 l 1
113 357.6 m 1
 113 409.6 l 1
 440 409.6 l 1
 440 357.6 l 1
 113 357.6 l 1
84 700 m 1
 139.4 700 l 1
 139.4 0 l 1
 84 0 l 1
 84 700 l 1
118 909.2 m 1
 164.6 909.2 l 1
 164.6 867.2 197.2 812.2 276 812.2 c 0
 354.8 812.2 387.4 867.2 387.4 909.2 c 1
 434 909.2 l 1
 434 840.2 381 769.2 276 769.2 c 0
 171 769.2 118 840.2 118 909.2 c 1
EndSplineSet
EndChar

StartChar: ebreve
Encoding: 277 277 267
Width: 509
VWidth: 0
Flags: HMW
LayerCount: 2
Fore
SplineSet
72.4 217.2 m 1
 72.4 262 l 1
 414.2 262 l 1
 413 356.4 349.4 424 259.8 424 c 0
 171 424 92.8 358 92.8 248.8 c 1
 91.6 230.8 l 1
 91.6 114.4 160.2 39 257.8 39 c 0
 345.2 39 390 84.4 420.6 134 c 1
 462.8 107 l 1
 423.2 45.8 373.2 -10 251.8 -10 c 0
 130.8 -10 39 91.8 39 230.8 c 0
 39 251.8 40.8 271.4 45.4 290.6 c 0
 67.6 396.4 149.2 470 259.8 470 c 0
 379.8 470 470.8 379 470.8 242 c 0
 470.8 234 470.4 225.2 469.4 217.2 c 1
 72.4 217.2 l 1
101.8 670 m 1
 148.4 670 l 1
 148.4 628 181 573 259.8 573 c 0
 338.6 573 371.2 628 371.2 670 c 1
 417.8 670 l 1
 417.8 601 364.8 530 259.8 530 c 0
 154.8 530 101.8 601 101.8 670 c 1
EndSplineSet
EndChar

StartChar: Edotaccent
Encoding: 278 278 268
Width: 534
VWidth: 0
Flags: HMW
LayerCount: 2
Fore
SplineSet
113 0 m 1
 113 52 l 1
 460 52 l 1
 460 0 l 1
 113 0 l 1
113 648 m 1
 113 700 l 1
 460 700 l 1
 460 648 l 1
 113 648 l 1
113 357.6 m 1
 113 409.6 l 1
 440 409.6 l 1
 440 357.6 l 1
 113 357.6 l 1
84 700 m 1
 139.4 700 l 1
 139.4 0 l 1
 84 0 l 1
 84 700 l 1
234.6 806.6 m 0
 234.6 827.4 251.6 844 272 844 c 0
 292.4 844 309.4 827.4 309.4 806.6 c 0
 309.4 785.8 292.4 769.2 272 769.2 c 0
 251.6 769.2 234.6 785.8 234.6 806.6 c 0
EndSplineSet
EndChar

StartChar: edotaccent
Encoding: 279 279 269
Width: 509
VWidth: 0
Flags: HMW
LayerCount: 2
Fore
SplineSet
72.4 217.2 m 1
 72.4 262 l 1
 414.2 262 l 1
 413 356.4 349.4 424 259.8 424 c 0
 171 424 92.8 358 92.8 248.8 c 1
 91.6 230.8 l 1
 91.6 114.4 160.2 39 257.8 39 c 0
 345.2 39 390 84.4 420.6 134 c 1
 462.8 107 l 1
 423.2 45.8 373.2 -10 251.8 -10 c 0
 130.8 -10 39 91.8 39 230.8 c 0
 39 251.8 40.8 271.4 45.4 290.6 c 0
 67.6 396.4 149.2 470 259.8 470 c 0
 379.8 470 470.8 379 470.8 242 c 0
 470.8 234 470.4 225.2 469.4 217.2 c 1
 72.4 217.2 l 1
222.4 567.4 m 0
 222.4 588.2 239.4 604.8 259.8 604.8 c 0
 280.2 604.8 297.2 588.2 297.2 567.4 c 0
 297.2 546.6 280.2 530 259.8 530 c 0
 239.4 530 222.4 546.6 222.4 567.4 c 0
EndSplineSet
EndChar

StartChar: Eogonek
Encoding: 280 280 270
Width: 534
VWidth: 0
Flags: HMW
LayerCount: 2
Fore
SplineSet
113 0 m 1
 113 52 l 1
 460 52 l 1
 460 0 l 1
 113 0 l 1
113 648 m 1
 113 700 l 1
 460 700 l 1
 460 648 l 1
 113 648 l 1
113 357.6 m 1
 113 409.6 l 1
 440 409.6 l 1
 440 357.6 l 1
 113 357.6 l 1
84 700 m 1
 139.4 700 l 1
 139.4 0 l 1
 84 0 l 1
 84 700 l 1
404.6 -147.2 m 1
 427.2 -180 l 1
 412.2 -200 378.2 -220 335.2 -220 c 0
 259.2 -220 220.2 -183 220.2 -128 c 0
 220.2 -65 290.6 -17 360.6 19 c 1
 388 0 l 1
 329.6 -26 272.2 -71 272.2 -116 c 0
 272.2 -156 300.2 -174 338.2 -174 c 0
 369.8 -174 390.2 -162.2 404.6 -147.2 c 1
EndSplineSet
EndChar

StartChar: eogonek
Encoding: 281 281 271
Width: 509
VWidth: 0
Flags: HMW
LayerCount: 2
Fore
SplineSet
72.4 217.2 m 1
 72.4 262 l 1
 414.2 262 l 1
 413 356.4 349.4 424 259.8 424 c 0
 171 424 92.8 358 92.8 248.8 c 1
 91.6 230.8 l 1
 91.6 114.4 160.2 39 257.8 39 c 0
 345.2 39 390 84.4 420.6 134 c 1
 462.8 107 l 1
 423.2 45.8 373.2 -10 251.8 -10 c 0
 130.8 -10 39 91.8 39 230.8 c 0
 39 251.8 40.8 271.4 45.4 290.6 c 0
 67.6 396.4 149.2 470 259.8 470 c 0
 379.8 470 470.8 379 470.8 242 c 0
 470.8 234 470.4 225.2 469.4 217.2 c 1
 72.4 217.2 l 1
294.6 -147.4 m 1
 316.8 -180.2 l 1
 301.8 -200.2 267.8 -220.2 224.8 -220.2 c 0
 148.8 -220.2 110.2 -183.2 110.2 -128.2 c 0
 110.2 -65.2 180.2 -21.6 250.2 14.4 c 1
 278 -4.6 l 1
 219.6 -30.6 162.2 -69.6 162.2 -116.2 c 0
 162.2 -156.2 189.8 -174.2 227.8 -174.2 c 0
 259.4 -174.2 280.2 -162.4 294.6 -147.4 c 1
EndSplineSet
EndChar

StartChar: Ecaron
Encoding: 282 282 272
Width: 534
VWidth: 0
Flags: HMW
LayerCount: 2
Fore
SplineSet
113 0 m 1
 113 52 l 1
 460 52 l 1
 460 0 l 1
 113 0 l 1
113 648 m 1
 113 700 l 1
 460 700 l 1
 460 648 l 1
 113 648 l 1
113 357.6 m 1
 113 409.6 l 1
 440 409.6 l 1
 440 357.6 l 1
 113 357.6 l 1
84 700 m 1
 139.4 700 l 1
 139.4 0 l 1
 84 0 l 1
 84 700 l 1
272 825 m 1
 398.8 936.4 l 1
 432 909.2 l 1
 272 769.2 l 1
 112 909.2 l 1
 145.2 936.4 l 1
 272 825 l 1
EndSplineSet
EndChar

StartChar: ecaron
Encoding: 283 283 273
Width: 509
VWidth: 0
Flags: HMW
LayerCount: 2
Fore
SplineSet
72.4 217.2 m 1
 72.4 262 l 1
 414.2 262 l 1
 413 356.4 349.4 424 259.8 424 c 0
 171 424 92.8 358 92.8 248.8 c 1
 91.6 230.8 l 1
 91.6 114.4 160.2 39 257.8 39 c 0
 345.2 39 390 84.4 420.6 134 c 1
 462.8 107 l 1
 423.2 45.8 373.2 -10 251.8 -10 c 0
 130.8 -10 39 91.8 39 230.8 c 0
 39 251.8 40.8 271.4 45.4 290.6 c 0
 67.6 396.4 149.2 470 259.8 470 c 0
 379.8 470 470.8 379 470.8 242 c 0
 470.8 234 470.4 225.2 469.4 217.2 c 1
 72.4 217.2 l 1
259.8 585.8 m 1
 386.6 697.2 l 1
 419.8 670 l 1
 259.8 530 l 1
 99.8 670 l 1
 133 697.2 l 1
 259.8 585.8 l 1
EndSplineSet
EndChar

StartChar: Gcircumflex
Encoding: 284 284 274
Width: 771
VWidth: 0
Flags: HMW
LayerCount: 2
Fore
SplineSet
411 297 m 1
 411 349 l 1
 722 349 l 1
 722 159 599 -9.2 393 -9.2 c 0
 193 -9.2 44 141 44 350 c 0
 44 559 193 709.2 393 709.2 c 0
 522 709.2 618.8 652 678.8 559 c 1
 638.8 523.6 l 1
 592.4 601.2 506 653.8 393 653.8 c 0
 227.8 653.8 102.4 529 102.4 350 c 0
 102.4 172.2 227.4 46.2 393 46.2 c 0
 550 46.2 647 161.6 662.4 297 c 1
 411 297 l 1
393 880.2 m 1
 265.8 769.2 l 1
 233 796 l 1
 393 936 l 1
 553 796 l 1
 520.2 769.2 l 1
 393 880.2 l 1
EndSplineSet
EndChar

StartChar: gcircumflex
Encoding: 285 285 275
Width: 558
VWidth: 0
Flags: HMW
LayerCount: 2
Fore
SplineSet
50.4 -30 m 1
 103 -30 l 1
 103 -116 167.2 -181 264 -181 c 0
 348.8 -181 432.4 -121.6 432.4 10 c 2
 432.4 460 l 1
 484.4 460 l 1
 484.4 10 l 2
 484.4 -149 379 -230 264 -230 c 0
 137 -230 50.4 -149 50.4 -30 c 1
39 230 m 0
 39 378.2 138 470 261 470 c 0
 379.2 470 456 367 456 230 c 0
 456 93 379.2 -10 261 -10 c 0
 138 -10 39 81.8 39 230 c 0
91.6 230 m 0
 91.6 110 170.8 39 268.2 39 c 0
 354.2 39 432.4 120 432.4 232 c 0
 432.4 338 354.2 421 268.2 421 c 0
 170.8 421 91.6 350 91.6 230 c 0
261 641 m 1
 133.8 530 l 1
 101 556.8 l 1
 261 696.8 l 1
 421 556.8 l 1
 388.2 530 l 1
 261 641 l 1
EndSplineSet
EndChar

StartChar: Gbreve
Encoding: 286 286 276
Width: 771
VWidth: 0
Flags: HMW
LayerCount: 2
Fore
SplineSet
411 297 m 1
 411 349 l 1
 722 349 l 1
 722 159 599 -9.2 393 -9.2 c 0
 193 -9.2 44 141 44 350 c 0
 44 559 193 709.2 393 709.2 c 0
 522 709.2 618.8 652 678.8 559 c 1
 638.8 523.6 l 1
 592.4 601.2 506 653.8 393 653.8 c 0
 227.8 653.8 102.4 529 102.4 350 c 0
 102.4 172.2 227.4 46.2 393 46.2 c 0
 550 46.2 647 161.6 662.4 297 c 1
 411 297 l 1
235 909.2 m 1
 281.6 909.2 l 1
 281.6 867.2 314.2 812.2 393 812.2 c 0
 471.8 812.2 504.4 867.2 504.4 909.2 c 1
 551 909.2 l 1
 551 840.2 498 769.2 393 769.2 c 0
 288 769.2 235 840.2 235 909.2 c 1
EndSplineSet
EndChar

StartChar: gbreve
Encoding: 287 287 277
Width: 558
VWidth: 0
Flags: HMW
LayerCount: 2
Fore
SplineSet
50.4 -30 m 1
 103 -30 l 1
 103 -116 167.2 -181 264 -181 c 0
 348.8 -181 432.4 -121.6 432.4 10 c 2
 432.4 460 l 1
 484.4 460 l 1
 484.4 10 l 2
 484.4 -149 379 -230 264 -230 c 0
 137 -230 50.4 -149 50.4 -30 c 1
39 230 m 0
 39 378.2 138 470 261 470 c 0
 379.2 470 456 367 456 230 c 0
 456 93 379.2 -10 261 -10 c 0
 138 -10 39 81.8 39 230 c 0
91.6 230 m 0
 91.6 110 170.8 39 268.2 39 c 0
 354.2 39 432.4 120 432.4 232 c 0
 432.4 338 354.2 421 268.2 421 c 0
 170.8 421 91.6 350 91.6 230 c 0
103 670 m 1
 149.6 670 l 1
 149.6 628 182.2 573 261 573 c 0
 339.8 573 372.4 628 372.4 670 c 1
 419 670 l 1
 419 601 366 530 261 530 c 0
 156 530 103 601 103 670 c 1
EndSplineSet
EndChar

StartChar: Gdotaccent
Encoding: 288 288 278
Width: 771
VWidth: 0
Flags: HMW
LayerCount: 2
Fore
SplineSet
411 297 m 1
 411 349 l 1
 722 349 l 1
 722 159 599 -9.2 393 -9.2 c 0
 193 -9.2 44 141 44 350 c 0
 44 559 193 709.2 393 709.2 c 0
 522 709.2 618.8 652 678.8 559 c 1
 638.8 523.6 l 1
 592.4 601.2 506 653.8 393 653.8 c 0
 227.8 653.8 102.4 529 102.4 350 c 0
 102.4 172.2 227.4 46.2 393 46.2 c 0
 550 46.2 647 161.6 662.4 297 c 1
 411 297 l 1
355.6 806.6 m 0
 355.6 827.4 372.6 844 393 844 c 0
 413.4 844 430.4 827.4 430.4 806.6 c 0
 430.4 785.8 413.4 769.2 393 769.2 c 0
 372.6 769.2 355.6 785.8 355.6 806.6 c 0
EndSplineSet
EndChar

StartChar: gdotaccent
Encoding: 289 289 279
Width: 558
VWidth: 0
Flags: HMW
LayerCount: 2
Fore
SplineSet
50.4 -30 m 1
 103 -30 l 1
 103 -116 167.2 -181 264 -181 c 0
 348.8 -181 432.4 -121.6 432.4 10 c 2
 432.4 460 l 1
 484.4 460 l 1
 484.4 10 l 2
 484.4 -149 379 -230 264 -230 c 0
 137 -230 50.4 -149 50.4 -30 c 1
39 230 m 0
 39 378.2 138 470 261 470 c 0
 379.2 470 456 367 456 230 c 0
 456 93 379.2 -10 261 -10 c 0
 138 -10 39 81.8 39 230 c 0
91.6 230 m 0
 91.6 110 170.8 39 268.2 39 c 0
 354.2 39 432.4 120 432.4 232 c 0
 432.4 338 354.2 421 268.2 421 c 0
 170.8 421 91.6 350 91.6 230 c 0
235.6 591.4 m 0
 235.6 612.2 252.6 628.8 273 628.8 c 0
 293.4 628.8 310.4 612.2 310.4 591.4 c 0
 310.4 570.6 293.4 554 273 554 c 0
 252.6 554 235.6 570.6 235.6 591.4 c 0
EndSplineSet
EndChar

StartChar: uni0122
Encoding: 290 290 280
Width: 771
VWidth: 0
Flags: HMW
LayerCount: 2
Fore
SplineSet
411 297 m 1
 411 349 l 1
 722 349 l 1
 722 159 599 -9.2 393 -9.2 c 0
 193 -9.2 44 141 44 350 c 0
 44 559 193 709.2 393 709.2 c 0
 522 709.2 618.8 652 678.8 559 c 1
 638.8 523.6 l 1
 592.4 601.2 506 653.8 393 653.8 c 0
 227.8 653.8 102.4 529 102.4 350 c 0
 102.4 172.2 227.4 46.2 393 46.2 c 0
 550 46.2 647 161.6 662.4 297 c 1
 411 297 l 1
414.2 -69.2 m 1
 466.6 -89.2 l 1
 356.6 -339.2 l 1
 319.4 -325.8 l 1
 414.2 -69.2 l 1
EndSplineSet
EndChar

StartChar: Hcircumflex
Encoding: 292 292 281
Width: 687
VWidth: 0
Flags: HMW
LayerCount: 2
Fore
SplineSet
113.4 354.8 m 1
 113.4 406.8 l 1
 585.4 406.8 l 1
 585.4 354.8 l 1
 113.4 354.8 l 1
548.4 700 m 1
 603.8 700 l 1
 603.8 0 l 1
 548.4 0 l 1
 548.4 700 l 1
84 700 m 1
 139.4 700 l 1
 139.4 0 l 1
 84 0 l 1
 84 700 l 1
344.4 880.2 m 1
 216.8 769.2 l 1
 184.4 796 l 1
 344.4 936 l 1
 504.4 796 l 1
 471.2 769.2 l 1
 344.4 880.2 l 1
EndSplineSet
EndChar

StartChar: hcircumflex
Encoding: 293 293 282
Width: 505
VWidth: 0
Flags: HMW
LayerCount: 2
Fore
SplineSet
131 780 m 1
 131 0 l 1
 79 0 l 1
 79 780 l 1
 131 780 l 1
374 296 m 2
 374 374 341 421 266 421 c 0
 187.6 421 131 357.6 131 280 c 1
 107.4 280 l 1
 107.4 389 183 470 278 470 c 0
 373 470 426 409 426 302 c 2
 426 0 l 1
 374 0 l 1
 374 296 l 2
112.4 951 m 1
 -15.2 840 l 1
 -47.6 866.8 l 1
 112.4 1006.8 l 1
 272.4 866.8 l 1
 239.2 840 l 1
 112.4 951 l 1
EndSplineSet
EndChar

StartChar: Itilde
Encoding: 296 296 283
Width: 219
VWidth: 0
Flags: HMW
LayerCount: 2
Fore
SplineSet
82 700 m 1
 137 700 l 1
 137 0 l 1
 82 0 l 1
 82 700 l 1
-35.2 816.6 m 1
 -29.2 857.6 7 889 52 889 c 0
 113 889 122 842 176 842 c 0
 199 842 214 858 232 890 c 1
 263.2 863 l 1
 247.2 826 215.2 798 173.2 798 c 0
 118.2 798 97.2 845 52.2 845 c 0
 11.2 845 0.2 813 0.2 794 c 1
 -35.2 816.6 l 1
EndSplineSet
EndChar

StartChar: itilde
Encoding: 297 297 284
Width: 232
VWidth: 0
Flags: HMW
LayerCount: 2
Fore
SplineSet
90 460 m 1
 142 460 l 1
 142 0 l 1
 90 0 l 1
 90 460 l 1
-28.2 576.6 m 1
 -22.2 617.6 14 649 59 649 c 0
 120 649 129 602 183 602 c 0
 206 602 221 618 239 650 c 1
 270.2 623 l 1
 254.2 586 222.2 558 180.2 558 c 0
 125.2 558 104.2 605 59.2 605 c 0
 18.2 605 7.2 573 7.2 554 c 1
 -28.2 576.6 l 1
EndSplineSet
EndChar

StartChar: Imacron
Encoding: 298 298 285
Width: 219
VWidth: 0
Flags: HMW
LayerCount: 2
Fore
SplineSet
82 700 m 1
 137 700 l 1
 137 0 l 1
 82 0 l 1
 82 700 l 1
-52 796 m 1
 -52 845 l 1
 298 845 l 1
 298 796 l 1
 -52 796 l 1
EndSplineSet
EndChar

StartChar: imacron
Encoding: 299 299 286
Width: 232
VWidth: 0
Flags: HMW
LayerCount: 2
Fore
SplineSet
90 460 m 1
 142 460 l 1
 142 0 l 1
 90 0 l 1
 90 460 l 1
-45 556 m 1
 -45 605 l 1
 305 605 l 1
 305 556 l 1
 -45 556 l 1
EndSplineSet
EndChar

StartChar: Ibreve
Encoding: 300 300 287
Width: 219
VWidth: 0
Flags: HMW
LayerCount: 2
Fore
SplineSet
82 700 m 1
 137 700 l 1
 137 0 l 1
 82 0 l 1
 82 700 l 1
-49 910 m 1
 -2.4 910 l 1
 -2.4 868 30.2 813 109 813 c 0
 187.8 813 220.4 868 220.4 910 c 1
 267 910 l 1
 267 841 214 770 109 770 c 0
 4 770 -49 841 -49 910 c 1
EndSplineSet
EndChar

StartChar: ibreve
Encoding: 301 301 288
Width: 232
VWidth: 0
Flags: HMW
LayerCount: 2
Fore
SplineSet
90 460 m 1
 142 460 l 1
 142 0 l 1
 90 0 l 1
 90 460 l 1
-42 670 m 1
 4.6 670 l 1
 4.6 628 37.2 573 116 573 c 0
 194.8 573 227.4 628 227.4 670 c 1
 274 670 l 1
 274 601 221 530 116 530 c 0
 11 530 -42 601 -42 670 c 1
EndSplineSet
EndChar

StartChar: Iogonek
Encoding: 302 302 289
Width: 219
VWidth: 0
Flags: HMW
LayerCount: 2
Fore
SplineSet
82 700 m 1
 137 700 l 1
 137 0 l 1
 82 0 l 1
 82 700 l 1
153.6 -147.2 m 1
 176.2 -180 l 1
 161.2 -200 127.2 -220 84.2 -220 c 0
 8.2 -220 -30.8 -183 -30.8 -128 c 0
 -30.8 -65 39.6 -17 109.6 19 c 1
 137 0 l 1
 78.6 -26 21.2 -71 21.2 -116 c 0
 21.2 -156 49.2 -174 87.2 -174 c 0
 118.8 -174 139.2 -162.2 153.6 -147.2 c 1
EndSplineSet
EndChar

StartChar: iogonek
Encoding: 303 303 290
Width: 232
VWidth: 0
Flags: HMW
LayerCount: 2
Fore
SplineSet
79 668 m 0
 79 688.4 95.2 705 116 705 c 0
 136.8 705 153 688.4 153 668 c 0
 153 647.6 136.8 631 116 631 c 0
 95.2 631 79 647.6 79 668 c 0
90 460 m 1
 142 460 l 1
 142 0 l 1
 90 0 l 1
 90 460 l 1
158.6 -147.2 m 1
 181.2 -180 l 1
 166.2 -200 132.2 -220 89.2 -220 c 0
 13.2 -220 -25.8 -183 -25.8 -128 c 0
 -25.8 -65 44.6 -17 114.6 19 c 1
 142 0 l 1
 83.6 -26 26.2 -71 26.2 -116 c 0
 26.2 -156 54.2 -174 92.2 -174 c 0
 123.8 -174 144.2 -162.2 158.6 -147.2 c 1
EndSplineSet
EndChar

StartChar: Idotaccent
Encoding: 304 304 291
Width: 219
VWidth: 0
Flags: HMW
LayerCount: 2
Fore
SplineSet
82 700 m 1
 137 700 l 1
 137 0 l 1
 82 0 l 1
 82 700 l 1
71.8 809.4 m 0
 71.8 830.2 88.8 846.8 109.2 846.8 c 0
 129.6 846.8 146.6 830.2 146.6 809.4 c 0
 146.6 788.6 129.6 772 109.2 772 c 0
 88.8 772 71.8 788.6 71.8 809.4 c 0
EndSplineSet
EndChar

StartChar: uni0136
Encoding: 310 310 292
Width: 520
VWidth: 0
Flags: HMW
LayerCount: 2
Fore
SplineSet
82 700 m 1
 137.4 700 l 1
 137.4 0 l 1
 82 0 l 1
 82 700 l 1
427.2 700 m 1
 496.6 700 l 1
 188.8 372 l 1
 511.6 0 l 1
 441.8 0 l 1
 121 370.8 l 1
 427.2 700 l 1
318 -60 m 1
 370.4 -80 l 1
 260.4 -330 l 1
 223.2 -316.6 l 1
 318 -60 l 1
EndSplineSet
EndChar

StartChar: uni0137
Encoding: 311 311 293
Width: 412
VWidth: 0
Flags: HMW
LayerCount: 2
Fore
SplineSet
74 780 m 1
 126 780 l 1
 126 0 l 1
 74 0 l 1
 74 780 l 1
323.2 460 m 1
 389.6 460 l 1
 172.8 270 l 1
 408.8 0 l 1
 343.2 0 l 1
 107.2 270 l 1
 323.2 460 l 1
262.6 -60 m 1
 315 -80 l 1
 205 -330 l 1
 167.8 -316.6 l 1
 262.6 -60 l 1
EndSplineSet
EndChar

StartChar: Lacute
Encoding: 313 313 294
Width: 442
VWidth: 0
Flags: HMW
LayerCount: 2
Fore
SplineSet
84 700 m 1
 139 700 l 1
 139 52 l 1
 428 52 l 1
 428 0 l 1
 84 0 l 1
 84 700 l 1
404.4 922 m 1
 226.8 769.2 l 1
 198.2 789.2 l 1
 356.2 949.2 l 1
 404.4 922 l 1
EndSplineSet
EndChar

StartChar: lacute
Encoding: 314 314 295
Width: 210
VWidth: 0
Flags: HMW
LayerCount: 2
Fore
SplineSet
79 780 m 1
 131 780 l 1
 131 0 l 1
 79 0 l 1
 79 780 l 1
253.4 992.8 m 1
 75.8 840 l 1
 47.2 860 l 1
 205.2 1020 l 1
 253.4 992.8 l 1
EndSplineSet
EndChar

StartChar: uni013B
Encoding: 315 315 296
Width: 442
VWidth: 0
Flags: HMW
LayerCount: 2
Fore
SplineSet
84 700 m 1
 139 700 l 1
 139 52 l 1
 428 52 l 1
 428 0 l 1
 84 0 l 1
 84 700 l 1
261.2 -60 m 1
 313.6 -80 l 1
 203.6 -330 l 1
 166.4 -316.6 l 1
 261.2 -60 l 1
EndSplineSet
EndChar

StartChar: uni013C
Encoding: 316 316 297
Width: 210
VWidth: 0
Flags: HMW
LayerCount: 2
Fore
SplineSet
79 780 m 1
 131 780 l 1
 131 0 l 1
 79 0 l 1
 79 780 l 1
118.2 -60 m 1
 170.6 -80 l 1
 60.6 -330 l 1
 23.4 -316.6 l 1
 118.2 -60 l 1
EndSplineSet
EndChar

StartChar: Lcaron
Encoding: 317 317 298
Width: 442
VWidth: 0
Flags: HMW
LayerCount: 2
Fore
SplineSet
84 700 m 1
 139 700 l 1
 139 52 l 1
 428 52 l 1
 428 0 l 1
 84 0 l 1
 84 700 l 1
334.8 709.2 m 1
 387.2 689.2 l 1
 277.2 439.2 l 1
 240 452.6 l 1
 334.8 709.2 l 1
EndSplineSet
EndChar

StartChar: lcaron
Encoding: 318 318 299
Width: 230
VWidth: 0
Flags: HMW
LayerCount: 2
Fore
SplineSet
79 780 m 1
 131 780 l 1
 131 0 l 1
 79 0 l 1
 79 780 l 1
303.8 773.6 m 1
 356.2 753.6 l 1
 246.2 503.6 l 1
 209 517 l 1
 303.8 773.6 l 1
EndSplineSet
EndChar

StartChar: Ldot
Encoding: 319 319 300
Width: 442
VWidth: 0
Flags: HMW
LayerCount: 2
Fore
SplineSet
84 700 m 1
 139 700 l 1
 139 52 l 1
 428 52 l 1
 428 0 l 1
 84 0 l 1
 84 700 l 1
260.6 414.6 m 0
 260.6 435.4 277.6 452 298 452 c 0
 318.4 452 335.4 435.4 335.4 414.6 c 0
 335.4 393.8 318.4 377.2 298 377.2 c 0
 277.6 377.2 260.6 393.8 260.6 414.6 c 0
EndSplineSet
EndChar

StartChar: ldot
Encoding: 320 320 301
Width: 370
VWidth: 0
Flags: HMW
LayerCount: 2
Fore
SplineSet
79 780 m 1
 131 780 l 1
 131 0 l 1
 79 0 l 1
 79 780 l 1
221 407.4 m 0
 221 428.2 238 444.8 258.4 444.8 c 0
 278.8 444.8 295.8 428.2 295.8 407.4 c 0
 295.8 386.6 278.8 370 258.4 370 c 0
 238 370 221 386.6 221 407.4 c 0
EndSplineSet
EndChar

StartChar: eth
Encoding: 240 240 302
Width: 560
VWidth: 0
Flags: HMW
LayerCount: 2
Fore
SplineSet
457.4 226 m 0
 457.4 326 385.6 407.8 275.6 407.8 c 0
 180 407.8 102.6 330 102.6 226 c 0
 102.6 118 176 40.2 280 40.2 c 0
 386 40.2 457.4 120.8 457.4 226 c 0
230 700 m 1
 461.2 376.6 l 2
 488.2 339.6 510 283 510 226 c 0
 510 86 415 -10 280 -10 c 0
 145 -10 50 86 50 226 c 0
 50 351 143 449 257 449 c 0
 314 449 359.8 432.2 392.8 391.6 c 1
 389.2 388.6 l 1
 161 700 l 1
 230 700 l 1
151 542 m 1
 151 585 l 1
 439 585 l 1
 439 542 l 1
 151 542 l 1
EndSplineSet
EndChar

StartChar: racute
Encoding: 341 341 303
Width: 321
VWidth: 0
Flags: HMW
LayerCount: 2
Fore
SplineSet
131 460 m 1
 131 0 l 1
 79 0 l 1
 79 460 l 1
 131 460 l 1
284 399.2 m 1
 264 413.6 247.6 421 224 421 c 0
 156 421 131 358 131 280 c 1
 107.4 280 l 1
 107.4 389 163 470 236 470 c 0
 265 470 291.6 461.8 312.8 442 c 1
 284 399.2 l 1
328 682.8 m 1
 150.4 530 l 1
 122.4 550 l 1
 280.4 710 l 1
 328 682.8 l 1
EndSplineSet
EndChar

StartChar: rcaron
Encoding: 345 345 304
Width: 321
VWidth: 0
Flags: HMW
LayerCount: 2
Fore
SplineSet
131 460 m 1
 131 0 l 1
 79 0 l 1
 79 460 l 1
 131 460 l 1
284 399.2 m 1
 264 413.6 247.6 421 224 421 c 0
 156 421 131 358 131 280 c 1
 107.4 280 l 1
 107.4 389 163 470 236 470 c 0
 265 470 291.6 461.8 312.8 442 c 1
 284 399.2 l 1
195.6 585.8 m 1
 322.4 697.2 l 1
 355.6 670 l 1
 195.6 530 l 1
 35.6 670 l 1
 68.8 697.2 l 1
 195.6 585.8 l 1
EndSplineSet
EndChar

StartChar: Rcaron
Encoding: 344 344 305
Width: 523
VWidth: 0
Flags: HMW
LayerCount: 2
Fore
SplineSet
202.6 333.8 m 1
 264.4 333.8 l 1
 503.2 0 l 1
 434.6 0 l 1
 202.6 333.8 l 1
84 700 m 1
 139.4 700 l 1
 139.4 0 l 1
 84 0 l 1
 84 700 l 1
113 650.6 m 1
 113 700 l 1
 244 700 l 2
 379 700 481.2 625.8 481.2 496.8 c 0
 481.2 367.8 379 293.6 244 293.6 c 2
 113 293.6 l 1
 113 342.6 l 1
 244 342.6 l 2
 350.8 342.6 425.8 396 425.8 496.8 c 0
 425.8 597.6 350.4 650.6 244 650.6 c 2
 113 650.6 l 1
244.2 825 m 1
 371 936.4 l 1
 404.2 909.2 l 1
 244.2 769.2 l 1
 84.2 909.2 l 1
 117.4 936.4 l 1
 244.2 825 l 1
EndSplineSet
EndChar

StartChar: uni0213
Encoding: 531 531 306
Width: 321
VWidth: 0
Flags: HMW
LayerCount: 2
Fore
SplineSet
131 460 m 1
 131 0 l 1
 79 0 l 1
 79 460 l 1
 131 460 l 1
284 399.2 m 1
 264 413.6 247.6 421 224 421 c 0
 156 421 131 358 131 280 c 1
 107.4 280 l 1
 107.4 389 163 470 236 470 c 0
 265 470 291.6 461.8 312.8 442 c 1
 284 399.2 l 1
38.2 538 m 1
 84.8 538 l 1
 84.8 580 117.4 635 196.2 635 c 0
 275 635 307.6 580 307.6 538 c 1
 354.2 538 l 1
 354.2 607 301.2 678 196.2 678 c 0
 91.2 678 38.2 607 38.2 538 c 1
EndSplineSet
EndChar

StartChar: uni0212
Encoding: 530 530 307
Width: 523
VWidth: 0
Flags: HMW
LayerCount: 2
Fore
SplineSet
202.6 333.8 m 1
 264.4 333.8 l 1
 503.2 0 l 1
 434.6 0 l 1
 202.6 333.8 l 1
84 700 m 1
 139.4 700 l 1
 139.4 0 l 1
 84 0 l 1
 84 700 l 1
113 650.6 m 1
 113 700 l 1
 244 700 l 2
 379 700 481.2 625.8 481.2 496.8 c 0
 481.2 367.8 379 293.6 244 293.6 c 2
 113 293.6 l 1
 113 342.6 l 1
 244 342.6 l 2
 350.8 342.6 425.8 396 425.8 496.8 c 0
 425.8 597.6 350.4 650.6 244 650.6 c 2
 113 650.6 l 1
110.2 769.2 m 1
 156.8 769.2 l 1
 156.8 811.2 189.4 866.2 268.2 866.2 c 0
 347 866.2 379.6 811.2 379.6 769.2 c 1
 426.2 769.2 l 1
 426.2 838.2 373.2 909.2 268.2 909.2 c 0
 163.2 909.2 110.2 838.2 110.2 769.2 c 1
EndSplineSet
EndChar

StartChar: OE
Encoding: 338 338 308
Width: 971
VWidth: 0
Flags: HMW
LayerCount: 2
Fore
SplineSet
544 358 m 1
 544 410 l 1
 877 410 l 1
 877 358 l 1
 544 358 l 1
515 680 m 1
 570.4 680 l 1
 570.4 20 l 1
 515 20 l 1
 515 680 l 1
898 52 m 1
 898 0 l 1
 390 0 l 2
 187 0 40 141 40 350 c 0
 40 559 186 700 390 700 c 2
 897 700 l 1
 897 648 l 1
 550 648 l 1
 533 648 l 1
 390 648 l 2
 218 648 95 527 95 350 c 0
 95 173 219 52 390 52 c 2
 530 52 l 1
 554 52 l 1
 898 52 l 1
EndSplineSet
EndChar

StartChar: oe
Encoding: 339 339 309
Width: 910
VWidth: 0
Flags: HMW
LayerCount: 2
Fore
SplineSet
816 250 m 1
 816 344 758 424 656 424 c 0
 556 424 485 346.8 485 248.8 c 1
 483.8 230.8 l 1
 483.8 112.8 554 39 656 39 c 0
 734.2 39 787 77.6 821.2 134 c 1
 863.4 106.6 l 1
 817.4 36.6 755 -10 656 -10 c 0
 527 -10 438.8 95 438.8 230 c 0
 438.8 247 439.8 263 442.8 279 c 0
 461.8 392 547 470 662 470 c 0
 772 470 871.4 378.6 871.4 241.6 c 0
 871.4 233.6 871 225.2 870 217.2 c 1
 815.6 229.6 l 1
 816 250 l 1
470.6 217.2 m 1
 470.6 262 l 1
 858 262 l 1
 870 217.2 l 1
 470.6 217.2 l 1
39 230 m 0
 39 379 138 470 259 470 c 0
 376 470 462.8 379 462.8 230 c 0
 462.8 81 376 -10 259 -10 c 0
 138 -10 39 81 39 230 c 0
91.6 230 m 0
 91.6 110 169.6 39 266.2 39 c 0
 348.2 39 426.4 112 426.4 230 c 0
 426.4 348 348.2 421 266.2 421 c 0
 169.6 421 91.6 350 91.6 230 c 0
EndSplineSet
EndChar

StartChar: a.alt
Encoding: 65536 -1 310
Width: 558
VWidth: 0
Flags: HMW
LayerCount: 2
Fore
SplineSet
435.4 460 m 1
 484.4 460 l 1
 484.4 0 l 1
 435.4 0 l 1
 435.4 460 l 1
39 230 m 0
 39 378.2 138 470 261 470 c 0
 379.2 470 456 367 456 230 c 0
 456 93 379.2 -10 261 -10 c 0
 138 -10 39 81.8 39 230 c 0
91.6 230 m 0
 91.6 110 170.8 39 268.2 39 c 0
 353.8 39 432.4 120 432.4 230 c 0
 432.4 340 353.8 421 268.2 421 c 0
 170.8 421 91.6 350 91.6 230 c 0
EndSplineSet
EndChar

StartChar: Jcircumflex
Encoding: 308 308 312
Width: 222
VWidth: 0
Flags: HMW
LayerCount: 2
Fore
SplineSet
-91 -125.6 m 1
 -73 -149 -39.6 -167.6 0.4 -167.6 c 0
 54 -167.6 86.4 -136 86.4 -50 c 2
 86.4 700 l 1
 138.8 700 l 1
 138.8 -60 l 2
 138.8 -169 91.8 -220 -2.2 -220 c 0
 -55.2 -220 -105.2 -188 -120.2 -168 c 1
 -91 -125.6 l 1
112.8 880.2 m 1
 -14.8 769.2 l 1
 -47.2 796 l 1
 112.8 936 l 1
 272.8 796 l 1
 239.6 769.2 l 1
 112.8 880.2 l 1
EndSplineSet
EndChar

StartChar: jcircumflex
Encoding: 309 309 313
Width: 222
VWidth: 0
Flags: HMW
LayerCount: 2
Fore
SplineSet
-48.6 -134.4 m 1
 -33.8 -156.2 -12.4 -168 12 -168 c 0
 62 -168 80 -124.8 80 -62.8 c 2
 80 460 l 1
 132 460 l 1
 132 -68.8 l 2
 132 -161.8 93 -220 9 -220 c 0
 -34 -220 -62.8 -196.8 -77.8 -176.8 c 1
 -48.6 -134.4 l 1
106 641 m 1
 -21.2 530 l 1
 -54 556.8 l 1
 106 696.8 l 1
 266 556.8 l 1
 233.2 530 l 1
 106 641 l 1
EndSplineSet
EndChar

StartChar: Nacute
Encoding: 323 323 314
Width: 731
VWidth: 0
Flags: HMW
LayerCount: 2
Fore
SplineSet
599.6 700 m 1
 655 700 l 1
 655 -27 l 1
 123.4 583.8 l 1
 123.4 0 l 1
 68 0 l 1
 68 727 l 1
 599.6 114.2 l 1
 599.6 700 l 1
526.4 907.8 m 1
 348.8 755 l 1
 320.2 775 l 1
 478.2 935 l 1
 526.4 907.8 l 1
EndSplineSet
EndChar

StartChar: nacute
Encoding: 324 324 315
Width: 505
VWidth: 0
Flags: HMW
LayerCount: 2
Fore
SplineSet
131 460 m 1
 131 0 l 1
 79 0 l 1
 79 460 l 1
 131 460 l 1
374 296 m 2
 374 374 341 421 266 421 c 0
 187.6 421 131 357.6 131 280 c 1
 113.4 280 l 1
 113.4 389 183 470 278 470 c 0
 373 470 426 409 426 302 c 2
 426 0 l 1
 374 0 l 1
 374 296 l 2
394.4 686.8 m 1
 217.2 534 l 1
 188.8 554 l 1
 346.8 714 l 1
 394.4 686.8 l 1
EndSplineSet
EndChar

StartChar: uni0145
Encoding: 325 325 316
Width: 731
VWidth: 0
Flags: HMW
LayerCount: 2
Fore
SplineSet
376.2 -39 m 1
 428.6 -59 l 1
 318.6 -309 l 1
 281.4 -295.6 l 1
 376.2 -39 l 1
599.6 700 m 1
 655 700 l 1
 655 -27 l 1
 123.4 583.8 l 1
 123.4 0 l 1
 68 0 l 1
 68 727 l 1
 599.6 114.2 l 1
 599.6 700 l 1
EndSplineSet
EndChar

StartChar: uni0146
Encoding: 326 326 317
Width: 505
VWidth: 0
Flags: HMW
LayerCount: 2
Fore
SplineSet
131 460 m 1
 131 0 l 1
 79 0 l 1
 79 460 l 1
 131 460 l 1
374 296 m 2
 374 374 341 421 266 421 c 0
 187.6 421 131 357.6 131 280 c 1
 107.4 280 l 1
 107.4 389 183 470 278 470 c 0
 373 470 426 409 426 302 c 2
 426 0 l 1
 374 0 l 1
 374 296 l 2
261.2 -52 m 1
 314 -72 l 1
 204 -322 l 1
 166.8 -308.6 l 1
 261.2 -52 l 1
EndSplineSet
EndChar

StartChar: Ncaron
Encoding: 327 327 318
Width: 731
VWidth: 0
Flags: HMW
LayerCount: 2
Fore
SplineSet
376 838.8 m 1
 502.8 950.2 l 1
 536 923 l 1
 376 783 l 1
 216 923 l 1
 249.2 950.2 l 1
 376 838.8 l 1
599.6 700 m 1
 655 700 l 1
 655 -27 l 1
 123.4 583.8 l 1
 123.4 0 l 1
 68 0 l 1
 68 727 l 1
 599.6 114.2 l 1
 599.6 700 l 1
EndSplineSet
EndChar

StartChar: ncaron
Encoding: 328 328 319
Width: 505
VWidth: 0
Flags: HMW
LayerCount: 2
Fore
SplineSet
131 460 m 1
 131 0 l 1
 79 0 l 1
 79 460 l 1
 131 460 l 1
374 296 m 2
 374 374 341 421 266 421 c 0
 187.6 421 131 357.6 131 280 c 1
 107.4 280 l 1
 107.4 389 183 470 278 470 c 0
 373 470 426 409 426 302 c 2
 426 0 l 1
 374 0 l 1
 374 296 l 2
252.4 585.8 m 1
 379.2 697.2 l 1
 412.4 670 l 1
 252.4 530 l 1
 92.4 670 l 1
 125.6 697.2 l 1
 252.4 585.8 l 1
EndSplineSet
EndChar

StartChar: Omacron
Encoding: 332 332 320
Width: 783
VWidth: 0
Flags: HMW
LayerCount: 2
Fore
SplineSet
102.4 350 m 0
 102.4 174.8 223.6 46.2 391.8 46.2 c 0
 560 46.2 681.2 174.8 681.2 350 c 0
 681.2 525.2 560 653.8 391.8 653.8 c 0
 223.6 653.8 102.4 525.2 102.4 350 c 0
44 350 m 0
 44 556 191.8 709.2 391.8 709.2 c 0
 591.8 709.2 739.6 556 739.6 350 c 0
 739.6 144 591.8 -9.2 391.8 -9.2 c 0
 191.8 -9.2 44 144 44 350 c 0
216.8 777.2 m 1
 216.8 826.2 l 1
 566.8 826.2 l 1
 566.8 777.2 l 1
 216.8 777.2 l 1
EndSplineSet
EndChar

StartChar: omacron
Encoding: 333 333 321
Width: 550
VWidth: 0
Flags: HMW
LayerCount: 2
Fore
SplineSet
39 230 m 0
 39 369 141.2 470 275 470 c 0
 408.8 470 511 369 511 230 c 0
 511 91 408.8 -10 275 -10 c 0
 141.2 -10 39 91 39 230 c 0
91.6 230 m 0
 91.6 118.8 171 39 275 39 c 0
 379 39 458.4 118.8 458.4 230 c 0
 458.4 341.2 379 421 275 421 c 0
 171 421 91.6 341.2 91.6 230 c 0
100 538 m 1
 100 587 l 1
 450 587 l 1
 450 538 l 1
 100 538 l 1
EndSplineSet
EndChar

StartChar: Obreve
Encoding: 334 334 322
Width: 783
VWidth: 0
Flags: HMW
LayerCount: 2
Fore
SplineSet
102.4 350 m 0
 102.4 174.8 223.6 46.2 391.8 46.2 c 0
 560 46.2 681.2 174.8 681.2 350 c 0
 681.2 525.2 560 653.8 391.8 653.8 c 0
 223.6 653.8 102.4 525.2 102.4 350 c 0
44 350 m 0
 44 556 191.8 709.2 391.8 709.2 c 0
 591.8 709.2 739.6 556 739.6 350 c 0
 739.6 144 591.8 -9.2 391.8 -9.2 c 0
 191.8 -9.2 44 144 44 350 c 0
233.8 909.2 m 1
 280.4 909.2 l 1
 280.4 867.2 313 812.2 391.8 812.2 c 0
 470.6 812.2 503.2 867.2 503.2 909.2 c 1
 549.8 909.2 l 1
 549.8 840.2 496.8 769.2 391.8 769.2 c 0
 286.8 769.2 233.8 840.2 233.8 909.2 c 1
EndSplineSet
EndChar

StartChar: obreve
Encoding: 335 335 323
Width: 550
VWidth: 0
Flags: HMW
LayerCount: 2
Fore
SplineSet
39 230 m 0
 39 369 141.2 470 275 470 c 0
 408.8 470 511 369 511 230 c 0
 511 91 408.8 -10 275 -10 c 0
 141.2 -10 39 91 39 230 c 0
91.6 230 m 0
 91.6 118.8 171 39 275 39 c 0
 379 39 458.4 118.8 458.4 230 c 0
 458.4 341.2 379 421 275 421 c 0
 171 421 91.6 341.2 91.6 230 c 0
117 670 m 1
 163.6 670 l 1
 163.6 628 196.2 573 275 573 c 0
 353.8 573 386.4 628 386.4 670 c 1
 433 670 l 1
 433 601 380 530 275 530 c 0
 170 530 117 601 117 670 c 1
EndSplineSet
EndChar

StartChar: Racute
Encoding: 340 340 324
Width: 523
VWidth: 0
Flags: HMW
LayerCount: 2
Fore
SplineSet
202.6 333.8 m 1
 264.4 333.8 l 1
 503.2 0 l 1
 434.6 0 l 1
 202.6 333.8 l 1
84 700 m 1
 139.4 700 l 1
 139.4 0 l 1
 84 0 l 1
 84 700 l 1
113 650.6 m 1
 113 700 l 1
 244 700 l 2
 379 700 481.2 625.8 481.2 496.8 c 0
 481.2 367.8 379 293.6 244 293.6 c 2
 113 293.6 l 1
 113 342.6 l 1
 244 342.6 l 2
 350.8 342.6 425.8 396 425.8 496.8 c 0
 425.8 597.6 350.4 650.6 244 650.6 c 2
 113 650.6 l 1
388.2 922 m 1
 211 769.2 l 1
 182 789.2 l 1
 340 949.2 l 1
 388.2 922 l 1
EndSplineSet
EndChar

StartChar: uni0156
Encoding: 342 342 325
Width: 523
VWidth: 0
Flags: HMW
LayerCount: 2
Fore
SplineSet
202.6 333.8 m 1
 264.4 333.8 l 1
 503.2 0 l 1
 434.6 0 l 1
 202.6 333.8 l 1
84 700 m 1
 139.4 700 l 1
 139.4 0 l 1
 84 0 l 1
 84 700 l 1
113 650.6 m 1
 113 700 l 1
 244 700 l 2
 379 700 481.2 625.8 481.2 496.8 c 0
 481.2 367.8 379 293.6 244 293.6 c 2
 113 293.6 l 1
 113 342.6 l 1
 244 342.6 l 2
 350.8 342.6 425.8 396 425.8 496.8 c 0
 425.8 597.6 350.4 650.6 244 650.6 c 2
 113 650.6 l 1
294.6 -60 m 1
 347.4 -80 l 1
 237.4 -330 l 1
 200.2 -316.6 l 1
 294.6 -60 l 1
EndSplineSet
EndChar

StartChar: uni0157
Encoding: 343 343 326
Width: 321
VWidth: 0
Flags: HMW
LayerCount: 2
Fore
SplineSet
131 460 m 1
 131 0 l 1
 79 0 l 1
 79 460 l 1
 131 460 l 1
284 399.2 m 1
 264 413.6 247.6 421 224 421 c 0
 156 421 131 358 131 280 c 1
 107.4 280 l 1
 107.4 389 163 470 236 470 c 0
 265 470 291.6 461.8 312.8 442 c 1
 284 399.2 l 1
110.2 -60 m 1
 162.6 -80 l 1
 52.6 -330 l 1
 15.4 -316.6 l 1
 110.2 -60 l 1
EndSplineSet
EndChar

StartChar: Scedilla
Encoding: 350 350 327
Width: 524
VWidth: 0
Flags: HMW
LayerCount: 2
Fore
SplineSet
87.2 214.4 m 1
 123.2 121.6 178.4 43.2 279 43.2 c 0
 379 43.2 421.8 98.6 421.8 179.8 c 0
 421.8 275 335.8 317.8 257.4 346.4 c 0
 183.4 373 77 417.4 77 538 c 0
 77 640 156 709.2 268 709.2 c 0
 381 709.2 442.6 633 472 556 c 1
 426.6 527.6 l 1
 401 589.2 351.2 656.2 262.6 656.2 c 0
 184.6 656.2 134.8 608.4 134.8 537.4 c 0
 134.8 456.6 219.8 416.4 304.8 384.8 c 0
 381.8 356.6 479 303.4 479 184 c 0
 479 73 409 -9.2 276 -9.2 c 0
 157 -9.2 78 79.2 40 187 c 1
 87.2 214.4 l 1
279.6 35 m 1
 320.4 35 l 1
 260.2 -62.6 l 1
 272.4 -56.2 278.6 -53 293.6 -53 c 0
 326.6 -53 366 -78 366 -127 c 0
 366 -188 314.6 -221 259.6 -221 c 0
 222.6 -221 198 -211 170 -183 c 1
 193.2 -156.6 l 1
 215.8 -175.8 230.8 -184.6 259.6 -184.6 c 0
 298.8 -184.6 328.4 -163.8 328.4 -127 c 0
 328.4 -95 305.2 -79.8 273.2 -79.8 c 0
 255.2 -79.8 227.8 -86.2 206 -101 c 1
 279.6 35 l 1
EndSplineSet
EndChar

StartChar: scedilla
Encoding: 351 351 328
Width: 403
VWidth: 0
Flags: HMW
LayerCount: 2
Fore
SplineSet
72.8 156.6 m 1
 97.6 94.6 143 39.6 208.2 39.6 c 0
 262.8 39.6 302.8 67.8 302.8 120 c 0
 302.8 175.2 249.4 199 190.4 219.6 c 0
 123.4 243 59.2 264.8 59.2 351.8 c 0
 59.2 431.8 127.4 469.8 200.6 469.8 c 0
 276.4 469.8 329.8 426.8 353.8 375.8 c 1
 311.4 350 l 1
 291.4 387.8 252.2 422 201.2 422 c 0
 151.2 422 110 401.2 110 353.6 c 0
 110 294.8 170.2 279.2 228.8 258.6 c 0
 294.2 234.8 356.6 200.4 356.6 125.4 c 0
 356.6 34.4 293.2 -9.4 208.2 -9.4 c 0
 115.2 -9.4 57 57 31 132 c 1
 72.8 156.6 l 1
211.2 34.8 m 1
 253.2 34.8 l 1
 192.4 -62.8 l 1
 204.6 -56.4 210.2 -53.2 225.2 -53.2 c 0
 258.2 -53.2 298.8 -78.2 298.8 -127.2 c 0
 298.8 -188.2 246.2 -221.2 191.2 -221.2 c 0
 154.2 -221.2 130.8 -211.2 102.8 -183.2 c 1
 124.8 -156.8 l 1
 147.4 -176 162.4 -184.8 191.2 -184.8 c 0
 230.4 -184.8 260 -164 260 -127.2 c 0
 260 -95.2 236.8 -80 204.8 -80 c 0
 186.8 -80 160.6 -86.4 138.8 -101.2 c 1
 211.2 34.8 l 1
EndSplineSet
EndChar

StartChar: Zcaron
Encoding: 381 381 329
Width: 541
VWidth: 0
Flags: HMW
LayerCount: 2
Fore
SplineSet
37 647.6 m 1
 37 700 l 1
 523 700 l 1
 111 52.4 l 1
 507 52.4 l 1
 507 0 l 1
 17 0 l 1
 429 647.6 l 1
 37 647.6 l 1
280 825 m 1
 406.8 936.4 l 1
 440 909.2 l 1
 280 769.2 l 1
 120 909.2 l 1
 153.2 936.4 l 1
 280 825 l 1
EndSplineSet
EndChar

StartChar: zcaron
Encoding: 382 382 330
Width: 448
VWidth: 0
Flags: HMW
LayerCount: 2
Fore
SplineSet
235 585.8 m 1
 361.8 697.2 l 1
 395 670 l 1
 235 530 l 1
 75 670 l 1
 108.2 697.2 l 1
 235 585.8 l 1
332 411 m 1
 43 411 l 1
 43 460 l 1
 427 460 l 1
 112 49 l 1
 419 49 l 1
 419 0 l 1
 17 0 l 1
 332 411 l 1
EndSplineSet
EndChar

StartChar: Ydieresis
Encoding: 376 376 331
Width: 539
VWidth: 0
Flags: HMW
LayerCount: 2
Fore
SplineSet
136.4 806.6 m 0
 136.4 827.4 153.2 844 173.6 844 c 0
 194 844 211.6 827.4 211.6 806.6 c 0
 211.6 785.8 194 769.2 173.6 769.2 c 0
 153.2 769.2 136.4 785.8 136.4 806.6 c 0
328.4 806.6 m 0
 328.4 827.4 345.2 844 365.6 844 c 0
 386 844 403.6 827.4 403.6 806.6 c 0
 403.6 785.8 386 769.2 365.6 769.2 c 0
 345.2 769.2 328.4 785.8 328.4 806.6 c 0
468.2 700 m 1
 530.4 700 l 1
 295.4 288 l 1
 295.4 0 l 1
 240 0 l 1
 240 287 l 1
 9 700 l 1
 71.2 700 l 1
 267.2 338 l 1
 468.2 700 l 1
EndSplineSet
EndChar

StartChar: Scaron
Encoding: 352 352 332
Width: 524
VWidth: 0
Flags: HMW
LayerCount: 2
Fore
SplineSet
87.2 214.4 m 1
 123.2 121.6 178.4 43.2 279 43.2 c 0
 379 43.2 421.8 98.6 421.8 179.8 c 0
 421.8 275 335.8 317.8 257.4 346.4 c 0
 183.4 373 77 426.4 77 541 c 0
 77 643 162 709.2 268 709.2 c 0
 381 709.2 448 627 472 556 c 1
 426.6 527.6 l 1
 401 589.2 357.2 656.2 268.6 656.2 c 0
 190.6 656.2 134.8 608.4 134.8 537.4 c 0
 134.8 456.6 219.8 416.4 304.8 384.8 c 0
 381.8 356.6 479 303.4 479 184 c 0
 479 73 415 -9.2 276 -9.2 c 0
 157 -9.2 78 79.2 40 187 c 1
 87.2 214.4 l 1
268 829 m 1
 394.8 940.4 l 1
 428 913.2 l 1
 268 773.2 l 1
 108 913.2 l 1
 141.2 940.4 l 1
 268 829 l 1
EndSplineSet
EndChar

StartChar: scaron
Encoding: 353 353 333
Width: 403
VWidth: 0
Flags: HMW
LayerCount: 2
Fore
SplineSet
74.6 155.4 m 1
 87.4 93.4 132.2 39 205.2 39 c 0
 264 39 302.8 67.8 302.8 120.6 c 0
 302.8 177 249.4 200.8 190.4 221.4 c 0
 123.4 244.8 59.2 272 59.2 353 c 0
 59.2 427 127.4 469.2 200.6 469.2 c 0
 276.4 469.2 335.8 426.2 353.8 375.2 c 1
 311.4 349.4 l 1
 291.4 387.2 252.2 419.6 201.2 419.6 c 0
 151.2 419.6 111.2 397.6 111.2 350 c 0
 111.2 296 170.2 276.2 228.8 255.6 c 0
 294.2 231.8 356.6 193.8 356.6 124.8 c 0
 356.6 33.8 293.2 -10 202.2 -10 c 0
 109.2 -10 45 56.4 31 131.4 c 1
 74.6 155.4 l 1
200.6 585.8 m 1
 327.4 697.2 l 1
 360.6 670 l 1
 200.6 530 l 1
 40.6 670 l 1
 73.8 697.2 l 1
 200.6 585.8 l 1
EndSplineSet
EndChar

StartChar: Lslash
Encoding: 321 321 334
Width: 420
VWidth: 0
Flags: HMW
LayerCount: 2
Fore
SplineSet
-0.6 358.8 m 1
 -15 395 l 1
 255 565 l 1
 269.4 528.8 l 1
 -0.6 358.8 l 1
80 700 m 1
 135.4 700 l 1
 135.4 52 l 1
 410 52 l 1
 410 0 l 1
 80 0 l 1
 80 700 l 1
EndSplineSet
EndChar

StartChar: lslash
Encoding: 322 322 335
Width: 202
VWidth: 0
Flags: HMW
LayerCount: 2
Fore
SplineSet
-0.2 358.8 m 1
 -15 395 l 1
 207 545 l 1
 221.8 508.8 l 1
 -0.2 358.8 l 1
75 780 m 1
 127 780 l 1
 127 0 l 1
 75 0 l 1
 75 780 l 1
EndSplineSet
EndChar

StartChar: uni0218
Encoding: 536 536 336
Width: 524
VWidth: 0
Flags: HMW
LayerCount: 2
Fore
SplineSet
87.2 214.4 m 1
 123.2 121.6 178.4 43.2 279 43.2 c 0
 379 43.2 421.8 98.6 421.8 179.8 c 0
 421.8 275 335.8 317.8 257.4 346.4 c 0
 183.4 373 77 426.4 77 541 c 0
 77 643 162 709.2 268 709.2 c 0
 381 709.2 448 627 472 556 c 1
 426.6 527.6 l 1
 401 589.2 357.2 656.2 268.6 656.2 c 0
 190.6 656.2 134.8 608.4 134.8 537.4 c 0
 134.8 456.6 219.8 416.4 304.8 384.8 c 0
 381.8 356.6 479 303.4 479 184 c 0
 479 73 415 -9.2 276 -9.2 c 0
 157 -9.2 78 79.2 40 187 c 1
 87.2 214.4 l 1
297.2 -69.2 m 1
 349.6 -89.2 l 1
 239.6 -339.2 l 1
 202.4 -325.8 l 1
 297.2 -69.2 l 1
EndSplineSet
EndChar

StartChar: uni0219
Encoding: 537 537 337
Width: 403
VWidth: 0
Flags: HMW
LayerCount: 2
Fore
SplineSet
74.6 155.4 m 1
 87.4 93.4 132.2 39 205.2 39 c 0
 264 39 302.8 67.8 302.8 120.6 c 0
 302.8 177 249.4 200.8 190.4 221.4 c 0
 123.4 244.8 59.2 272 59.2 353 c 0
 59.2 427 127.4 469.2 200.6 469.2 c 0
 276.4 469.2 335.8 426.2 353.8 375.2 c 1
 311.4 349.4 l 1
 291.4 387.2 252.2 419.6 201.2 419.6 c 0
 151.2 419.6 111.2 397.6 111.2 350 c 0
 111.2 296 170.2 276.2 228.8 255.6 c 0
 294.2 231.8 356.6 193.8 356.6 124.8 c 0
 356.6 33.8 293.2 -10 202.2 -10 c 0
 109.2 -10 45 56.4 31 131.4 c 1
 74.6 155.4 l 1
223.4 -70 m 1
 275.8 -90 l 1
 165.8 -340 l 1
 128.6 -326.6 l 1
 223.4 -70 l 1
EndSplineSet
EndChar

StartChar: pi
Encoding: 960 960 338
Width: 512
VWidth: 0
Flags: HMW
LayerCount: 2
Fore
SplineSet
90 438 m 1
 142 438 l 1
 142 0 l 1
 90 0 l 1
 90 438 l 1
30 460 m 1
 472 460 l 1
 472 411 l 1
 30 411 l 1
 30 460 l 1
340 438 m 1
 392 438 l 1
 392 133 l 2
 392 55 407 43 445 43 c 1
 445 -9 l 1
 373 -9 340 12 340 121 c 2
 340 438 l 1
EndSplineSet
EndChar

StartChar: trademark
Encoding: 8482 8482 339
Width: 665
VWidth: 0
Flags: HMW
LayerCount: 2
Fore
SplineSet
34.4 673.6 m 1
 34.4 700 l 1
 246.6 700 l 1
 246.6 673.6 l 1
 154.2 673.6 l 1
 154.2 350 l 1
 126.4 350 l 1
 126.4 673.6 l 1
 34.4 673.6 l 1
574 636.4 m 1
 592.4 713.4 l 1
 632.4 350 l 1
 605.2 350 l 1
 574 636.4 l 1
312.4 713.4 m 1
 330.4 636.4 l 1
 299.6 350 l 1
 272 350 l 1
 312.4 713.4 l 1
592.4 713.4 m 1
 590.8 654.4 l 1
 452.4 390 l 1
 313.6 654.4 l 1
 312.4 713.4 l 1
 452.4 444.4 l 1
 592.4 713.4 l 1
EndSplineSet
EndChar

StartChar: uni2219
Encoding: 8729 8729 340
Width: 284
VWidth: 0
Flags: HMW
LayerCount: 2
Fore
SplineSet
104.6 428.6 m 0
 104.6 449.4 121.6 466 142 466 c 0
 162.4 466 179.4 449.4 179.4 428.6 c 0
 179.4 407.8 162.4 391.2 142 391.2 c 0
 121.6 391.2 104.6 407.8 104.6 428.6 c 0
EndSplineSet
EndChar

StartChar: agrave.alt
Encoding: 65537 -1 341
Width: 558
VWidth: 0
Flags: HMW
LayerCount: 2
Fore
SplineSet
435.4 460 m 1
 484.4 460 l 1
 484.4 0 l 1
 435.4 0 l 1
 435.4 460 l 1
39 230 m 0
 39 378.2 138 470 261 470 c 0
 379.2 470 456 367 456 230 c 0
 456 93 379.2 -10 261 -10 c 0
 138 -10 39 81.8 39 230 c 0
91.6 230 m 0
 91.6 110 170.8 39 268.2 39 c 0
 353.8 39 432.4 120 432.4 230 c 0
 432.4 340 353.8 421 268.2 421 c 0
 170.8 421 91.6 350 91.6 230 c 0
132.6 686.8 m 1
 180.8 714 l 1
 338.8 554 l 1
 310.2 534 l 1
 132.6 686.8 l 1
EndSplineSet
EndChar

StartChar: aacute.alt
Encoding: 65538 -1 342
Width: 558
VWidth: 0
Flags: HMW
LayerCount: 2
Fore
SplineSet
435.4 460 m 1
 484.4 460 l 1
 484.4 0 l 1
 435.4 0 l 1
 435.4 460 l 1
39 230 m 0
 39 378.2 138 470 261 470 c 0
 379.2 470 456 367 456 230 c 0
 456 93 379.2 -10 261 -10 c 0
 138 -10 39 81.8 39 230 c 0
91.6 230 m 0
 91.6 110 170.8 39 268.2 39 c 0
 353.8 39 432.4 120 432.4 230 c 0
 432.4 340 353.8 421 268.2 421 c 0
 170.8 421 91.6 350 91.6 230 c 0
377.4 686.8 m 1
 199.8 534 l 1
 171.2 554 l 1
 329.2 714 l 1
 377.4 686.8 l 1
EndSplineSet
EndChar

StartChar: acircumflex.alt
Encoding: 65539 -1 343
Width: 558
VWidth: 0
Flags: HMW
LayerCount: 2
Fore
SplineSet
435.4 460 m 1
 484.4 460 l 1
 484.4 0 l 1
 435.4 0 l 1
 435.4 460 l 1
39 230 m 0
 39 378.2 138 470 261 470 c 0
 379.2 470 456 367 456 230 c 0
 456 93 379.2 -10 261 -10 c 0
 138 -10 39 81.8 39 230 c 0
91.6 230 m 0
 91.6 110 170.8 39 268.2 39 c 0
 353.8 39 432.4 120 432.4 230 c 0
 432.4 340 353.8 421 268.2 421 c 0
 170.8 421 91.6 350 91.6 230 c 0
273 649 m 1
 145.8 538 l 1
 113 564.8 l 1
 273 704.8 l 1
 433 564.8 l 1
 400.2 538 l 1
 273 649 l 1
EndSplineSet
EndChar

StartChar: atilde.alt
Encoding: 65540 -1 344
Width: 558
VWidth: 0
Flags: HMW
LayerCount: 2
Fore
SplineSet
435.4 460 m 1
 484.4 460 l 1
 484.4 0 l 1
 435.4 0 l 1
 435.4 460 l 1
39 230 m 0
 39 378.2 138 470 261 470 c 0
 379.2 470 456 367 456 230 c 0
 456 93 379.2 -10 261 -10 c 0
 138 -10 39 81.8 39 230 c 0
91.6 230 m 0
 91.6 110 170.8 39 268.2 39 c 0
 353.8 39 432.4 120 432.4 230 c 0
 432.4 340 353.8 421 268.2 421 c 0
 170.8 421 91.6 350 91.6 230 c 0
123.6 560.6 m 1
 129.6 601.6 165.8 633 210.8 633 c 0
 271.8 633 280.8 586 334.8 586 c 0
 357.8 586 372.8 602 390.8 634 c 1
 422.4 607 l 1
 406.4 570 374.4 542 332.4 542 c 0
 277.4 542 256 589 211 589 c 0
 170 589 159.4 557 159.4 538 c 1
 123.6 560.6 l 1
EndSplineSet
EndChar

StartChar: adieresis.alt
Encoding: 65541 -1 345
Width: 558
VWidth: 0
Flags: HMW
LayerCount: 2
Fore
SplineSet
435.4 460 m 1
 484.4 460 l 1
 484.4 0 l 1
 435.4 0 l 1
 435.4 460 l 1
39 230 m 0
 39 378.2 138 470 261 470 c 0
 379.2 470 456 367 456 230 c 0
 456 93 379.2 -10 261 -10 c 0
 138 -10 39 81.8 39 230 c 0
91.6 230 m 0
 91.6 110 170.8 39 268.2 39 c 0
 353.8 39 432.4 120 432.4 230 c 0
 432.4 340 353.8 421 268.2 421 c 0
 170.8 421 91.6 350 91.6 230 c 0
339.6 587.4 m 0
 339.6 608.2 356.6 624.8 377 624.8 c 0
 397.4 624.8 414.4 608.2 414.4 587.4 c 0
 414.4 566.6 397.4 550 377 550 c 0
 356.6 550 339.6 566.6 339.6 587.4 c 0
139.6 587.4 m 0
 139.6 608.2 156.6 624.8 177 624.8 c 0
 197.4 624.8 214.4 608.2 214.4 587.4 c 0
 214.4 566.6 197.4 550 177 550 c 0
 156.6 550 139.6 566.6 139.6 587.4 c 0
EndSplineSet
EndChar

StartChar: aring.alt
Encoding: 65542 -1 346
Width: 558
VWidth: 0
Flags: HMW
LayerCount: 2
Fore
SplineSet
435.4 460 m 1
 484.4 460 l 1
 484.4 0 l 1
 435.4 0 l 1
 435.4 460 l 1
39 230 m 0
 39 378.2 138 470 261 470 c 0
 379.2 470 456 367 456 230 c 0
 456 93 379.2 -10 261 -10 c 0
 138 -10 39 81.8 39 230 c 0
91.6 230 m 0
 91.6 110 170.8 39 268.2 39 c 0
 353.8 39 432.4 120 432.4 230 c 0
 432.4 340 353.8 421 268.2 421 c 0
 170.8 421 91.6 350 91.6 230 c 0
171 630 m 0
 171 690 221 730 273 730 c 0
 325 730 375 690 375 630 c 0
 375 570 325 530 273 530 c 0
 221 530 171 570 171 630 c 0
205.6 630 m 0
 205.6 589 238.8 562.2 273 562.2 c 0
 307.2 562.2 340.4 589 340.4 630 c 0
 340.4 671 307.2 697.8 273 697.8 c 0
 238.8 697.8 205.6 671 205.6 630 c 0
EndSplineSet
EndChar

StartChar: amacron.alt
Encoding: 65543 -1 347
Width: 558
VWidth: 0
Flags: HMW
LayerCount: 2
Fore
SplineSet
435.4 460 m 1
 484.4 460 l 1
 484.4 0 l 1
 435.4 0 l 1
 435.4 460 l 1
39 230 m 0
 39 378.2 138 470 261 470 c 0
 379.2 470 456 367 456 230 c 0
 456 93 379.2 -10 261 -10 c 0
 138 -10 39 81.8 39 230 c 0
91.6 230 m 0
 91.6 110 170.8 39 268.2 39 c 0
 353.8 39 432.4 120 432.4 230 c 0
 432.4 340 353.8 421 268.2 421 c 0
 170.8 421 91.6 350 91.6 230 c 0
92 538 m 1
 92 587 l 1
 442 587 l 1
 442 538 l 1
 92 538 l 1
EndSplineSet
EndChar

StartChar: abreve.alt
Encoding: 65544 -1 348
Width: 558
VWidth: 0
Flags: HMW
LayerCount: 2
Fore
SplineSet
435.4 460 m 1
 484.4 460 l 1
 484.4 0 l 1
 435.4 0 l 1
 435.4 460 l 1
39 230 m 0
 39 378.2 138 470 261 470 c 0
 379.2 470 456 367 456 230 c 0
 456 93 379.2 -10 261 -10 c 0
 138 -10 39 81.8 39 230 c 0
91.6 230 m 0
 91.6 110 170.8 39 268.2 39 c 0
 353.8 39 432.4 120 432.4 230 c 0
 432.4 340 353.8 421 268.2 421 c 0
 170.8 421 91.6 350 91.6 230 c 0
103 678 m 1
 149.6 678 l 1
 149.6 636 182.2 581 261 581 c 0
 339.8 581 372.4 636 372.4 678 c 1
 419 678 l 1
 419 609 366 538 261 538 c 0
 156 538 103 609 103 678 c 1
EndSplineSet
EndChar

StartChar: aogonek.alt
Encoding: 65545 -1 349
Width: 558
VWidth: 0
Flags: HMW
LayerCount: 2
Fore
SplineSet
435.4 460 m 1
 484.4 460 l 1
 484.4 0 l 1
 435.4 0 l 1
 435.4 460 l 1
39 230 m 0
 39 378.2 138 470 261 470 c 0
 379.2 470 456 367 456 230 c 0
 456 93 379.2 -10 261 -10 c 0
 138 -10 39 81.8 39 230 c 0
91.6 230 m 0
 91.6 110 170.8 39 268.2 39 c 0
 353.8 39 432.4 120 432.4 230 c 0
 432.4 340 353.8 421 268.2 421 c 0
 170.8 421 91.6 350 91.6 230 c 0
501 -147.2 m 1
 523.6 -180 l 1
 508.6 -200 474.6 -220 431.6 -220 c 0
 355.6 -220 316.6 -183 316.6 -128 c 0
 316.6 -65 387 -17 457 19 c 1
 484.4 0 l 1
 426 -26 368.6 -71 368.6 -116 c 0
 368.6 -156 396.6 -174 434.6 -174 c 0
 466.2 -174 486.6 -162.2 501 -147.2 c 1
EndSplineSet
EndChar

StartChar: dagger
Encoding: 8224 8224 350
Width: 542
VWidth: 0
Flags: HMW
LayerCount: 2
Fore
SplineSet
90 540 m 1
 452 540 l 1
 452 491 l 1
 90 491 l 1
 90 540 l 1
245 700 m 1
 297 700 l 1
 297 -150 l 1
 245 -150 l 1
 245 700 l 1
EndSplineSet
EndChar

StartChar: daggerdbl
Encoding: 8225 8225 351
Width: 542
VWidth: 0
Flags: HMW
LayerCount: 2
Fore
SplineSet
90 120 m 1
 452 120 l 1
 452 71 l 1
 90 71 l 1
 90 120 l 1
90 540 m 1
 452 540 l 1
 452 491 l 1
 90 491 l 1
 90 540 l 1
245 700 m 1
 297 700 l 1
 297 -150 l 1
 245 -150 l 1
 245 700 l 1
EndSplineSet
EndChar

StartChar: ellipsis
Encoding: 8230 8230 352
Width: 864
VWidth: 0
Flags: HMW
LayerCount: 2
Fore
SplineSet
105 24.4 m 0
 105 45.2 122 61.8 142.4 61.8 c 0
 162.8 61.8 179.8 45.2 179.8 24.4 c 0
 179.8 3.6 162.8 -13 142.4 -13 c 0
 122 -13 105 3.6 105 24.4 c 0
395 24.4 m 0
 395 45.2 412 61.8 432.4 61.8 c 0
 452.8 61.8 469.8 45.2 469.8 24.4 c 0
 469.8 3.6 452.8 -13 432.4 -13 c 0
 412 -13 395 3.6 395 24.4 c 0
685 24.4 m 0
 685 45.2 702 61.8 722.4 61.8 c 0
 742.8 61.8 759.8 45.2 759.8 24.4 c 0
 759.8 3.6 742.8 -13 722.4 -13 c 0
 702 -13 685 3.6 685 24.4 c 0
EndSplineSet
EndChar

StartChar: uniFF10
Encoding: 65296 65296 353
Width: 568
VWidth: 0
Flags: HMW
LayerCount: 2
Fore
SplineSet
95.4 350 m 0
 95.4 177.4 166.4 42 284 42 c 0
 401.6 42 472.6 177.4 472.6 350 c 0
 472.6 522.6 401.6 658 284 658 c 0
 166.4 658 95.4 522.6 95.4 350 c 0
40 350 m 0
 40 555 136 710 284 710 c 0
 432 710 528 555 528 350 c 0
 528 145 432 -10 284 -10 c 0
 136 -10 40 145 40 350 c 0
EndSplineSet
EndChar

StartChar: uniFF11
Encoding: 65297 65297 354
Width: 568
VWidth: 0
Flags: HMW
LayerCount: 2
Fore
SplineSet
135 598.8 m 1
 135 656 l 1
 351 708 l 1
 351 0 l 1
 296 0 l 1
 296 641.2 l 1
 135 598.8 l 1
EndSplineSet
EndChar

StartChar: uniFF12
Encoding: 65298 65298 355
Width: 568
VWidth: 0
Flags: HMW
LayerCount: 2
Fore
SplineSet
32.8 0 m 1
 358.8 345.4 l 2
 406 395.2 441.2 444 441.2 511.2 c 0
 441.2 579.4 396.2 659 293.2 659 c 0
 191.2 659 123.2 580 123.2 460 c 1
 68.8 460 l 1
 68.8 609 156.2 711 293.2 711 c 0
 439.2 711 497.2 597 497.2 507 c 0
 497.2 431 456.2 369.8 403.2 315.4 c 2
 147.2 52 l 1
 510.8 52 l 1
 510.8 0 l 1
 32.8 0 l 1
EndSplineSet
EndChar

StartChar: uniFF13
Encoding: 65299 65299 356
Width: 568
VWidth: 0
Flags: HMW
LayerCount: 2
Fore
SplineSet
261.2 351.8 m 1
 261.2 388 l 1
 351.2 388 429 444.6 429 525.8 c 0
 429 598.6 382.6 659.8 295.8 659.8 c 0
 213.2 659.8 154.4 603 154.4 526 c 1
 101.8 526 l 1
 101.8 635 180.2 710 295.2 710 c 0
 415.2 710 485.2 623 485.2 528 c 0
 485.2 425 384.2 351.8 261.2 351.8 c 1
291.2 -10 m 0
 156.2 -10 71.8 76 71.8 185 c 1
 127.4 185 l 1
 127.4 103 191.2 42 291.2 42 c 0
 387.2 42 449 101 449 187 c 0
 449 288.6 351.2 339 261.2 339 c 1
 261.2 375.2 l 1
 384.2 375.2 505.2 316 505.2 181 c 0
 505.2 66 416.2 -10 291.2 -10 c 0
EndSplineSet
EndChar

StartChar: uniFF14
Encoding: 65300 65300 357
Width: 568
VWidth: 0
Flags: HMW
LayerCount: 2
Fore
SplineSet
20.4 140 m 1
 66.4 189 l 1
 394.6 189 l 0
 406.4 189 l 0
 537 189 l 1
 537 140 l 1
 20.4 140 l 1
79.2 140 m 1
 20.4 140 l 1
 406 700 l 1
 427.8 700 l 1
 427.8 0 l 1
 372.4 0 l 1
 372.4 162.4 l 0
 372.4 171 l 0
 372.4 573 l 1
 79.2 140 l 1
EndSplineSet
EndChar

StartChar: uniFF15
Encoding: 65301 65301 358
Width: 568
VWidth: 0
Flags: HMW
LayerCount: 2
Fore
SplineSet
513.6 230 m 0
 513.6 71 407.2 -10 276.2 -10 c 0
 155.2 -10 85.6 53 43.6 137 c 1
 90 168.4 l 1
 123 97.2 188 42 276.2 42 c 0
 384.2 42 456.8 112 456.8 230 c 0
 456.8 336 382.6 408.4 286.6 408.4 c 0
 211.6 408.4 160.6 385 97.6 327 c 1
 134.8 379.4 l 1
 174.4 427.4 237.2 458 308.2 458 c 0
 424.2 458 513.6 365 513.6 230 c 0
231.6 651 m 1
 167.8 393.8 l 1
 97.6 327 l 1
 189.6 700 l 1
 519.6 700 l 1
 519.6 651 l 1
 231.6 651 l 1
EndSplineSet
EndChar

StartChar: uniFF16
Encoding: 65302 65302 359
Width: 568
VWidth: 0
Flags: HMW
LayerCount: 2
Fore
SplineSet
106.6 226 m 0
 106.6 118 180 40.2 284 40.2 c 0
 388 40.2 461.4 118 461.4 226 c 0
 461.4 330 384.4 407.8 288.4 407.8 c 0
 178.4 407.8 106.6 326 106.6 226 c 0
334 700 m 1
 403 700 l 1
 174.8 388.6 l 1
 171.2 391.6 l 1
 204.2 432.2 250 449 307 449 c 0
 421 449 514 351 514 226 c 0
 514 86 419 -10 284 -10 c 0
 149 -10 54 86 54 226 c 0
 54 283 75.8 339.6 102.8 376.6 c 2
 334 700 l 1
EndSplineSet
EndChar

StartChar: uniFF17
Encoding: 65303 65303 360
Width: 568
VWidth: 0
Flags: HMW
LayerCount: 2
Fore
SplineSet
55.6 648 m 1
 55.6 700 l 1
 537.6 700 l 1
 188 0 l 1
 131.2 0 l 1
 454.4 648 l 1
 55.6 648 l 1
EndSplineSet
EndChar

StartChar: uniFF18
Encoding: 65304 65304 361
Width: 568
VWidth: 0
Flags: HMW
LayerCount: 2
Fore
SplineSet
99 535 m 0
 99 630 178 710 284 710 c 0
 390 710 469 630 469 535 c 0
 469 430 387 360.2 284 360.2 c 0
 181 360.2 99 430 99 535 c 0
151.6 529 m 0
 151.6 451 220 396 284 396 c 0
 348 396 416.4 451 416.4 529 c 0
 416.4 603 361 661 284 661 c 0
 207 661 151.6 603 151.6 529 c 0
76 188 m 0
 76 309 175 382.8 284 382.8 c 0
 393 382.8 492 309 492 188 c 0
 492 79 409 -10 284 -10 c 0
 159 -10 76 79 76 188 c 0
128.6 194 m 0
 128.6 100 196 39 284 39 c 0
 372 39 439.4 100 439.4 194 c 0
 439.4 282 362 347 284 347 c 0
 206 347 128.6 282 128.6 194 c 0
EndSplineSet
EndChar

StartChar: uniFF19
Encoding: 65305 65305 362
Width: 568
VWidth: 0
Flags: HMW
LayerCount: 2
Fore
SplineSet
461.4 474 m 0
 461.4 582 388 659.8 284 659.8 c 0
 180 659.8 106.6 582 106.6 474 c 0
 106.6 370 183.6 292.2 279.6 292.2 c 0
 389.6 292.2 461.4 374 461.4 474 c 0
234 0 m 1
 165 0 l 1
 393.2 311.4 l 1
 396.8 308.4 l 1
 363.8 267.8 318 251 261 251 c 0
 147 251 54 349 54 474 c 0
 54 614 149 710 284 710 c 0
 419 710 514 614 514 474 c 0
 514 417 492.2 360.4 465.2 323.4 c 2
 234 0 l 1
EndSplineSet
EndChar

StartChar: caron
Encoding: 711 711 363
Width: 480
VWidth: 0
Flags: HMW
LayerCount: 2
Fore
SplineSet
240 625.8 m 1
 366.8 737.2 l 1
 400 710 l 1
 240 570 l 1
 80 710 l 1
 113.2 737.2 l 1
 240 625.8 l 1
EndSplineSet
EndChar

StartChar: napostrophe
Encoding: 329 329 364
Width: 627
VWidth: 0
Flags: HMW
LayerCount: 2
Fore
SplineSet
233 460 m 1
 233 0 l 1
 181 0 l 1
 181 460 l 1
 233 460 l 1
476 296 m 2
 476 374 443 421 368 421 c 0
 289.6 421 233 357.6 233 280 c 1
 209.4 280 l 1
 209.4 389 285 470 380 470 c 0
 475 470 528 409 528 302 c 2
 528 0 l 1
 476 0 l 1
 476 296 l 2
147.2 700 m 1
 209 700 l 1
 111 470 l 1
 74 470 l 1
 147.2 700 l 1
EndSplineSet
EndChar

StartChar: IJ
Encoding: 306 306 365
Width: 490
VWidth: 0
Flags: HMW
LayerCount: 2
Fore
SplineSet
159 -125.6 m 1
 177 -149 210.4 -167.6 250.4 -167.6 c 0
 304 -167.6 336.4 -136 336.4 -50 c 2
 336.4 700 l 1
 388.8 700 l 1
 388.8 -60 l 2
 388.8 -169 341.8 -220 247.8 -220 c 0
 194.8 -220 144.8 -188 129.8 -168 c 1
 159 -125.6 l 1
82 700 m 1
 137 700 l 1
 137 0 l 1
 82 0 l 1
 82 700 l 1
EndSplineSet
EndChar

StartChar: ij
Encoding: 307 307 366
Width: 510
VWidth: 0
Flags: HMW
LayerCount: 2
Fore
SplineSet
329 668 m 0
 329 688.4 345.2 705 366 705 c 0
 386.8 705 403 688.4 403 668 c 0
 403 647.6 386.8 631 366 631 c 0
 345.2 631 329 647.6 329 668 c 0
211.4 -134.4 m 1
 226.2 -156.2 247.6 -168 272 -168 c 0
 322 -168 340 -124.8 340 -62.8 c 2
 340 460 l 1
 392 460 l 1
 392 -68.8 l 2
 392 -161.8 353 -220 269 -220 c 0
 226 -220 197.2 -196.8 182.2 -176.8 c 1
 211.4 -134.4 l 1
79 668 m 0
 79 688.4 95.2 705 116 705 c 0
 136.8 705 153 688.4 153 668 c 0
 153 647.6 136.8 631 116 631 c 0
 95.2 631 79 647.6 79 668 c 0
90 460 m 1
 142 460 l 1
 142 0 l 1
 90 0 l 1
 90 460 l 1
EndSplineSet
EndChar

StartChar: uni0237
Encoding: 567 567 367
Width: 222
VWidth: 0
Flags: HMW
LayerCount: 2
Fore
SplineSet
-48.6 -134.4 m 1
 -33.8 -156.2 -12.4 -168 12 -168 c 0
 62 -168 80 -124.8 80 -62.8 c 2
 80 460 l 1
 132 460 l 1
 132 -68.8 l 2
 132 -161.8 93 -220 9 -220 c 0
 -34 -220 -62.8 -196.8 -77.8 -176.8 c 1
 -48.6 -134.4 l 1
EndSplineSet
EndChar

StartChar: Sacute
Encoding: 346 346 368
Width: 524
VWidth: 0
Flags: HMW
LayerCount: 2
Fore
SplineSet
87.2 214.4 m 1
 123.2 121.6 178.4 43.2 279 43.2 c 0
 379 43.2 421.8 98.6 421.8 179.8 c 0
 421.8 275 335.8 317.8 257.4 346.4 c 0
 183.4 373 77 426.4 77 541 c 0
 77 643 162 709.2 268 709.2 c 0
 381 709.2 448 627 472 556 c 1
 426.6 527.6 l 1
 401 589.2 357.2 656.2 268.6 656.2 c 0
 190.6 656.2 134.8 608.4 134.8 537.4 c 0
 134.8 456.6 219.8 416.4 304.8 384.8 c 0
 381.8 356.6 479 303.4 479 184 c 0
 479 73 415 -9.2 276 -9.2 c 0
 157 -9.2 78 79.2 40 187 c 1
 87.2 214.4 l 1
438 922 m 1
 261.2 769.2 l 1
 231.8 789.2 l 1
 389.8 949.2 l 1
 438 922 l 1
EndSplineSet
EndChar

StartChar: sacute
Encoding: 347 347 369
Width: 403
VWidth: 0
Flags: HMW
LayerCount: 2
Fore
SplineSet
74.6 155.4 m 1
 87.4 93.4 132.2 39 205.2 39 c 0
 264 39 302.8 67.8 302.8 120.6 c 0
 302.8 177 249.4 200.8 190.4 221.4 c 0
 123.4 244.8 59.2 272 59.2 353 c 0
 59.2 427 127.4 469.2 200.6 469.2 c 0
 276.4 469.2 335.8 426.2 353.8 375.2 c 1
 311.4 349.4 l 1
 291.4 387.2 252.2 419.6 201.2 419.6 c 0
 151.2 419.6 111.2 397.6 111.2 350 c 0
 111.2 296 170.2 276.2 228.8 255.6 c 0
 294.2 231.8 356.6 193.8 356.6 124.8 c 0
 356.6 33.8 293.2 -10 202.2 -10 c 0
 109.2 -10 45 56.4 31 131.4 c 1
 74.6 155.4 l 1
370.6 682.8 m 1
 193.8 530 l 1
 164.4 550 l 1
 322.4 710 l 1
 370.6 682.8 l 1
EndSplineSet
EndChar

StartChar: Scircumflex
Encoding: 348 348 370
Width: 524
VWidth: 0
Flags: HMW
LayerCount: 2
Fore
SplineSet
87.2 214.4 m 1
 123.2 121.6 178.4 43.2 279 43.2 c 0
 379 43.2 421.8 98.6 421.8 179.8 c 0
 421.8 275 335.8 317.8 257.4 346.4 c 0
 183.4 373 77 426.4 77 541 c 0
 77 643 162 709.2 268 709.2 c 0
 381 709.2 448 627 472 556 c 1
 426.6 527.6 l 1
 401 589.2 357.2 656.2 268.6 656.2 c 0
 190.6 656.2 134.8 608.4 134.8 537.4 c 0
 134.8 456.6 219.8 416.4 304.8 384.8 c 0
 381.8 356.6 479 303.4 479 184 c 0
 479 73 415 -9.2 276 -9.2 c 0
 157 -9.2 78 79.2 40 187 c 1
 87.2 214.4 l 1
268 880.2 m 1
 140.8 769.2 l 1
 108 796 l 1
 268 936 l 1
 428 796 l 1
 395.2 769.2 l 1
 268 880.2 l 1
EndSplineSet
EndChar

StartChar: scircumflex
Encoding: 349 349 371
Width: 403
VWidth: 0
Flags: HMW
LayerCount: 2
Fore
SplineSet
74.6 155.4 m 1
 87.4 93.4 132.2 39 205.2 39 c 0
 264 39 302.8 67.8 302.8 120.6 c 0
 302.8 177 249.4 200.8 190.4 221.4 c 0
 123.4 244.8 59.2 272 59.2 353 c 0
 59.2 427 127.4 469.2 200.6 469.2 c 0
 276.4 469.2 335.8 426.2 353.8 375.2 c 1
 311.4 349.4 l 1
 291.4 387.2 252.2 419.6 201.2 419.6 c 0
 151.2 419.6 111.2 397.6 111.2 350 c 0
 111.2 296 170.2 276.2 228.8 255.6 c 0
 294.2 231.8 356.6 193.8 356.6 124.8 c 0
 356.6 33.8 293.2 -10 202.2 -10 c 0
 109.2 -10 45 56.4 31 131.4 c 1
 74.6 155.4 l 1
200.6 641 m 1
 73.4 530 l 1
 40.6 556.8 l 1
 200.6 696.8 l 1
 360.6 556.8 l 1
 327.8 530 l 1
 200.6 641 l 1
EndSplineSet
EndChar

StartChar: uni1E9E
Encoding: 7838 7838 372
Width: 696
VWidth: 0
Flags: HMW
LayerCount: 2
Fore
SplineSet
427 -10 m 0
 300 -10 212 76 212 185 c 1
 267.6 185 l 1
 267.6 103.8 335 42 427 42 c 0
 519 42 580.8 104.2 580.8 191 c 0
 580.8 288.6 497.8 338.2 393 338.2 c 1
 393 374.4 l 1
 528 374.4 637 316 637 185 c 0
 637 70 548 -10 427 -10 c 0
393 351.8 m 1
 393 388 l 1
 497.8 388 560.8 446.2 560.8 526.2 c 0
 560.8 608.2 481.6 659.8 379.6 659.8 c 0
 237.4 659.8 135 575 135 398 c 2
 135 0 l 1
 80 0 l 1
 80 398 l 2
 80 607 204 710 379 710 c 0
 507 710 617 648 617 534 c 0
 617 425 528 351.8 393 351.8 c 1
EndSplineSet
EndChar

StartChar: Zacute
Encoding: 377 377 373
Width: 541
VWidth: 0
Flags: HW
LayerCount: 2
Fore
SplineSet
37 647.6 m 1
 37 700 l 1
 523 700 l 1
 111 52.4 l 1
 507 52.4 l 1
 507 0 l 1
 17 0 l 1
 429 647.6 l 1
 37 647.6 l 1
434.4 922 m 1
 256.8 769.2 l 1
 228.2 789.2 l 1
 386.2 949.2 l 1
 434.4 922 l 1
EndSplineSet
EndChar

StartChar: zacute
Encoding: 378 378 374
Width: 448
VWidth: 0
Flags: HW
LayerCount: 2
Fore
SplineSet
331.6 411 m 1
 43 411 l 1
 43 460 l 1
 427 460 l 1
 112.4 49 l 1
 419 49 l 1
 419 0 l 1
 17 0 l 1
 331.6 411 l 1
389.4 694.8 m 1
 211.8 542 l 1
 183.2 562 l 1
 341.2 722 l 1
 389.4 694.8 l 1
EndSplineSet
EndChar

StartChar: Zdotaccent
Encoding: 379 379 375
Width: 541
VWidth: 0
Flags: HW
LayerCount: 2
Fore
SplineSet
37 647.6 m 1
 37 700 l 1
 523 700 l 1
 111 52.4 l 1
 507 52.4 l 1
 507 0 l 1
 17 0 l 1
 429 647.6 l 1
 37 647.6 l 1
242.6 806.6 m 0
 242.6 827.4 259.6 844 280 844 c 0
 300.4 844 317.4 827.4 317.4 806.6 c 0
 317.4 785.8 300.4 769.2 280 769.2 c 0
 259.6 769.2 242.6 785.8 242.6 806.6 c 0
EndSplineSet
EndChar

StartChar: zdotaccent
Encoding: 380 380 376
Width: 448
VWidth: 0
Flags: HW
LayerCount: 2
Fore
SplineSet
331.6 411 m 1
 43 411 l 1
 43 460 l 1
 427 460 l 1
 112.4 49 l 1
 419 49 l 1
 419 0 l 1
 17 0 l 1
 331.6 411 l 1
197.6 597.4 m 0
 197.6 618.2 214.6 634.8 235 634.8 c 0
 255.4 634.8 272.4 618.2 272.4 597.4 c 0
 272.4 576.6 255.4 560 235 560 c 0
 214.6 560 197.6 576.6 197.6 597.4 c 0
EndSplineSet
EndChar

StartChar: Tcaron
Encoding: 356 356 377
Width: 451
VWidth: 0
Flags: HW
LayerCount: 2
Fore
SplineSet
14 647.6 m 1
 14 700 l 1
 437.4 700 l 1
 437.4 647.6 l 1
 253.4 647.6 l 1
 253.4 0 l 1
 198 0 l 1
 198 647.6 l 1
 14 647.6 l 1
225.7 825 m 1
 352.5 936.4 l 1
 385.7 909.2 l 1
 225.7 769.2 l 1
 65.7 909.2 l 1
 98.9 936.4 l 1
 225.7 825 l 1
EndSplineSet
EndChar

StartChar: tcaron
Encoding: 357 357 378
Width: 322
VWidth: 0
Flags: HW
LayerCount: 2
Fore
SplineSet
9 460 m 1
 211 460 l 1
 211 411 l 1
 9 411 l 1
 9 460 l 1
84 620 m 1
 136 620 l 1
 136 0 l 1
 84 0 l 1
 84 620 l 1
286.6 796 m 1
 339 776 l 1
 229 526 l 1
 191.8 539.4 l 1
 286.6 796 l 1
EndSplineSet
EndChar

StartChar: Uring
Encoding: 366 366 379
Width: 606
VWidth: 0
Flags: HW
LayerCount: 2
Fore
SplineSet
79 700 m 1
 134.4 700 l 1
 134.4 226 l 2
 134.4 114 195 42.4 303 42.4 c 0
 411 42.4 471.6 114 471.6 226 c 2
 471.6 700 l 1
 527 700 l 1
 527 226 l 2
 527 87 444 -10 303 -10 c 0
 162 -10 79 87 79 226 c 2
 79 700 l 1
201 869.2 m 0
 201 929.2 251 969.2 303 969.2 c 0
 355 969.2 405 929.2 405 869.2 c 0
 405 809.2 355 769.2 303 769.2 c 0
 251 769.2 201 809.2 201 869.2 c 0
235.6 869.2 m 0
 235.6 828.2 268.8 801.4 303 801.4 c 0
 337.2 801.4 370.4 828.2 370.4 869.2 c 0
 370.4 910.2 337.2 937 303 937 c 0
 268.8 937 235.6 910.2 235.6 869.2 c 0
EndSplineSet
EndChar

StartChar: uring
Encoding: 367 367 380
Width: 505
VWidth: 0
Flags: HW
LayerCount: 2
Fore
SplineSet
374 0 m 1
 374 460 l 1
 426 460 l 1
 426 0 l 1
 374 0 l 1
131 168 m 2
 131 86 164 39 239 39 c 0
 317.4 39 374 102.4 374 180 c 1
 391.6 180 l 1
 391.6 71 322 -10 227 -10 c 0
 132 -10 79 51 79 162 c 2
 79 460 l 1
 131 460 l 1
 131 168 l 2
150.5 630 m 0
 150.5 690 200.5 730 252.5 730 c 0
 304.5 730 354.5 690 354.5 630 c 0
 354.5 570 304.5 530 252.5 530 c 0
 200.5 530 150.5 570 150.5 630 c 0
185.1 630 m 0
 185.1 589 218.3 562.2 252.5 562.2 c 0
 286.7 562.2 319.9 589 319.9 630 c 0
 319.9 671 286.7 697.8 252.5 697.8 c 0
 218.3 697.8 185.1 671 185.1 630 c 0
EndSplineSet
EndChar

StartChar: uni0123
Encoding: 291 291 381
Width: 570
VWidth: 0
Flags: HW
LayerCount: 2
Fore
SplineSet
50.4 -30 m 1
 103 -30 l 1
 103 -116 167.2 -181 264 -181 c 0
 348.8 -181 432.4 -121.6 432.4 10 c 2
 432.4 460 l 1
 484.4 460 l 1
 484.4 10 l 2
 484.4 -149 379 -230 264 -230 c 0
 137 -230 50.4 -149 50.4 -30 c 1
39 230 m 0
 39 378.2 138 470 261 470 c 0
 379.2 470 456 367 456 230 c 0
 456 93 379.2 -10 261 -10 c 0
 138 -10 39 81.8 39 230 c 0
91.6 230 m 0
 91.6 110 170.8 39 268.2 39 c 0
 354.2 39 432.4 120 432.4 232 c 0
 432.4 338 354.2 421 268.2 421 c 0
 170.8 421 91.6 350 91.6 230 c 0
272.398242187 553.90546875 m 1
 223.705664062 581.741015625 l 1
 370.912695312 811.805859375 l 1
 405.60390625 792.834375 l 1
 272.398242187 553.90546875 l 1
EndSplineSet
EndChar

StartChar: Hbar
Encoding: 294 294 382
Width: 687
VWidth: 0
Flags: HW
LayerCount: 2
Fore
SplineSet
113.4 354.8 m 1
 113.4 406.8 l 1
 585.4 406.8 l 1
 585.4 354.8 l 1
 113.4 354.8 l 1
548.4 700 m 1
 603.8 700 l 1
 603.8 0 l 1
 548.4 0 l 1
 548.4 700 l 1
84 700 m 1
 139.4 700 l 1
 139.4 0 l 1
 84 0 l 1
 84 700 l 1
5 566 m 1
 5 615 l 1
 682.8 615 l 1
 682.8 566 l 1
 5 566 l 1
EndSplineSet
EndChar

StartChar: hbar
Encoding: 295 295 383
Width: 525
VWidth: 0
Flags: HW
LayerCount: 2
Fore
SplineSet
131 780 m 1
 131 0 l 1
 79 0 l 1
 79 780 l 1
 131 780 l 1
374 296 m 2
 374 374 341 421 266 421 c 0
 187.6 421 131 357.6 131 280 c 1
 113.4 280 l 1
 113.4 389 183 470 278 470 c 0
 373 470 426 409 426 302 c 2
 426 0 l 1
 374 0 l 1
 374 296 l 2
5 651 m 1
 5 700 l 1
 317 700 l 1
 317 651 l 1
 5 651 l 1
EndSplineSet
EndChar

StartChar: Utilde
Encoding: 360 360 384
Width: 606
VWidth: 0
Flags: HW
LayerCount: 2
Fore
SplineSet
79 700 m 1
 134.4 700 l 1
 134.4 226 l 2
 134.4 114 195 42.4 303 42.4 c 0
 411 42.4 471.6 114 471.6 226 c 2
 471.6 700 l 1
 527 700 l 1
 527 226 l 2
 527 87 444 -10 303 -10 c 0
 162 -10 79 87 79 226 c 2
 79 700 l 1
153.8 791.8 m 1
 159.8 832.8 196 864.2 241 864.2 c 0
 302 864.2 311 817.2 365 817.2 c 0
 388 817.2 403 833.2 421 865.2 c 1
 452.2 838.2 l 1
 436.2 801.2 404.2 773.2 362.2 773.2 c 0
 307.2 773.2 286.2 820.2 241.2 820.2 c 0
 200.2 820.2 189.2 788.2 189.2 769.2 c 1
 153.8 791.8 l 1
EndSplineSet
EndChar

StartChar: utilde
Encoding: 361 361 385
Width: 505
VWidth: 0
Flags: HW
LayerCount: 2
Fore
SplineSet
374 0 m 1
 374 460 l 1
 426 460 l 1
 426 0 l 1
 374 0 l 1
131 168 m 2
 131 86 164 39 239 39 c 0
 317.4 39 374 102.4 374 180 c 1
 391.6 180 l 1
 391.6 71 322 -10 227 -10 c 0
 132 -10 79 51 79 162 c 2
 79 460 l 1
 131 460 l 1
 131 168 l 2
103.3 552.6 m 1
 109.3 593.6 145.5 625 190.5 625 c 0
 251.5 625 260.5 578 314.5 578 c 0
 337.5 578 352.5 594 370.5 626 c 1
 401.7 599 l 1
 385.7 562 353.7 534 311.7 534 c 0
 256.7 534 235.7 581 190.7 581 c 0
 149.7 581 138.7 549 138.7 530 c 1
 103.3 552.6 l 1
EndSplineSet
EndChar

StartChar: Umacron
Encoding: 362 362 386
Width: 606
VWidth: 0
Flags: HW
LayerCount: 2
Fore
SplineSet
79 700 m 1
 134.4 700 l 1
 134.4 226 l 2
 134.4 114 195 42.4 303 42.4 c 0
 411 42.4 471.6 114 471.6 226 c 2
 471.6 700 l 1
 527 700 l 1
 527 226 l 2
 527 87 444 -10 303 -10 c 0
 162 -10 79 87 79 226 c 2
 79 700 l 1
128.15 769.2 m 1
 128.15 818.2 l 1
 478.15 818.2 l 1
 478.15 769.2 l 1
 128.15 769.2 l 1
EndSplineSet
EndChar

StartChar: umacron
Encoding: 363 363 387
Width: 505
VWidth: 0
Flags: HW
LayerCount: 2
Fore
SplineSet
374 0 m 1
 374 460 l 1
 426 460 l 1
 426 0 l 1
 374 0 l 1
131 168 m 2
 131 86 164 39 239 39 c 0
 317.4 39 374 102.4 374 180 c 1
 391.6 180 l 1
 391.6 71 322 -10 227 -10 c 0
 132 -10 79 51 79 162 c 2
 79 460 l 1
 131 460 l 1
 131 168 l 2
77.65 530 m 1
 77.65 579 l 1
 427.65 579 l 1
 427.65 530 l 1
 77.65 530 l 1
EndSplineSet
EndChar

StartChar: Ubreve
Encoding: 364 364 388
Width: 606
VWidth: 0
Flags: HW
LayerCount: 2
Fore
SplineSet
79 700 m 1
 134.4 700 l 1
 134.4 226 l 2
 134.4 114 195 42.4 303 42.4 c 0
 411 42.4 471.6 114 471.6 226 c 2
 471.6 700 l 1
 527 700 l 1
 527 226 l 2
 527 87 444 -10 303 -10 c 0
 162 -10 79 87 79 226 c 2
 79 700 l 1
145 909.2 m 1
 191.6 909.2 l 1
 191.6 867.2 224.2 812.2 303 812.2 c 0
 381.8 812.2 414.4 867.2 414.4 909.2 c 1
 461 909.2 l 1
 461 840.2 408 769.2 303 769.2 c 0
 198 769.2 145 840.2 145 909.2 c 1
EndSplineSet
EndChar

StartChar: ubreve
Encoding: 365 365 389
Width: 505
VWidth: 0
Flags: HW
LayerCount: 2
Fore
SplineSet
374 0 m 1
 374 460 l 1
 426 460 l 1
 426 0 l 1
 374 0 l 1
131 168 m 2
 131 86 164 39 239 39 c 0
 317.4 39 374 102.4 374 180 c 1
 391.6 180 l 1
 391.6 71 322 -10 227 -10 c 0
 132 -10 79 51 79 162 c 2
 79 460 l 1
 131 460 l 1
 131 168 l 2
94.5 670 m 1
 141.1 670 l 1
 141.1 628 173.7 573 252.5 573 c 0
 331.3 573 363.9 628 363.9 670 c 1
 410.5 670 l 1
 410.5 601 357.5 530 252.5 530 c 0
 147.5 530 94.5 601 94.5 670 c 1
EndSplineSet
EndChar

StartChar: Wcircumflex
Encoding: 372 372 390
Width: 974
VWidth: 0
Flags: HW
LayerCount: 2
Fore
SplineSet
698 115.4 m 1
 898.6 700 l 1
 960 700 l 1
 701 -27 l 1
 487 576.2 l 1
 273 -27 l 1
 14 700 l 1
 75.4 700 l 1
 276 115.4 l 1
 487 727 l 1
 698 115.4 l 1
487 898 m 1
 359.8 787 l 1
 327 813.8 l 1
 487 953.8 l 1
 647 813.8 l 1
 614.2 787 l 1
 487 898 l 1
EndSplineSet
EndChar

StartChar: wcircumflex
Encoding: 373 373 391
Width: 656
VWidth: 0
Flags: HW
LayerCount: 2
Fore
SplineSet
9 460 m 1
 67 460 l 1
 190.8 103.8 l 1
 323 487 l 1
 464.6 102.6 l 1
 589 460 l 1
 647 460 l 1
 468.2 -27 l 1
 323.6 356.4 l 1
 187.8 -27 l 1
 9 460 l 1
323 658 m 1
 195.8 547 l 1
 163 573.8 l 1
 323 713.8 l 1
 483 573.8 l 1
 450.2 547 l 1
 323 658 l 1
EndSplineSet
EndChar

StartChar: Ycircumflex
Encoding: 374 374 392
Width: 539
VWidth: 0
Flags: HW
LayerCount: 2
Fore
SplineSet
468.2 700 m 1
 530.4 700 l 1
 295.4 288 l 1
 295.4 0 l 1
 240 0 l 1
 240 287 l 1
 9 700 l 1
 71.2 700 l 1
 267.2 338 l 1
 468.2 700 l 1
269.7 880.2 m 1
 142.5 769.2 l 1
 109.7 796 l 1
 269.7 936 l 1
 429.7 796 l 1
 396.9 769.2 l 1
 269.7 880.2 l 1
EndSplineSet
EndChar

StartChar: ycircumflex
Encoding: 375 375 393
Width: 434
VWidth: 0
Flags: HW
LayerCount: 2
Fore
SplineSet
430 460 m 1
 130 -220 l 1
 71.6 -220 l 1
 189.6 47 l 1
 4 460 l 1
 65.8 460 l 1
 233 68 l 1
 208.8 70.4 l 1
 371.6 460 l 1
 430 460 l 1
217 641 m 1
 89.8 530 l 1
 57 556.8 l 1
 217 696.8 l 1
 377 556.8 l 1
 344.2 530 l 1
 217 641 l 1
EndSplineSet
EndChar

StartChar: uni0400
Encoding: 1024 1024 394
Width: 550
VWidth: 0
Flags: HW
LayerCount: 2
Fore
SplineSet
113 0 m 1
 113 52 l 1
 460 52 l 1
 460 0 l 1
 113 0 l 1
113 648 m 1
 113 700 l 1
 460 700 l 1
 460 648 l 1
 113 648 l 1
113 357.6 m 1
 113 409.6 l 1
 440 409.6 l 1
 440 357.6 l 1
 113 357.6 l 1
84 700 m 1
 139.4 700 l 1
 139.4 0 l 1
 84 0 l 1
 84 700 l 1
110 932.8 m 1
 158.2 960 l 1
 316.2 800 l 1
 287.2 780 l 1
 110 932.8 l 1
EndSplineSet
EndChar

StartChar: uni0401
Encoding: 1025 1025 395
Width: 550
VWidth: 0
Flags: HW
LayerCount: 2
Fore
SplineSet
113 0 m 1
 113 52 l 1
 460 52 l 1
 460 0 l 1
 113 0 l 1
113 648 m 1
 113 700 l 1
 460 700 l 1
 460 648 l 1
 113 648 l 1
113 357.6 m 1
 113 409.6 l 1
 440 409.6 l 1
 440 357.6 l 1
 113 357.6 l 1
84 700 m 1
 139.4 700 l 1
 139.4 0 l 1
 84 0 l 1
 84 700 l 1
333 836.6 m 0
 333 857.4 350 874 370.4 874 c 0
 390.8 874 407.8 857.4 407.8 836.6 c 0
 407.8 815.8 390.8 799.2 370.4 799.2 c 0
 350 799.2 333 815.8 333 836.6 c 0
133 836.6 m 0
 133 857.4 150 874 170.4 874 c 0
 190.8 874 207.8 857.4 207.8 836.6 c 0
 207.8 815.8 190.8 799.2 170.4 799.2 c 0
 150 799.2 133 815.8 133 836.6 c 0
EndSplineSet
EndChar

StartChar: uni0403
Encoding: 1027 1027 396
Width: 435
VWidth: 0
Flags: HW
LayerCount: 2
Fore
SplineSet
80 700 m 1
 425 700 l 1
 425 648 l 1
 135 648 l 1
 135 0 l 1
 80 0 l 1
 80 700 l 1
413.7 932.8 m 1
 236.5 780 l 1
 207.5 800 l 1
 365.5 960 l 1
 413.7 932.8 l 1
EndSplineSet
EndChar

StartChar: uni040C
Encoding: 1036 1036 397
Width: 565
VWidth: 0
Flags: HW
LayerCount: 2
Fore
SplineSet
82 700 m 1
 137.4 700 l 1
 137.4 0 l 1
 82 0 l 1
 82 700 l 1
427.2 700 m 1
 496.6 700 l 1
 188.8 372 l 1
 511.6 0 l 1
 441.8 0 l 1
 121 370.8 l 1
 427.2 700 l 1
473.7 932.8 m 1
 296.5 780 l 1
 267.5 800 l 1
 425.5 960 l 1
 473.7 932.8 l 1
EndSplineSet
EndChar

StartChar: uni040D
Encoding: 1037 1037 398
Width: 755
VWidth: 0
Flags: HW
LayerCount: 2
Fore
SplineSet
668 649.8 m 1
 84 -35 l 1
 87 50.2 l 1
 671 735 l 1
 668 649.8 l 1
139 700 m 1
 139 39.8 l 1
 84 -35 l 1
 84 700 l 1
 139 700 l 1
671 735 m 1
 671 0 l 1
 616 0 l 1
 616 661 l 1
 671 735 l 1
229 907.8 m 1
 277.2 935 l 1
 435.2 775 l 1
 406.2 755 l 1
 229 907.8 l 1
EndSplineSet
EndChar

StartChar: uni040E
Encoding: 1038 1038 399
Width: 531
VWidth: 0
Flags: HW
LayerCount: 2
Fore
SplineSet
531 700 m 1
 202 0 l 1
 141 0 l 1
 237 213.8 l 1
 0 700 l 1
 67 700 l 1
 287.8 230 l 1
 254.4 232.4 l 1
 470 700 l 1
 531 700 l 1
109 909.2 m 1
 155.6 909.2 l 1
 155.6 867.2 188.2 812.2 267 812.2 c 0
 345.8 812.2 378.4 867.2 378.4 909.2 c 1
 425 909.2 l 1
 425 840.2 372 769.2 267 769.2 c 0
 162 769.2 109 840.2 109 909.2 c 1
EndSplineSet
EndChar

StartChar: uni0410
Encoding: 1040 1040 400
Width: 660
VWidth: 0
Flags: HW
LayerCount: 2
Fore
SplineSet
139.8 234.8 m 1
 157.8 286.8 l 1
 481 286.8 l 1
 499 234.8 l 1
 139.8 234.8 l 1
318 600.4 m 1
 181.6 269.2 l 1
 176.4 256.8 l 1
 70.8 0 l 1
 9 0 l 1
 318 727 l 1
 627 0 l 1
 565.2 0 l 1
 461.2 253.2 l 1
 456 266.4 l 1
 318 600.4 l 1
EndSplineSet
EndChar

StartChar: uni0411
Encoding: 1041 1041 401
Width: 532
VWidth: 0
Flags: HW
LayerCount: 2
Fore
SplineSet
111 368 m 1
 111 420 l 1
 254 420 l 2
 389 420 492 339 492 210 c 0
 492 81 389 0 254 0 c 2
 111 0 l 1
 111 52 l 1
 254 52 l 2
 360 52 437 110 437 210 c 0
 437 310 360 368 254 368 c 2
 111 368 l 1
80 700 m 1
 439 700 l 1
 439 648 l 1
 135 648 l 1
 135 0 l 1
 80 0 l 1
 80 700 l 1
EndSplineSet
EndChar

StartChar: uni0412
Encoding: 1042 1042 402
Width: 558
VWidth: 0
Flags: HW
LayerCount: 2
Fore
SplineSet
127 376.4 m 1
 127 407.8 l 1
 236 407.8 l 2
 318 407.8 384.6 446 384.6 528 c 0
 384.6 605.2 326 650.6 236 650.6 c 2
 139 650.6 l 1
 139 49.4 l 1
 246 49.4 l 2
 352 49.4 423.4 102 423.4 206 c 0
 423.4 304 340 359.4 246 359.4 c 2
 127 359.4 l 1
 127 390.8 l 1
 250 390.8 l 2
 365 390.8 478.8 332 478.8 203 c 0
 478.8 64 381 0 246 0 c 2
 84 0 l 1
 84 700 l 1
 236 700 l 2
 361 700 440 642 440 531 c 0
 440 428 357 376.4 240 376.4 c 2
 127 376.4 l 1
EndSplineSet
EndChar

StartChar: uni0413
Encoding: 1043 1043 403
Width: 435
VWidth: 0
Flags: HW
LayerCount: 2
Fore
SplineSet
80 700 m 1
 425 700 l 1
 425 648 l 1
 135 648 l 1
 135 0 l 1
 80 0 l 1
 80 700 l 1
EndSplineSet
EndChar

StartChar: uni0414
Encoding: 1044 1044 404
Width: 795
VWidth: 0
Flags: HW
LayerCount: 2
Fore
SplineSet
395 607.2 m 1
 168.8 22 l 1
 110 22 l 1
 395 735 l 1
 680 22 l 1
 621.2 22 l 1
 395 607.2 l 1
701 0 m 1
 89 0 l 1
 89 -110 l 1
 40 -110 l 1
 40 52 l 1
 750 52 l 1
 750 -110 l 1
 701 -110 l 1
 701 0 l 1
EndSplineSet
EndChar

StartChar: uni0415
Encoding: 1045 1045 405
Width: 550
VWidth: 0
Flags: HW
LayerCount: 2
Fore
SplineSet
113 0 m 1
 113 52 l 1
 460 52 l 1
 460 0 l 1
 113 0 l 1
113 648 m 1
 113 700 l 1
 460 700 l 1
 460 648 l 1
 113 648 l 1
113 357.6 m 1
 113 409.6 l 1
 440 409.6 l 1
 440 357.6 l 1
 113 357.6 l 1
84 700 m 1
 139.4 700 l 1
 139.4 0 l 1
 84 0 l 1
 84 700 l 1
EndSplineSet
EndChar

StartChar: uni0416
Encoding: 1046 1046 406
Width: 793
VWidth: 0
Flags: HW
LayerCount: 2
Fore
SplineSet
89 700 m 1
 384.4 370 l 1
 74 0 l 1
 5 0 l 1
 317.4 371.2 l 1
 20 700 l 1
 89 700 l 1
374 700 m 1
 429 700 l 1
 429 0 l 1
 374 0 l 1
 374 700 l 1
704 700 m 1
 773 700 l 1
 479.6 371.2 l 1
 788 0 l 1
 719 0 l 1
 418.6 370 l 1
 704 700 l 1
EndSplineSet
EndChar

StartChar: uni0417
Encoding: 1047 1047 407
Width: 606
VWidth: 0
Flags: HW
LayerCount: 2
Fore
SplineSet
283 351 m 1
 283 386.8 l 1
 405.8 386.8 484.8 444.2 484.8 522.2 c 0
 484.8 600.2 423.6 659.8 317.6 659.8 c 0
 213.8 659.8 142.6 603 142.6 526 c 1
 90 526 l 1
 90 635 182 710 317 710 c 0
 457 710 541 623 541 524 c 0
 541 425 438 351 283 351 c 1
313 -10 m 0
 148 -10 60 76 60 185 c 1
 115.6 185 l 1
 119.8 103 185 42 313 42 c 0
 439 42 504.8 101.8 504.8 191 c 0
 504.8 296.6 405.8 337.8 283 337.8 c 1
 283 374 l 1
 438 374 561 324 561 185 c 0
 561 66 468 -10 313 -10 c 0
EndSplineSet
EndChar

StartChar: uni0418
Encoding: 1048 1048 408
Width: 755
VWidth: 0
Flags: HW
LayerCount: 2
Fore
SplineSet
668 649.8 m 1
 84 -35 l 1
 87 50.2 l 1
 671 735 l 1
 668 649.8 l 1
139 700 m 1
 139 39.8 l 1
 84 -35 l 1
 84 700 l 1
 139 700 l 1
671 735 m 1
 671 0 l 1
 616 0 l 1
 616 661 l 1
 671 735 l 1
EndSplineSet
EndChar

